<svg width="266" height="471" viewBox="0 0 266 471" fill="none" xmlns="http://www.w3.org/2000/svg">
<g clip-path="url(#clip0_21_1054)">
<path d="M145.137 471C211.888 471 266 465.111 266 457.846C266 450.582 211.888 444.693 145.137 444.693C78.386 444.693 24.2738 450.582 24.2738 457.846C24.2738 465.111 78.386 471 145.137 471Z" fill="#E8EAF1"/>
<path fill-rule="evenodd" clip-rule="evenodd" d="M248.086 343.849C248.239 343.429 248.323 342.987 248.334 342.54V342.108C248.139 338.03 243.59 339.143 240.45 339.912C238.549 340.377 237.165 340.716 237.578 339.698C238.53 337.381 240.185 329.524 238.608 325.923C238.405 325.36 238.048 324.865 237.578 324.496C234.397 322.323 224.736 337.917 224.736 337.917C224.736 337.917 221.62 333.06 218.217 334.762C217.637 335.095 217.127 335.54 216.718 336.071C216.453 336.372 216.208 336.692 215.987 337.027C211.815 343.339 214.566 361.042 214.566 361.042C214.566 361.042 214.084 360.348 213.263 359.261C213.484 353.814 213.184 350.449 212.507 348.786C212.432 348.597 212.345 348.413 212.246 348.236C212.177 348.112 212.094 347.998 211.998 347.895V347.817C211.925 347.737 211.841 347.666 211.75 347.607H211.672C211.569 347.541 211.454 347.497 211.333 347.477C210.721 347.359 209.064 349.087 207.2 351.404C205.349 349.178 203.719 347.477 203.093 347.477C202.585 347.568 202.154 348.026 201.789 348.904C201.125 350.619 200.812 353.984 201.033 359.379C200.72 359.811 200.447 360.204 200.251 360.492C200.055 360.78 199.769 361.16 199.769 361.16C200.231 357.966 200.518 354.748 200.629 351.522V349.532C200.629 344.844 200.147 339.908 198.322 337.145L198.243 337.027C198.155 336.891 198.059 336.76 197.957 336.634L197.526 336.071C197.29 335.803 197.033 335.553 196.757 335.325C196.524 335.112 196.271 334.923 196.001 334.762C195.799 334.653 195.584 334.569 195.362 334.513C193.054 333.859 190.981 335.967 190.042 337.132L189.651 337.643L189.547 337.787C189.547 337.787 179.86 322.323 176.666 324.496C176.436 324.659 176.233 324.858 176.066 325.086V325.151C175.894 325.391 175.75 325.651 175.636 325.923C174.059 329.524 175.675 337.381 176.64 339.711C177.053 340.728 175.669 340.389 173.767 339.922C170.624 339.151 166.066 338.033 165.871 342.121V342.239V342.553C165.877 342.769 165.904 342.984 165.949 343.195C166.784 347.371 173.954 351.784 178.204 353.997L178.713 354.272L179.156 354.508H179.234L179.625 354.704H179.691L180.029 354.874H180.108L180.395 355.019H180.486L180.708 355.123H180.773L180.955 355.215H181.086L181.242 355.28C181.242 355.28 178.83 355.071 176.027 355.071H174.828C173.649 355.09 172.473 355.186 171.308 355.359C170.662 355.455 170.029 355.617 169.417 355.843C168.609 356.145 168.113 356.564 167.93 357.153C167.89 357.361 167.864 357.57 167.853 357.781C167.842 358.416 167.953 359.047 168.178 359.641C168.184 359.666 168.184 359.693 168.178 359.72C169.834 365.481 180.434 373.141 183.615 375.34L183.863 375.511L183.941 375.576L184.11 375.681H184.201L184.306 375.759H182.885C178.973 375.589 169.769 375.511 169.039 378.706V378.784C169 379.001 169 379.223 169.039 379.439C169.039 379.557 169.039 379.688 169.117 379.819C171.933 395.139 203.55 399.421 203.55 399.421L204.188 399.316C204.219 399.431 204.249 399.544 204.279 399.656L204.279 399.657C204.366 399.98 204.45 400.295 204.527 400.625H206.17C206.085 400.284 205.994 399.942 205.902 399.593L205.901 399.591C205.852 399.405 205.803 399.218 205.753 399.028C206.053 399.028 206.274 398.897 206.261 398.858L207.109 398.19C207.63 398.622 207.943 398.858 207.943 398.858C207.943 398.858 208.152 398.962 208.465 399.028C208.368 399.378 208.281 399.712 208.194 400.044V400.045L208.194 400.045C208.141 400.247 208.089 400.449 208.035 400.651H209.677C209.755 400.322 209.839 400.006 209.925 399.684C209.955 399.571 209.986 399.458 210.016 399.342L210.668 399.447C210.668 399.447 242.271 395.139 245.113 379.897C245.113 379.766 245.113 379.636 245.205 379.518C245.279 379.062 245.181 378.595 244.931 378.208C242.793 374.869 229.664 375.93 229.664 375.93C229.664 375.93 242.793 367.288 245.687 360.584C245.95 359.992 246.126 359.366 246.209 358.724C246.278 358.29 246.278 357.849 246.209 357.415C245.466 354.403 232.885 355.555 232.885 355.555C232.885 355.555 246.091 349.597 248.086 343.849ZM201.072 362.509C201.072 362.085 201.04 361.675 201.007 361.276C200.986 361.01 200.966 360.749 200.955 360.492C201.072 361.147 201.072 361.801 201.072 362.509ZM196.288 385.973C196.248 385.91 196.213 385.845 196.183 385.777V385.672C196.207 385.776 196.242 385.877 196.288 385.973Z" fill="#85CEB4"/>
<path d="M237.226 400.743H183.772C181.611 400.743 179.86 402.502 179.86 404.672C179.86 406.841 181.611 408.599 183.772 408.599H185.075V444.883C185.091 447.876 187.022 450.518 189.86 451.431V457.467H197.253V451.81H223.328V457.48H230.707V451.574C233.768 450.811 235.919 448.052 235.922 444.883V408.599H237.226C239.386 408.599 241.137 406.841 241.137 404.672C241.137 402.502 239.386 400.743 237.226 400.743Z" fill="#FFB66D"/>
<g style="mix-blend-mode:overlay" opacity="0.6">
<path d="M197.226 451.456H189.886V454.154H197.226V451.456Z" fill="#070713"/>
</g>
<g style="mix-blend-mode:overlay" opacity="0.6">
<path d="M230.694 451.456H223.354V454.154H230.694V451.456Z" fill="#070713"/>
</g>
<g style="mix-blend-mode:overlay" opacity="0.6">
<path d="M212.519 348.72C212.446 348.531 212.359 348.347 212.259 348.17C212.19 348.047 212.107 347.933 212.011 347.83V347.751C211.937 347.671 211.854 347.601 211.763 347.542H211.685C211.582 347.476 211.467 347.432 211.346 347.411C210.733 347.293 209.078 349.022 207.213 351.339C209.404 353.958 211.907 357.389 213.38 359.418C213.497 353.801 213.197 350.475 212.519 348.72Z" fill="#070713"/>
</g>
<g style="mix-blend-mode:overlay" opacity="0.6">
<path d="M194.423 380.107C194.264 378.257 194.207 376.398 194.254 374.542C194.252 373.699 194.352 372.859 194.554 372.041C194.919 370.888 195.519 370.915 196.118 371.242C197.331 371.91 205.779 378.051 205.779 378.051C205.779 378.051 201.841 373.128 201.072 362.508C200.994 361.343 200.942 360.269 200.89 359.248C200.577 359.68 200.303 360.073 200.108 360.361C199.912 360.649 199.625 361.029 199.625 361.029C200.087 357.835 200.374 354.617 200.486 351.391C200.486 350.737 200.486 350.082 200.486 349.401C200.486 344.713 200.003 339.777 198.178 337.014L198.1 336.897C198.012 336.76 197.916 336.629 197.813 336.503L197.526 336.071C197.29 335.803 197.033 335.553 196.757 335.325C196.524 335.112 196.271 334.923 196.001 334.762C195.799 334.653 195.584 334.569 195.362 334.513C193.054 333.859 190.981 335.967 190.042 337.132L189.651 337.643L189.547 337.787C189.547 337.787 179.86 322.323 176.666 324.496C176.436 324.659 176.233 324.858 176.066 325.086V325.151C175.894 325.391 175.75 325.651 175.636 325.923C174.059 329.524 175.675 337.381 176.64 339.711C177.735 342.409 166.184 335.561 165.871 342.121V342.239C165.871 342.344 165.871 342.435 165.871 342.553C165.877 342.769 165.904 342.984 165.949 343.195C166.784 347.371 173.954 351.784 178.204 353.997L178.713 354.272L179.156 354.508H179.234L179.625 354.704H179.691L180.029 354.874H180.108L180.395 355.019H180.486L180.708 355.123H180.773L180.955 355.215H181.086L181.242 355.28C181.242 355.28 178.83 355.071 176.027 355.071H174.828C173.649 355.09 172.473 355.186 171.308 355.359C170.662 355.455 170.029 355.617 169.417 355.843C168.609 356.145 168.113 356.564 167.93 357.153C167.89 357.361 167.864 357.57 167.853 357.781C167.842 358.416 167.953 359.047 168.178 359.641C168.184 359.666 168.184 359.693 168.178 359.72C169.834 365.481 180.434 373.141 183.615 375.34L183.863 375.511L183.941 375.576L184.11 375.681H184.201L184.306 375.759H184.397H182.885C178.973 375.589 169.769 375.511 169.039 378.706C169.039 378.706 169.039 378.706 169.039 378.784C169 379.001 169 379.223 169.039 379.439C169.039 379.557 169.039 379.688 169.117 379.819C171.933 395.139 203.55 399.421 203.55 399.421L204.188 399.316C204.306 399.761 204.423 400.18 204.527 400.625H206.17C206.04 400.102 205.896 399.577 205.753 399.028C206.053 399.028 206.274 398.897 206.261 398.858L207.109 398.19C204.24 395.82 194.997 387.688 194.423 380.107Z" fill="#85CEB4"/>
</g>
<g style="mix-blend-mode:overlay" opacity="0.6">
<path d="M228.869 347.07C235.384 346.817 241.842 345.734 248.086 343.849C248.239 343.429 248.323 342.987 248.334 342.54C248.334 342.383 248.334 342.252 248.334 342.108C242.236 343.992 235.931 345.113 229.56 345.447C232.937 337.682 235.974 331.2 238.608 325.91C238.403 325.352 238.046 324.861 237.578 324.496C233.667 332.353 228.778 342.828 223.237 356.459C221.932 352.74 219.065 344.543 218.504 338.729C218.4 337.669 218.308 336.294 218.243 334.802C217.657 335.12 217.138 335.552 216.718 336.071C216.718 337.119 216.835 338.088 216.913 338.9C217.617 346.154 221.542 356.551 222.35 358.645L221.242 361.396C219.251 366.336 217.491 370.989 215.962 375.354C213.027 371.978 210.51 368.259 208.465 364.276C206.313 360.348 204.436 353.683 203.002 347.346C202.494 347.437 202.063 347.895 201.698 348.773C203.132 354.888 204.971 361.225 207.083 365.049C212.089 374.084 215.205 376.833 215.336 376.978L215.44 376.86C213.901 381.224 212.563 385.24 211.424 388.906C209.221 387.597 200.772 382.058 196.183 374.673C195.596 373.743 195.088 372.892 194.606 372.054C194.391 372.871 194.278 373.71 194.267 374.555L194.827 375.471C199.938 383.694 209.299 389.456 210.942 390.438C209.99 393.555 209.182 396.396 208.478 399.028C208.321 399.591 208.191 400.115 208.047 400.651H209.677C209.781 400.206 209.899 399.787 210.016 399.342C211.15 395.152 212.546 390.386 214.332 384.939C217.248 385.289 220.182 385.463 223.119 385.462C224.97 385.462 227.03 385.462 229.025 385.201C234.24 384.703 240.863 381.914 245.113 379.897C245.113 379.767 245.113 379.636 245.205 379.518C245.279 379.062 245.181 378.595 244.931 378.208C240.798 380.199 233.993 383.131 228.882 383.616C224.205 384.004 219.502 383.929 214.84 383.393C216.639 377.998 218.752 372.015 221.359 365.428C229.676 365.077 237.89 363.442 245.713 360.584C245.976 359.993 246.152 359.366 246.235 358.724C238.437 361.646 230.243 363.367 221.932 363.831C222.167 363.215 222.402 362.6 222.65 361.984C224.853 356.564 226.913 351.614 228.869 347.07Z" fill="#070713"/>
</g>
<g style="mix-blend-mode:overlay" opacity="0.6">
<path d="M235.922 408.377H185.075V412.305H235.922V408.377Z" fill="#070713"/>
</g>
<g style="mix-blend-mode:overlay" opacity="0.6">
<path d="M212.519 348.72C212.181 347.843 211.75 347.411 211.216 347.293C210.707 349.585 210.121 351.915 209.495 354.155L210.694 355.713C211.359 353.474 211.972 351.077 212.519 348.72Z" fill="#070713"/>
<path d="M202.885 371.962C202.676 371.351 202.481 370.684 202.298 369.959C201.255 371.543 200.368 372.761 199.69 373.639L200.994 374.568C201.516 373.874 202.154 373.023 202.885 371.962Z" fill="#070713"/>
<path d="M185.336 383.616C180.212 383.131 173.419 380.199 169.287 378.208C169.03 378.593 168.932 379.062 169.013 379.518C169.013 379.636 169.013 379.767 169.091 379.897C173.354 381.914 179.99 384.703 185.18 385.201C187.239 385.397 189.234 385.462 191.099 385.462C192.963 385.462 194.566 385.462 195.988 385.305C195.727 384.781 195.505 384.271 195.297 383.747C191.978 383.948 188.649 383.904 185.336 383.616Z" fill="#070713"/>
<path d="M204.188 399.316C204.306 399.761 204.423 400.18 204.527 400.625H206.17C206.04 400.102 205.896 399.578 205.753 399.028C205.518 398.177 205.284 397.286 205.023 396.409C204.332 395.781 203.562 395.1 202.754 394.236C203.276 395.99 203.758 397.705 204.188 399.316Z" fill="#070713"/>
<path d="M196.157 371.242C196.435 371.398 196.705 371.568 196.965 371.753C195.753 368.466 194.436 365.009 192.989 361.382C192.624 360.453 192.259 359.549 191.881 358.632C192.702 356.537 196.613 346.141 197.317 338.887C197.396 338.075 197.461 337.106 197.526 336.058C197.107 335.527 196.589 335.082 196.001 334.749C195.923 336.229 195.844 337.603 195.74 338.677C195.179 344.491 192.364 352.701 191.007 356.406C185.427 342.88 180.59 332.353 176.666 324.496C176.178 324.857 175.807 325.353 175.597 325.923C178.204 331.161 181.268 337.708 184.723 345.46C178.326 345.134 171.993 344.012 165.871 342.121C165.871 342.265 165.871 342.396 165.871 342.553C165.887 343.001 165.975 343.443 166.132 343.862C172.376 345.745 178.834 346.822 185.349 347.07C187.304 351.614 189.365 356.564 191.516 361.984L192.246 363.831C183.958 363.356 175.788 361.634 168.009 358.724C168.069 359.364 168.227 359.992 168.478 360.584C176.297 363.442 184.506 365.076 192.82 365.428C193.589 367.418 194.319 369.357 195.01 371.216C195.352 370.957 195.827 370.968 196.157 371.242Z" fill="#070713"/>
</g>
<path d="M152.629 41.0001C152.629 31.1327 141.738 34.2781 139.884 34.8963C138.03 35.5145 133.705 21.2963 133.705 21.2963C133.705 21.2963 111.461 19.4417 107.135 23.769C107.135 23.769 105.899 42.3145 106.517 54.0598C107.135 65.8055 110.907 70.7396 115.233 70.7396C116.601 70.6627 117.945 70.3485 119.205 69.8112V91.4332L145.37 77.8658L142.147 52.324C142.28 52.2461 142.356 52.2051 142.356 52.2051C142.356 52.2051 152.629 50.3193 152.629 41.0001Z" fill="#FFB7B6"/>
<path d="M106.428 39.8458C106.428 39.8458 107.635 29.6946 107.789 26.8842C108.01 22.8413 111.773 21.993 113.986 24.8285C117.168 29.0392 122.57 30.9219 127.678 29.601C132.161 28.5566 134.048 27.3575 134.459 31.8833C134.87 36.409 136.411 43.9247 137.85 41.9142C139.288 39.9037 140.898 35.484 143.747 34.97C148.102 34.1846 150.795 39.3859 149.767 42.4883C148.74 45.5907 147.287 47.5256 141.912 50.4594L143.588 63.7474C156.907 46.0786 161.925 21.8135 143.86 16.1946C137.111 14.0954 130.1 0.491519 117.042 3.58622C107.789 5.77899 107.789 12.8712 107.131 19.0383C94.6995 19.5522 106.428 39.8458 106.428 39.8458Z" fill="#352316"/>
<path d="M120.38 39.8458C121.019 39.8458 121.536 38.9944 121.536 37.9443C121.536 36.8941 121.019 36.0427 120.38 36.0427C119.742 36.0427 119.224 36.8941 119.224 37.9443C119.224 38.9944 119.742 39.8458 120.38 39.8458Z" fill="#161B36"/>
<path d="M108.944 40.6359C109.583 40.6359 110.1 39.7846 110.1 38.7344C110.1 37.6842 109.583 36.8329 108.944 36.8329C108.306 36.8329 107.788 37.6842 107.788 38.7344C107.788 39.7846 108.306 40.6359 108.944 40.6359Z" fill="#161B36"/>
<path d="M117.992 30.3382C118.403 29.8757 118.968 29.516 120.663 29.6187C122.358 29.7215 124.926 31.3147 124.362 31.7258C123.797 32.137 122.101 30.7494 120.766 31.2119C119.43 31.6745 118.663 32.0549 118.214 31.803C117.649 31.486 117.794 30.5606 117.992 30.3382Z" fill="#161B36"/>
<path d="M110.645 29.8664C110.107 29.5614 109.456 29.4034 107.885 30.0483C106.314 30.6932 104.397 33.0307 105.065 33.2373C105.732 33.4439 106.889 31.583 108.302 31.5893C109.715 31.5956 110.564 31.708 110.907 31.3246C111.34 30.842 110.904 30.013 110.645 29.8664Z" fill="#161B36"/>
<g style="mix-blend-mode:overlay" opacity="0.6">
<path d="M113.153 50.7704C112.557 50.7927 111.965 50.6551 111.44 50.3727C111.095 50.18 110.855 49.8426 110.785 49.4536C110.658 48.6477 111.481 47.4004 112.489 45.973C112.745 45.6322 112.979 45.2759 113.191 44.906C113.396 44.4668 113.338 40.464 113.163 36.8479L113.78 36.818C113.84 38.0722 114.124 44.3678 113.751 45.1674C113.526 45.5722 113.273 45.9606 112.993 46.3298C112.359 47.2287 111.297 48.7334 111.396 49.3564C111.437 49.5672 111.572 49.7475 111.763 49.846C112.651 50.2275 113.649 50.2585 114.559 49.9329L114.747 50.5215C114.232 50.6859 113.694 50.7699 113.153 50.7704Z" fill="#070713"/>
</g>
<path d="M112.405 56.652C112.352 56.4694 112.375 56.2736 112.467 56.1082C112.56 55.9422 112.715 55.8203 112.898 55.7692C113.807 55.5061 115.482 55.0108 116.759 54.5763C118.09 54.0481 119.384 53.4324 120.633 52.7327C120.85 52.6144 121.114 52.6164 121.329 52.7383C121.545 52.8607 121.683 53.0854 121.693 53.3327C121.78 55.2355 121.551 58.9514 118.561 59.7087C114.924 60.63 113.02 58.6615 112.405 56.652Z" fill="#161B36"/>
<path d="M113.986 59.0243C113.986 59.0243 117.116 54.6507 121.586 55.6499C121.586 55.6499 121.593 59.0658 118.711 59.8352C115.608 60.6639 113.986 59.0243 113.986 59.0243Z" fill="#E55151"/>
<path d="M145.811 38.8913C142.849 37.8889 140.098 44.3397 139.982 44.6149C139.916 44.7723 139.99 44.9535 140.147 45.0197C140.304 45.0859 140.485 45.012 140.552 44.8546C141.03 43.741 141.616 42.6766 142.3 41.6764C142.925 41.5675 143.568 41.6851 144.113 42.0079C144.655 42.4112 145 43.0246 145.065 43.6967C145.089 43.8458 145.218 43.9551 145.369 43.9554C145.386 43.9555 145.403 43.9541 145.42 43.9512C145.5 43.9379 145.573 43.893 145.621 43.8263C145.668 43.7596 145.688 43.6768 145.674 43.5959C145.567 42.0996 144.289 40.9601 142.791 41.0241C143.671 39.934 144.675 39.1579 145.613 39.4769C145.717 39.5124 145.833 39.4894 145.916 39.4165C145.999 39.3437 146.037 39.2321 146.015 39.1237C145.994 39.0154 145.916 38.9268 145.811 38.8913Z" fill="#0B122D"/>
<path d="M119.205 70.1213C119.06 70.1218 118.933 70.0196 118.903 69.8765C118.873 69.7338 118.947 69.5891 119.08 69.5299C119.182 69.4849 129.334 64.9408 133.619 59.4482C133.724 59.3141 133.918 59.2908 134.052 59.3956C134.186 59.5003 134.21 59.6941 134.106 59.8286C129.725 65.4437 119.753 69.9078 119.33 70.095C119.291 70.1127 119.248 70.1213 119.205 70.1213Z" fill="#0B122D"/>
<path d="M133.683 26.5241C133.614 26.5241 133.548 26.5012 133.494 26.4592C128.831 22.8366 130.566 15.8148 130.642 15.5178C130.685 15.3531 130.853 15.2542 131.018 15.2963C131.182 15.3385 131.282 15.506 131.241 15.6711C131.223 15.7399 129.532 22.5988 133.873 25.9707C133.977 26.0517 134.018 26.1902 133.975 26.3152C133.933 26.4402 133.815 26.5242 133.683 26.5241Z" fill="white"/>
<g style="mix-blend-mode:overlay" opacity="0.6">
<path d="M119.226 69.9539C119.226 69.9539 128.13 65.81 131.007 62.7948C131.007 62.7948 130.342 70.9237 124.462 76.6364C118.581 82.3496 119.226 77.7332 119.226 77.7332V69.9539Z" fill="#070713"/>
</g>
<path fill-rule="evenodd" clip-rule="evenodd" d="M167.187 410.555L178.842 401.495L189.373 415.885L178.261 424.522L167.187 410.555ZM101.62 443.099L87.8726 439.88L91.9996 422.599L106.419 425.976L101.62 443.099Z" fill="#FFB7B6"/>
<path fill-rule="evenodd" clip-rule="evenodd" d="M201.599 424.649L202.787 426.147C203.123 426.571 203.275 427.11 203.21 427.646C203.145 428.182 202.867 428.669 202.439 429.003L161.355 460.94C160.927 461.272 160.382 461.424 159.841 461.359C159.301 461.295 158.808 461.02 158.471 460.596L156.921 458.641L157.01 458.572C156.032 456.086 158.067 450.836 161.254 446.837C161.315 446.761 161.381 446.678 161.445 446.596C161.915 446.001 163.207 444.342 164.59 442.353C165.032 441.711 165.497 441.008 165.976 440.256C165.905 440.249 165.864 440.245 165.861 440.245C165.689 440.231 165.562 440.083 165.576 439.913C165.59 439.743 165.741 439.617 165.912 439.631C165.935 439.633 166.092 439.646 166.347 439.673C166.564 439.327 166.784 438.97 167.007 438.6C167.53 437.7 168.076 436.704 168.615 435.685L168.554 435.679C168.444 435.67 168.346 435.603 168.299 435.504C168.251 435.404 168.261 435.287 168.324 435.196C168.388 435.106 168.495 435.056 168.606 435.065C168.625 435.066 168.741 435.076 168.925 435.095C169.601 433.8 170.256 432.494 170.833 431.319C169.984 431.905 168.19 432.992 166.803 432.791C166.282 432.726 165.815 432.442 165.52 432.011C165.238 431.706 165.178 431.258 165.372 430.891C165.885 430.036 168.187 430.013 169.614 430.088C168.814 429.406 167.729 428.304 167.737 427.354C167.744 426.943 167.96 426.563 168.311 426.345C168.625 426.111 169.038 426.053 169.406 426.191C170.504 426.608 171.253 428.758 171.563 429.82C171.875 429.171 172.148 428.598 172.36 428.147C172.522 427.798 172.682 427.457 172.841 427.121L172.879 427.04H172.88C173.716 425.143 174.766 423.346 176.01 421.683C184.949 422.371 187.2 412.984 187.2 412.984C187.2 412.984 191.477 412.117 193.411 414.336C195.346 416.554 201.599 424.649 201.599 424.649ZM166.032 431.66C166.228 431.95 166.543 432.14 166.893 432.181C168.084 432.354 169.768 431.305 170.529 430.776C168.685 430.591 166.559 430.669 166.008 431.097C165.968 431.126 165.934 431.163 165.909 431.205C165.848 431.305 165.89 431.458 166.032 431.66ZM168.36 427.359C168.367 427.15 168.482 426.958 168.665 426.853C168.808 426.733 169.008 426.7 169.183 426.767C169.974 427.067 170.751 429.113 171.081 430.412L171.05 430.41L170.787 430.223C170.109 429.743 168.352 428.291 168.36 427.359ZM88.7115 436.367C93.7402 443.717 102.556 439.609 102.556 439.609C102.556 439.609 105.906 442.379 105.36 445.261C104.814 448.141 102.319 458.029 102.319 458.029L101.877 459.882C101.616 460.975 100.51 461.651 99.4051 461.393L48.575 449.49C48.0449 449.366 47.5862 449.039 47.3 448.58C47.0138 448.121 46.9234 447.568 47.0488 447.043L47.6264 444.625L47.7357 444.65C49.0893 442.344 54.5042 440.647 59.6487 440.621C59.715 440.621 59.7848 440.621 59.8556 440.62H59.8566L59.9582 440.62C60.7208 440.613 62.8367 440.578 65.2701 440.409C66.0519 440.351 66.897 440.273 67.7895 440.176C67.7627 440.135 67.7435 440.106 67.7334 440.091L67.7258 440.079C67.6631 439.988 67.655 439.87 67.7041 439.771C67.7531 439.672 67.8517 439.606 67.963 439.599C68.0743 439.592 68.181 439.644 68.2427 439.736C68.2558 439.755 68.3428 439.885 68.4803 440.099C68.89 440.051 69.3087 439.999 69.7395 439.941C70.7762 439.785 71.9034 439.587 73.0443 439.369L73.0109 439.319C72.9482 439.227 72.9401 439.11 72.9892 439.011C73.0382 438.911 73.1368 438.846 73.2481 438.839C73.3594 438.831 73.4661 438.884 73.5278 438.976C73.5389 438.991 73.6031 439.087 73.7027 439.241C75.147 438.958 76.5868 438.651 77.8748 438.365C76.8826 438.073 74.9058 437.362 74.1998 436.162C73.9263 435.719 73.8595 435.18 74.0163 434.684C74.1988 434.077 74.5478 433.906 74.8082 433.87C75.8039 433.734 77.2558 435.503 78.0862 436.655C78.1266 435.609 78.3208 434.082 79.0763 433.497C79.4045 433.246 79.8389 433.176 80.2309 433.312C80.6111 433.409 80.9151 433.693 81.0349 434.064C81.3904 435.174 80.159 437.095 79.5138 437.996C80.2207 437.833 80.8433 437.687 81.3313 437.571C81.7085 437.478 82.0772 437.389 82.4408 437.303L82.5293 437.281L82.5298 437.282C84.5485 436.748 86.6224 436.441 88.7115 436.367ZM80.0498 433.902C79.8526 433.826 79.6296 433.857 79.4602 433.982C78.7188 434.556 78.6682 436.822 78.7112 437.646L78.7279 437.966L78.7456 437.992C79.5648 436.927 80.6971 435.05 80.4412 434.25C80.3846 434.072 80.2344 433.939 80.0498 433.902ZM74.7379 435.852C74.5518 435.555 74.5063 435.193 74.6125 434.86C74.6838 434.625 74.7789 434.497 74.8952 434.481C74.9442 434.476 74.9943 434.479 75.0428 434.491C75.724 434.651 77.1107 436.249 78.114 437.791C77.2219 437.532 75.3437 436.882 74.7379 435.852Z" fill="#4C3939"/>
<g style="mix-blend-mode:overlay" opacity="0.4">
<path d="M197.164 425.49C197.867 424.944 198.168 424.032 197.927 423.18C197.687 422.328 196.951 421.703 196.064 421.598C195.177 421.492 194.313 421.926 193.875 422.697C193.437 423.468 193.51 424.424 194.062 425.12C194.816 426.07 196.204 426.236 197.164 425.49Z" fill="#070713"/>
</g>
<g style="mix-blend-mode:overlay" opacity="0.4">
<path d="M202.787 426.147L201.237 424.192L194.796 429.199L192.401 426.179C191.239 424.709 191.497 422.584 192.979 421.429L196.776 418.478L196.391 417.993L192.595 420.944C190.842 422.309 190.537 424.822 191.912 426.56L194.306 429.579L156.921 458.641L158.471 460.596C158.808 461.02 159.301 461.295 159.841 461.359C160.382 461.424 160.927 461.272 161.355 460.94L202.439 429.003C202.868 428.669 203.145 428.182 203.21 427.646C203.276 427.11 203.123 426.571 202.787 426.147Z" fill="#070713"/>
</g>
<g style="mix-blend-mode:overlay" opacity="0.4">
<path d="M172.878 427.04C172.878 427.04 172.357 428.172 171.563 429.82C171.643 430.097 171.696 430.304 171.715 430.381C171.722 430.412 171.725 430.443 171.722 430.474C173.082 430.626 174.428 430.872 175.752 431.211C175.919 431.255 176.017 431.424 175.972 431.589C175.928 431.753 175.757 431.85 175.59 431.806C174.155 431.442 172.693 431.187 171.218 431.043C171.135 431.105 171.001 431.203 170.834 431.319C170.256 432.494 169.6 433.801 168.925 435.095C170.369 435.244 171.801 435.499 173.208 435.858C173.374 435.903 173.472 436.072 173.427 436.236C173.383 436.4 173.213 436.498 173.046 436.454C171.591 436.085 170.11 435.828 168.615 435.685C168.066 436.721 167.511 437.734 166.981 438.646C166.782 438.987 166.572 439.331 166.359 439.675C167.76 439.825 169.149 440.075 170.514 440.424C170.68 440.468 170.779 440.638 170.734 440.802C170.69 440.967 170.519 441.064 170.353 441.02C168.921 440.657 167.463 440.402 165.992 440.257C163.828 443.638 161.254 446.837 161.254 446.837C161.254 446.837 163.393 448.483 165.569 447.574C167.744 446.665 175.176 435.283 176.843 431.901C178.511 428.519 172.878 427.04 172.878 427.04Z" fill="#070713"/>
</g>
<g style="mix-blend-mode:overlay" opacity="0.4">
<path d="M98.8913 455.119C99.7606 455.322 100.668 454.988 101.191 454.27C101.714 453.552 101.749 452.594 101.279 451.841C100.809 451.088 99.9285 450.69 99.0466 450.831C98.1646 450.973 97.4551 451.626 97.2498 452.487C96.9692 453.663 97.7039 454.841 98.8913 455.119Z" fill="#070713"/>
</g>
<g style="mix-blend-mode:overlay" opacity="0.4">
<path d="M99.4896 449.348L104.187 450.447L104.33 449.847L99.6332 448.747C97.4622 448.242 95.2877 449.571 94.7719 451.719L93.8798 455.455L47.6264 444.625L47.0488 447.043C46.9234 447.568 47.0138 448.121 47.3 448.58C47.5862 449.039 48.0449 449.366 48.575 449.49L99.4051 461.393C100.51 461.651 101.616 460.974 101.877 459.882L102.455 457.463L94.4856 455.597L95.3782 451.861C95.8141 450.044 97.6539 448.92 99.4896 449.348Z" fill="#070713"/>
</g>
<g style="mix-blend-mode:overlay" opacity="0.4">
<path d="M82.5293 437.281C82.5293 437.281 81.31 437.583 79.5133 437.996C79.3449 438.231 79.2144 438.4 79.1648 438.463C79.1456 438.488 79.1224 438.51 79.0961 438.527C79.8238 439.674 80.469 440.87 81.0263 442.107C81.0946 442.262 81.0223 442.444 80.865 442.511C80.7072 442.579 80.5242 442.508 80.4554 442.352C79.848 441.014 79.1385 439.723 78.333 438.491C78.2313 438.466 78.0705 438.423 77.8753 438.365C76.5873 438.651 75.1465 438.958 73.7027 439.241C74.4861 440.453 75.1774 441.72 75.7705 443.033C75.8383 443.189 75.766 443.37 75.6087 443.438C75.4514 443.506 75.2684 443.435 75.1991 443.279C74.5832 441.923 73.8625 440.616 73.0443 439.369C71.8842 439.59 70.7383 439.792 69.6869 439.949C69.294 440.008 68.8915 440.06 68.4869 440.109C69.2419 441.288 69.91 442.519 70.4854 443.794C70.5542 443.95 70.4819 444.132 70.3241 444.2C70.1663 444.268 69.9828 444.197 69.914 444.04C69.3082 442.705 68.6007 441.418 67.7981 440.189C63.7798 440.62 59.6487 440.621 59.6487 440.621C59.6487 440.621 59.6821 443.304 61.756 444.422C63.8299 445.54 77.451 444.199 81.1619 443.382C84.8722 442.564 82.5293 437.281 82.5293 437.281Z" fill="#070713"/>
</g>
<path d="M149.772 340.268C146.311 334.485 143.247 328.803 140.768 323.957C141.509 320.645 142.296 317.791 143.106 316.2C159.35 284.316 164.443 272.72 171.281 254.658C174.395 246.437 178.366 217.836 178.148 211.09L91.4135 216.227C91.4135 216.227 92.5372 281.411 98.0316 321.443C98.3871 324.033 99.6923 327.444 101.863 331.207C97.5638 378.14 89.8377 426.601 89.8377 426.601C89.8377 426.601 95.9992 434.035 106.596 430.853C113.068 410.054 122.056 389.036 129.597 367.128C149.193 391.802 168.57 416.174 168.57 416.174C168.57 416.174 180.531 413.682 182.994 403.613C163.992 373.283 157.748 353.597 149.772 340.268Z" fill="#2D2B72"/>
<g style="mix-blend-mode:overlay" opacity="0.6">
<path d="M121.163 276.084C118.398 286.475 113.708 294.43 112.326 310.136C110.943 325.842 110.396 348.061 107.356 352.809C104.317 357.564 98.9732 359.192 98.9732 359.192C100.692 344.164 102.287 328.124 103.358 312.856C103.701 308.021 104.591 298.093 108.359 287.616C111.223 279.655 114.512 270.546 117.788 261.487C117.791 261.484 117.793 261.48 117.794 261.475C117.794 261.475 123.922 265.693 121.163 276.084Z" fill="white"/>
</g>
<path d="M134.136 310.136C134.167 310.216 134.404 310.753 134.821 311.671C134.517 311.196 134.286 310.679 134.136 310.136Z" fill="#201F20"/>
<g style="mix-blend-mode:overlay" opacity="0.6">
<path d="M140.768 323.958C139.214 330.898 137.859 339.852 136.902 343.452C134.769 351.477 132.272 359.357 129.597 367.128C131.603 369.654 133.607 372.177 135.587 374.67C139.585 368.843 147.607 356.367 151.948 344.114C151.226 342.776 150.509 341.494 149.774 340.266C146.311 334.485 143.247 328.804 140.768 323.958Z" fill="#070713"/>
</g>
<g style="mix-blend-mode:overlay" opacity="0.6">
<path d="M101.863 331.209C102.429 325.027 102.936 318.872 103.358 312.858C103.698 308.021 104.594 298.092 108.362 287.617C112.974 274.795 118.677 259.013 123.668 245.224L123.667 245.219C123.667 245.219 109.599 252.373 107.114 276.361C106.173 285.451 99.1417 288.177 95.2371 295.176C96.0154 304.457 96.9373 313.454 98.0332 321.446C98.3866 324.033 99.6919 327.445 101.863 331.209Z" fill="#070713"/>
</g>
<g style="mix-blend-mode:overlay" opacity="0.6">
<path d="M158.694 403.77C165.475 401.183 171.236 396.505 175.126 390.428L176.566 393.034C176.566 393.034 170.953 402.051 160.408 405.798L158.694 403.77Z" fill="white"/>
</g>
<g style="mix-blend-mode:overlay" opacity="0.6">
<path d="M92.5382 237.04C92.4001 237.04 92.2788 236.95 92.2393 236.82C92.1999 236.689 92.2514 236.548 92.3667 236.473C99.2817 231.981 102.161 221.271 102.189 221.163C102.217 221.056 102.3 220.972 102.407 220.944C102.515 220.914 102.63 220.944 102.709 221.021C102.788 221.098 102.82 221.212 102.792 221.318C102.674 221.767 99.8264 232.365 92.7086 236.989C92.658 237.022 92.5984 237.04 92.5382 237.04Z" fill="#070713"/>
</g>
<g style="mix-blend-mode:overlay" opacity="0.6">
<path d="M173.602 244.282C173.589 244.282 173.575 244.281 173.561 244.28C169.399 243.737 164.741 239.866 159.72 232.773C157.38 229.436 155.279 225.94 153.434 222.312C153.385 222.213 153.394 222.096 153.456 222.004C153.518 221.913 153.625 221.862 153.736 221.869C153.847 221.877 153.945 221.943 153.994 222.042C154.094 222.246 164.1 242.425 173.643 243.668C173.806 243.689 173.924 243.831 173.913 243.994C173.902 244.156 173.766 244.282 173.602 244.282Z" fill="#070713"/>
</g>
<g style="mix-blend-mode:overlay" opacity="0.6">
<path d="M91.414 216.227L91.6168 224.927C126.168 238.692 176.519 228.466 176.519 228.466L177.677 218.882L91.414 216.227Z" fill="#070713"/>
</g>
<g style="mix-blend-mode:overlay" opacity="0.6">
<path d="M92.4699 409.083C98.7244 412.372 105.901 413.523 112.885 412.357L111.88 415.154C111.88 415.154 101.604 416.999 92.0679 411.698L92.4699 409.083Z" fill="white"/>
</g>
<path fill-rule="evenodd" clip-rule="evenodd" d="M199.641 130.729C202.789 137.872 206.451 146.188 210.868 155.904C214.009 162.816 213.05 177.18 195.379 178.131C187.646 178.546 181.36 177.982 172.869 177.202C172.703 183.104 173.054 189.426 175.721 199.566C177.426 206.475 178.344 213.555 178.46 220.671C178.46 220.671 106.011 232.868 91.2011 220.671C88.1284 218.14 89.6349 212.074 91.0044 206.561C91.6805 203.839 92.3227 201.253 92.3652 199.292C92.4841 193.774 92.7399 188.527 92.9817 183.56C93.2896 177.243 93.5749 171.379 93.5299 165.989C93.4848 160.665 92.6464 150.807 91.7397 140.143C90.1143 121.027 88.2685 99.3213 90.3788 96.5064C93.6664 92.1207 114.351 83.2127 114.351 83.2127L125.76 91.1043L146.954 81.568C146.954 81.568 163.803 85.1316 169.282 87.05C169.921 87.2731 170.533 87.566 171.107 87.9242C177.66 90.0733 181.821 94.2334 186.307 102.247C190 108.843 193.987 117.895 199.641 130.729ZM173.866 153.556L175.654 153.641L180.504 153.87C178.996 150.771 178.194 149.145 174.324 141.685C174.166 145.815 174.011 149.844 173.866 153.556Z" fill="#34AD82"/>
<path d="M91.2011 220.671C88.1284 218.14 89.6349 212.075 91.0044 206.561C91.6805 203.839 92.3227 201.253 92.3652 199.292C92.4841 193.774 92.7399 188.527 92.9817 183.56C93.2896 177.243 93.5749 171.379 93.5299 165.989C93.4848 160.665 92.6464 150.807 91.7397 140.144" stroke="#070713"/>
<path d="M91.2511 135.568C91.0984 135.567 90.969 135.455 90.9462 135.304C88.8865 121.618 89.864 111.718 89.8736 111.619C89.8928 111.45 90.0435 111.327 90.2129 111.343C90.3823 111.361 90.5057 111.512 90.4885 111.682C90.4784 111.78 89.51 121.609 91.5571 135.212C91.5692 135.294 91.549 135.376 91.4999 135.442C91.4514 135.508 91.3786 135.552 91.2977 135.564C91.2825 135.567 91.2668 135.568 91.2511 135.568Z" fill="#0B122D"/>
<path d="M99.5568 209.468C99.5027 209.468 99.4496 209.454 99.4026 209.427C94.0118 206.315 92.1442 199.655 92.0673 199.373C92.0223 199.208 92.1194 199.039 92.2838 198.994C92.4481 198.949 92.6181 199.046 92.6636 199.21C92.6813 199.277 94.5448 205.909 99.7116 208.891C99.8329 208.962 99.8916 209.104 99.8557 209.239C99.8193 209.374 99.6969 209.468 99.5568 209.468Z" fill="#0B122D"/>
<g style="mix-blend-mode:overlay" opacity="0.6">
<path d="M173.423 139.948C173.2 139.522 172.978 139.089 172.749 138.656C172.053 137.33 171.339 135.966 170.605 134.58L162.227 121.012C162.227 121.012 160.509 136.947 162.531 153.019L173.74 153.55C174.108 148.301 174.497 144.187 174.678 142.365C174.293 141.623 173.877 140.821 173.423 139.948Z" fill="#070713"/>
</g>
<g style="mix-blend-mode:overlay" opacity="0.6">
<path d="M172.902 177.205C172.815 177.197 172.732 177.189 172.644 177.182C171.465 177.072 168.91 176.718 165.964 176.274C166.116 192.323 159.186 203.64 152.296 210.941C144.884 218.794 129.557 220.671 118.552 226.092C139.625 227.249 178.46 220.671 178.46 220.671C178.46 220.671 178.46 207.639 174.749 195.594C173.476 191.164 172.978 184.434 172.902 177.205Z" fill="#070713"/>
</g>
<g style="mix-blend-mode:overlay" opacity="0.6">
<path d="M133.689 92.9727L157.038 83.8264L146.953 81.5685L133.689 92.9727Z" fill="#070713"/>
</g>
<path d="M144.364 96.3203H20.4301V112.664H25.4302V182.521H139.364V112.664H144.364V96.3203Z" fill="#FFB66D"/>
<g style="mix-blend-mode:overlay" opacity="0.25">
<path d="M144.364 96.3197H101.854V112.664H144.364V96.3197Z" fill="#070713"/>
</g>
<g style="mix-blend-mode:overlay" opacity="0.6">
<path d="M139.364 112.664H25.4299V117.638H139.364V112.664Z" fill="#070713"/>
</g>
<g style="mix-blend-mode:overlay" opacity="0.6">
<path d="M139.364 112.664H101.854V182.521H139.364V112.664Z" fill="#070713"/>
</g>
<path d="M187.865 160.084C187.714 160.084 187.586 159.974 187.561 159.825C187.527 159.622 186.668 154.854 181.022 154.692C180.94 154.689 180.862 154.655 180.806 154.595C180.75 154.535 180.719 154.456 180.721 154.374C180.732 154.206 180.871 154.075 181.039 154.074C187.205 154.251 188.162 159.67 188.171 159.725C188.198 159.893 188.084 160.052 187.916 160.08C187.899 160.082 187.882 160.084 187.865 160.084Z" fill="#0B122D"/>
<path d="M172.518 177.489C169.503 177.489 164.563 176.77 155.102 174.811C154.994 174.79 154.906 174.711 154.871 174.606C154.836 174.501 154.86 174.386 154.933 174.303C155.007 174.22 155.119 174.184 155.227 174.207C164.782 176.184 169.719 176.89 172.64 176.87C172.723 176.866 172.804 176.897 172.863 176.955C172.922 177.014 172.955 177.093 172.952 177.176C172.954 177.347 172.817 177.487 172.646 177.489C172.604 177.489 172.562 177.489 172.518 177.489Z" fill="#0B122D"/>
<g style="mix-blend-mode:overlay" opacity="0.6">
<path d="M177.606 135.12C173.696 127.813 170.619 128.325 167.709 129.158C168.537 130.715 178.885 150.544 180.504 153.87L175.654 153.641L155.878 152.704C155.942 152.928 155.969 153.162 155.959 153.396L155.79 156.421C157.009 157.131 158.342 157.625 159.729 157.882C165.634 159.198 175.947 159.249 179.509 159.137C183.445 159.019 186.73 158.137 186.749 155.366C186.777 151.406 180.379 140.305 177.606 135.12Z" fill="white"/>
</g>
<g style="mix-blend-mode:overlay" opacity="0.6">
<path d="M154.851 173.208L155.959 153.396C156.026 152.206 151.168 163.755 153.25 169.319C154.597 172.922 151.408 173.685 149.677 173.259C147.249 172.662 144.71 168.623 144.71 168.623C144.683 168.622 144.587 171.553 144.56 171.551L144.548 171.769C144.48 172.986 146.792 174.916 148.008 174.984L152.525 175.288C153.11 175.321 153.683 175.12 154.119 174.729C154.555 174.339 154.819 173.792 154.851 173.208Z" fill="#070713"/>
</g>
<path d="M175.654 153.95L175.639 153.949L155.874 153.012C155.709 153.005 155.58 152.869 155.579 152.704C155.577 152.077 155.094 151.556 154.469 151.508L149.332 151.124C149.161 151.111 149.034 150.962 149.046 150.792C149.051 150.709 149.088 150.632 149.151 150.578C149.213 150.524 149.295 150.498 149.377 150.506L154.515 150.89C155.35 150.957 156.033 151.582 156.173 152.408L175.668 153.332C175.835 153.341 175.966 153.481 175.962 153.648C175.958 153.816 175.821 153.95 175.654 153.95Z" fill="#0B122D"/>
<path d="M165.767 125.148C165.704 125.148 165.643 125.129 165.591 125.093C156.756 118.955 156.728 105.596 156.729 105.462C156.723 105.379 156.754 105.297 156.814 105.237C156.874 105.179 156.956 105.148 157.04 105.155C157.21 105.156 157.348 105.295 157.347 105.466C157.346 105.597 157.378 118.635 165.944 124.585C166.054 124.662 166.102 124.802 166.062 124.931C166.022 125.06 165.902 125.148 165.767 125.148Z" fill="#0B122D"/>
<path fill-rule="evenodd" clip-rule="evenodd" d="M128.746 84.9363C140.547 77.5425 144.137 71.0157 144.137 71.0157L146.953 81.568L133.689 92.9726C133.136 91.5136 132.459 90.1041 131.667 88.7594L125.76 91.1043L128.746 84.9363ZM125.76 91.1043L124.426 84.6358C119.154 82.2342 118.872 77.8678 118.872 77.8678L114.351 83.2127L118.915 93.2079L122.313 88.72L125.76 91.1043Z" fill="#2D2B72"/>
<g style="mix-blend-mode:overlay" opacity="0.6">
<path d="M128.746 84.9363L125.76 91.1043L131.667 88.7589C130.902 87.3378 129.916 86.0478 128.746 84.9363Z" fill="#070713"/>
</g>
<g style="mix-blend-mode:overlay" opacity="0.6">
<path d="M124.427 84.6359L125.761 91.1044L122.313 88.7201L124.427 84.6359Z" fill="#070713"/>
</g>
<path fill-rule="evenodd" clip-rule="evenodd" d="M124.982 87.3273L127.695 87.1067L125.761 91.1039L124.982 87.3273ZM28.2777 157.13C27.8418 157.775 27.0898 158.13 26.3155 158.058L23.7002 157.756C22.879 157.661 22.2324 157.01 22.1416 156.188L22.0772 155.607C22.0197 155.087 22.1949 154.567 22.5558 154.188C22.9167 153.809 23.4265 153.609 23.9488 153.642L26.5756 153.804C27.3528 153.826 28.0559 154.271 28.4102 154.964C28.7644 155.656 28.7137 156.486 28.2777 157.13ZM28.5388 147.844L25.2354 147.137C24.7594 147.004 24.2491 147.083 23.8358 147.354C23.4225 147.625 23.1466 148.061 23.0792 148.552L23.0137 149.092C22.923 149.858 23.3865 150.582 24.1203 150.819L27.3829 151.651C27.9711 151.836 28.611 151.747 29.1262 151.408C29.6414 151.07 29.9774 150.518 30.0416 149.904C30.1215 148.939 29.4816 148.062 28.5388 147.844ZM26.5306 159.403C27.5454 159.298 28.4953 159.917 28.808 160.889C29.0234 161.559 28.8992 162.292 28.475 162.853C28.0508 163.415 27.3799 163.734 26.677 163.709L24.6232 163.689C23.8975 163.683 23.2727 163.175 23.1169 162.466L22.8991 161.475C22.8025 161.035 22.9003 160.576 23.1673 160.214C23.4343 159.853 23.8444 159.624 24.2922 159.587L26.5306 159.403ZM27.6604 165.77L25.7709 165.992C25.3744 166.039 25.0219 166.267 24.8158 166.609C24.6098 166.951 24.5735 167.369 24.7175 167.741L25.0967 168.722C25.3006 169.25 25.8236 169.583 26.3876 169.545L28.3253 169.415C28.9889 169.31 29.5434 168.853 29.7743 168.222C30.0052 167.591 29.8763 166.883 29.4374 166.374C28.9985 165.865 28.3185 165.634 27.6604 165.77ZM119.25 151.098L122.133 151.385L145.668 153.239C145.556 153.479 145.487 153.737 145.464 154.001L144.69 169.011L122.373 165.308L122.357 165.349L118.134 164.605L118.13 164.604L114.357 163.939C114.357 163.939 97.5517 164.703 94.5246 163.024C91.4974 161.344 93.3862 159.728 93.3862 159.728C93.3862 159.728 88.5133 158.142 90.5973 155.414C90.5973 155.414 86.2922 154.466 87.7163 150.935C87.7163 150.935 82.4747 150.653 83.1665 148.024C83.8583 145.395 103.023 146.639 103.023 146.639C103.023 146.639 93.9799 137.481 97.2144 134.727C100.797 138.216 104.942 141.077 109.473 143.191C116.991 146.693 119.25 151.098 119.25 151.098Z" fill="#FFB7B6"/>
<path d="M94.0957 150.766C94.0957 150.684 94.0634 150.606 94.0052 150.547C93.9475 150.489 93.8687 150.457 93.7867 150.457H88.4126C88.2422 150.457 88.1036 150.596 88.1036 150.766C88.1036 150.937 88.2422 151.075 88.4126 151.075H93.7867C93.8687 151.075 93.9475 151.043 94.0052 150.985C94.0634 150.927 94.0957 150.848 94.0957 150.766Z" fill="#070713"/>
<path d="M98.6298 155.366C98.6298 155.284 98.5975 155.206 98.5393 155.148C98.4817 155.089 98.4028 155.057 98.3209 155.057H91.2688C91.0984 155.057 90.9598 155.196 90.9598 155.366C90.9598 155.537 91.0984 155.675 91.2688 155.675H98.3209C98.4028 155.675 98.4817 155.643 98.5393 155.585C98.5975 155.527 98.6298 155.448 98.6298 155.366Z" fill="#070713"/>
<path d="M98.9419 159.346H94.2029C94.032 159.346 93.894 159.485 93.894 159.655C93.894 159.826 94.032 159.964 94.2029 159.964H98.9419C99.1123 159.964 99.2509 159.826 99.2509 159.655C99.2509 159.485 99.1123 159.346 98.9419 159.346Z" fill="#070713"/>
<path d="M69.7871 78.4156C72.58 78.4156 74.8441 76.1506 74.8441 73.3566C74.8441 70.5625 72.58 68.2975 69.7871 68.2975C66.9942 68.2975 64.73 70.5625 64.73 73.3566C64.73 76.1506 66.9942 78.4156 69.7871 78.4156Z" fill="#FFB66D"/>
<path d="M11.884 282.802C18.4474 282.802 23.7681 277.48 23.7681 270.913C23.7681 264.347 18.4474 259.025 11.884 259.025C5.32066 259.025 0 264.347 0 270.913C0 277.48 5.32066 282.802 11.884 282.802Z" fill="white"/>
<path d="M198.236 317.204C201.867 317.204 204.81 314.26 204.81 310.627C204.81 306.995 201.867 304.051 198.236 304.051C194.605 304.051 191.662 306.995 191.662 310.627C191.662 314.26 194.605 317.204 198.236 317.204Z" fill="white"/>
<path d="M181.8 259.531C184.454 259.531 186.605 257.379 186.605 254.724C186.605 252.07 184.454 249.918 181.8 249.918C179.147 249.918 176.996 252.07 176.996 254.724C176.996 257.379 179.147 259.531 181.8 259.531Z" fill="white"/>
<path d="M231.359 289.885C239.598 289.885 246.278 283.203 246.278 274.961C246.278 266.718 239.598 260.036 231.359 260.036C223.12 260.036 216.441 266.718 216.441 274.961C216.441 283.203 223.12 289.885 231.359 289.885Z" fill="#FFB66D"/>
<path d="M212.901 96.6283C218.208 96.6283 222.51 92.3248 222.51 87.0161C222.51 81.7074 218.208 77.4038 212.901 77.4038C207.595 77.4038 203.293 81.7074 203.293 87.0161C203.293 92.3248 207.595 96.6283 212.901 96.6283Z" fill="#08AC85"/>
<path d="M177.755 77.4039C179.291 77.4039 180.536 76.1581 180.536 74.6214C180.536 73.0846 179.291 71.8389 177.755 71.8389C176.219 71.8389 174.973 73.0846 174.973 74.6214C174.973 76.1581 176.219 77.4039 177.755 77.4039Z" fill="#FFB66D"/>
<path d="M30.8479 239.8C34.758 239.8 37.9278 236.742 37.9278 232.97C37.9278 229.199 34.758 226.141 30.8479 226.141C26.9378 226.141 23.7681 229.199 23.7681 232.97C23.7681 236.742 26.9378 239.8 30.8479 239.8Z" fill="#FFB66D"/>
</g>
<defs>
<clipPath id="clip0_21_1054">
<rect width="266" height="471" fill="white"/>
</clipPath>
</defs>
</svg>
