<svg width="354" height="496" viewBox="0 0 354 496" fill="none" xmlns="http://www.w3.org/2000/svg">
<path d="M252.573 168.549C253.322 158.061 241.489 160.578 239.469 161.095C237.448 161.611 233.923 146.171 233.923 146.171C233.923 146.171 210.384 142.514 205.451 146.785C205.451 146.785 202.729 166.403 202.495 178.934C202.263 191.465 205.904 196.996 210.508 197.323C211.971 197.346 213.425 197.114 214.807 196.638L213.168 219.62L242.048 207.183L240.556 179.79C240.703 179.718 240.787 179.68 240.787 179.68C240.787 179.68 251.866 178.454 252.573 168.549Z" fill="#FFB7B6"/>
<path d="M203.479 163.819C203.479 163.819 205.534 153.121 205.911 150.145C206.453 145.865 210.524 145.249 212.664 148.43C215.732 153.148 221.339 155.558 226.878 154.542C231.728 153.771 233.828 152.639 233.923 157.481C234.017 162.322 235.088 170.428 236.771 168.4C238.454 166.372 240.503 161.796 243.575 161.466C248.27 160.962 250.743 166.694 249.413 169.914C248.085 173.134 246.391 175.079 240.447 177.79L241.224 192.041C256.742 174.271 263.924 148.86 245.12 141.518C238.095 138.776 231.664 123.785 217.527 126.083C207.512 127.713 206.974 135.252 205.805 141.756C192.533 141.36 203.479 163.819 203.479 163.819Z" fill="#352316"/>
<path d="M218.331 164.877C219.011 164.926 219.626 164.06 219.706 162.944C219.786 161.828 219.299 160.884 218.62 160.835C217.94 160.787 217.325 161.652 217.245 162.769C217.166 163.885 217.652 164.829 218.331 164.877Z" fill="#161B36"/>
<path d="M206.098 164.85C206.777 164.898 207.393 164.032 207.473 162.916C207.552 161.8 207.066 160.856 206.386 160.807C205.707 160.759 205.091 161.625 205.012 162.741C204.932 163.857 205.418 164.801 206.098 164.85Z" fill="#161B36"/>
<path d="M216.51 154.59C216.982 154.13 217.611 153.791 219.408 154.028C221.205 154.266 223.818 156.154 223.186 156.548C222.553 156.943 220.854 155.339 219.397 155.729C217.94 156.12 217.095 156.466 216.636 156.165C216.058 155.785 216.283 154.811 216.51 154.59Z" fill="#161B36"/>
<path d="M208.726 153.532C208.176 153.167 207.495 152.949 205.774 153.516C204.052 154.083 201.835 156.421 202.529 156.692C203.224 156.962 204.597 155.072 206.101 155.186C207.605 155.299 208.499 155.483 208.894 155.102C209.391 154.622 208.99 153.708 208.726 153.532Z" fill="#161B36"/>
<g style="mix-blend-mode:overlay" opacity="0.6">
<path d="M209.809 175.941C209.173 175.919 208.554 175.728 208.016 175.388C207.664 175.157 207.434 174.781 207.389 174.362C207.315 173.496 208.285 172.232 209.466 170.791C209.765 170.448 210.041 170.088 210.296 169.71C210.546 169.259 210.787 165 210.876 161.143L211.535 161.158C211.505 162.496 211.329 169.209 210.871 170.031C210.601 170.444 210.302 170.838 209.976 171.208C209.233 172.116 207.988 173.635 208.046 174.304C208.074 174.531 208.204 174.733 208.4 174.852C209.316 175.325 210.377 175.434 211.369 175.157L211.525 175.797C210.964 175.933 210.385 175.981 209.809 175.941Z" fill="#030F1C"/>
</g>
<path d="M208.567 182.136C208.525 181.938 208.564 181.732 208.675 181.562C208.786 181.393 208.96 181.276 209.159 181.235C210.147 181.024 211.968 180.625 213.36 180.259C214.817 179.8 216.24 179.243 217.623 178.594C217.864 178.485 218.144 178.507 218.364 178.653C218.585 178.799 218.714 179.048 218.707 179.312C218.655 181.341 218.129 185.273 214.888 185.851C210.947 186.555 209.069 184.319 208.567 182.136Z" fill="#161B36"/>
<path d="M210.07 184.777C210.07 184.777 213.733 180.365 218.417 181.767C218.417 181.767 218.165 185.398 215.038 185.997C211.672 186.643 210.07 184.777 210.07 184.777Z" fill="#E55151"/>
<path d="M245.476 165.79C242.398 164.501 238.98 171.149 238.835 171.432C238.753 171.594 238.819 171.793 238.981 171.874C239.143 171.957 239.341 171.892 239.424 171.73C240.019 170.583 240.722 169.496 241.527 168.484C242.2 168.416 242.876 168.59 243.432 168.974C243.978 169.444 244.299 170.122 244.316 170.842C244.332 171.002 244.46 171.128 244.621 171.139C244.639 171.141 244.657 171.14 244.675 171.138C244.762 171.131 244.842 171.088 244.898 171.021C244.954 170.954 244.981 170.868 244.973 170.78C244.972 169.181 243.698 167.874 242.099 167.828C243.118 166.737 244.245 165.988 245.22 166.398C245.329 166.444 245.453 166.428 245.547 166.356C245.641 166.285 245.689 166.17 245.675 166.053C245.66 165.936 245.584 165.836 245.476 165.79Z" fill="#0B122D"/>
<path d="M214.784 196.968C214.629 196.957 214.503 196.839 214.481 196.685C214.46 196.531 214.549 196.383 214.695 196.33C214.807 196.29 225.959 192.23 230.937 186.717C231.06 186.582 231.267 186.572 231.402 186.693C231.537 186.814 231.549 187.022 231.427 187.158C226.337 192.793 215.383 196.783 214.919 196.949C214.876 196.965 214.83 196.972 214.784 196.968Z" fill="#0B122D"/>
<path d="M233.503 151.726C233.43 151.721 233.361 151.691 233.307 151.643C228.618 147.439 230.998 140.107 231.101 139.797C231.159 139.625 231.346 139.533 231.518 139.59C231.69 139.648 231.783 139.833 231.727 140.005C231.703 140.078 229.383 147.239 233.747 151.152C233.851 151.246 233.885 151.396 233.83 151.527C233.775 151.656 233.644 151.736 233.503 151.726Z" fill="#F9FAFA"/>
<g style="mix-blend-mode:overlay" opacity="0.6">
<path d="M214.819 196.791C214.819 196.791 224.612 193.061 227.902 190.075C227.902 190.075 226.579 198.664 219.885 204.292C213.193 209.918 214.229 205.059 214.229 205.059L214.819 196.791Z" fill="#030F1C"/>
</g>
<path d="M79.9984 476.07L76.7193 482.819H76.8171C77.8129 482.819 78.6197 483.624 78.6197 484.618C78.6197 485.613 77.8129 486.419 76.8171 486.419H53.3394C52.3445 486.419 51.5377 485.613 51.5377 484.618C51.5377 483.624 52.3445 482.819 53.3394 482.819H53.4382L50.159 476.07C44.74 464.787 44.8714 451.631 50.513 440.458H79.664C85.3 451.634 85.423 464.79 79.9984 476.07Z" fill="#FFB66D"/>
<path fill-rule="evenodd" clip-rule="evenodd" d="M32.432 402.21C32.5093 400.519 34.4954 400.667 36.4592 400.814C38.2441 400.947 40.0104 401.079 40.3103 399.828C40.52 398.959 39.0099 397.587 37.5538 396.265C36.1285 394.97 34.7553 393.722 35.101 393.041C40.0942 383.203 49.2917 381.235 58.0765 389.745H58.3429C61.4348 389.787 64.5007 390.325 67.4221 391.339C69.9103 390.558 72.5234 390.254 75.1234 390.443L75.3209 390.286C76.6894 389.135 84.824 382.603 90.093 385.623C93.0917 387.304 95.6033 389.735 97.3807 392.677C97.744 393.282 96.5274 394.034 95.0546 394.947C92.9334 396.26 90.2812 397.904 91.0479 399.907C91.9086 402.181 95.0397 402.014 97.4515 401.886C99.0678 401.799 100.362 401.73 100.434 402.425C100.73 405.572 100.647 408.743 100.188 411.87C100.076 412.68 98.548 412.891 97.0118 413.102C95.5474 413.303 94.0746 413.506 93.8156 414.231C93.4607 415.213 94.9568 416.623 96.3234 417.913C97.4637 418.989 98.5135 419.98 98.3263 420.566C97.0966 424.773 95.5567 428.884 93.7168 432.863C93.3032 433.753 92.5486 434.441 91.6226 434.77C90.6967 435.099 89.6766 435.043 88.7925 434.614C85.5385 433.048 82.3693 431.311 79.2997 429.41C79.0324 429.243 79.2792 428.289 79.5913 427.086C80.1428 424.958 80.8974 422.047 79.3687 421.324C78.9821 421.143 78.0579 422.546 77.1366 423.945C76.2013 425.365 75.2688 426.781 74.9073 426.528L73.8435 425.77V440.457H56.2944V420.202C55.7093 420.953 55.8854 422.74 56.0485 424.388C56.2003 425.933 56.341 427.355 55.8314 427.689C52.1507 430.07 48.2959 432.171 44.2994 433.975C43.4135 434.383 42.3999 434.41 41.4925 434.053C40.5721 433.7 39.8343 432.99 39.444 432.086C38.0252 428.772 36.7797 425.387 35.7112 421.943C35.6189 421.646 36.4285 421.089 37.4513 420.386C39.2642 419.139 41.7487 417.431 41.0686 415.884C40.8982 415.495 39.2931 415.941 37.6861 416.389C36.0409 416.847 34.393 417.305 34.284 416.867C32.9863 412.091 32.363 407.157 32.432 402.21ZM65.0689 410.945C65.585 411.487 66.1421 411.99 66.7327 412.45C67.8851 411.554 68.8111 410.659 68.3183 409.695C67.9838 409.066 66.6153 408.909 65.0689 408.849V410.945ZM56.314 420.202C56.3885 420.106 56.4826 420.026 56.5897 419.966V419.956C56.4816 420.018 56.3876 420.102 56.314 420.202Z" fill="#85CEB4"/>
<path d="M65.1574 440.457V420.291L65.0885 420.359V440.457H65.1574Z" fill="#FFB66D"/>
<path d="M57.9293 420.123C58.0374 420.123 58.1361 420.222 58.2442 420.271C58.1361 420.222 58.0374 420.162 57.9293 420.123Z" fill="#FFB66D"/>
<path d="M69.5498 422.366L69.4809 422.307V440.457H69.5498V422.366Z" fill="#FFB66D"/>
<path d="M60.7259 440.457V421.815H60.6569V440.457H60.7259Z" fill="#FFB66D"/>
<g style="mix-blend-mode:overlay" opacity="0.6">
<path d="M46.387 454.712H83.8095C83.938 456.011 84.007 457.319 84.007 458.647H46.1998C46.1923 457.333 46.2548 456.019 46.387 454.712Z" fill="#030F1C"/>
</g>
<g style="mix-blend-mode:overlay" opacity="0.6">
<path d="M83.5244 464.628H46.6525C46.456 463.339 46.3181 462.031 46.2492 460.694H83.8691C83.8691 462.031 83.721 463.339 83.5244 464.628Z" fill="#030F1C"/>
</g>
<g style="mix-blend-mode:overlay" opacity="0.6">
<path d="M69.5498 440.457V422.366C70.9379 423.547 72.4061 424.688 73.8929 425.77V440.457H69.5498Z" fill="#030F1C"/>
</g>
<g style="mix-blend-mode:overlay" opacity="0.6">
<path d="M60.7259 440.388V421.815C61.7106 422.376 62.4987 422.74 62.9617 422.337C63.6902 421.707 64.3889 421.038 65.0689 420.369V440.388H60.7259Z" fill="#030F1C"/>
</g>
<g style="mix-blend-mode:overlay" opacity="0.43">
<path d="M93.7168 432.863C95.5427 428.883 97.0705 424.772 98.2862 420.566C98.6607 419.277 93.1262 416.03 93.7765 414.231C94.3075 412.745 99.9314 413.454 100.148 411.87C100.608 408.743 100.691 405.572 100.394 402.425C100.216 400.694 92.4462 403.704 90.9789 399.888C89.6794 396.494 98.1977 394.132 97.3118 392.657C95.5344 389.715 93.0228 387.285 90.024 385.603C84.8538 382.583 76.6894 389.115 75.3209 390.286C77.4477 394.949 80.1661 401.108 83.0512 408.279C86.5362 416.897 89.4185 425.746 91.6785 434.761C92.5831 434.424 93.3172 433.741 93.7168 432.863Z" fill="#030F1C"/>
</g>
<g style="mix-blend-mode:overlay" opacity="0.43">
<path d="M44.3189 433.975C48.3154 432.165 52.1712 430.057 55.851 427.668C56.9735 426.931 54.925 420.861 56.5897 419.927C57.9684 419.159 61.76 423.379 62.9617 422.317C65.3549 420.253 67.4966 417.916 69.343 415.352C70.3277 413.925 62.4493 411.102 63.897 407.265C65.1574 403.871 73.1243 407.669 73.4298 406.026C74.0121 402.638 73.7075 399.158 72.5439 395.922C70.5736 390.217 60.1446 389.823 58.3522 389.793C56.885 394.713 54.8756 401.186 52.3743 408.485C49.3476 417.247 45.7219 425.789 41.5223 434.053C42.426 434.407 43.4358 434.379 44.3189 433.975Z" fill="#030F1C"/>
</g>
<path fill-rule="evenodd" clip-rule="evenodd" d="M326.67 430.767L328.662 445.576L309.844 448.103L307.753 432.571L326.67 430.767ZM120.052 467.414H105.093V448.446H120.783L120.052 467.414Z" fill="#FFB7B6"/>
<path fill-rule="evenodd" clip-rule="evenodd" d="M324.837 446.089C330.272 438.314 322.83 431.176 322.83 431.176C322.83 431.176 324.328 426.808 327.411 426.247C330.495 425.685 341.314 424.37 341.314 424.37L343.331 424.099C343.903 424.023 344.482 424.176 344.94 424.526C345.399 424.874 345.7 425.392 345.777 425.963L353.146 480.717C353.222 481.288 353.069 481.866 352.719 482.325C352.369 482.783 351.851 483.083 351.28 483.16L348.646 483.514L348.63 483.396C345.814 482.94 342.068 478.241 340.094 473.169C340.072 473.111 340.049 473.052 340.025 472.991L339.975 472.864C339.679 472.114 338.843 470.037 337.754 467.698C337.399 466.948 337 466.143 336.565 465.299C336.542 465.331 336.524 465.356 336.512 465.372L336.495 465.396L336.493 465.399C336.426 465.495 336.311 465.548 336.194 465.538C336.076 465.528 335.973 465.454 335.924 465.347C335.874 465.24 335.886 465.115 335.955 465.019C335.969 464.998 336.065 464.863 336.227 464.646C336.025 464.26 335.813 463.866 335.593 463.462C335.044 462.498 334.419 461.46 333.769 460.417L333.732 460.469C333.664 460.566 333.55 460.619 333.432 460.609C333.314 460.599 333.211 460.526 333.162 460.418C333.112 460.311 333.124 460.185 333.193 460.09C333.205 460.073 333.276 459.972 333.393 459.815C332.562 458.497 331.711 457.193 330.937 456.029C331.021 457.121 331.06 459.345 330.13 460.501C329.79 460.94 329.277 461.213 328.722 461.247C328.289 461.339 327.844 461.151 327.61 460.775C327.097 459.844 328.313 457.734 329.149 456.474C328.09 456.833 326.491 457.225 325.621 456.703C325.245 456.474 325.011 456.072 324.999 455.633C324.952 455.22 325.12 454.811 325.445 454.552C326.419 453.776 328.803 454.259 329.947 454.552C329.518 453.915 329.136 453.357 328.835 452.918C328.6 452.583 328.371 452.251 328.147 451.925L328.092 451.846L328.093 451.846C326.794 450.055 325.702 448.124 324.837 446.089ZM325.657 455.586C325.656 455.81 325.771 456.018 325.96 456.138C326.814 456.651 329.096 455.835 329.902 455.478L330.216 455.339L330.235 455.312C328.861 454.909 326.557 454.509 325.856 455.067C325.7 455.191 325.623 455.39 325.657 455.586ZM328.673 460.59C328.411 460.611 328.248 460.565 328.188 460.456C328.163 460.41 328.147 460.359 328.141 460.307C328.043 459.573 329.113 457.593 330.274 456.012C330.353 456.993 330.414 459.097 329.616 460.089C329.39 460.385 329.045 460.569 328.673 460.59ZM105.094 463.559C112.084 469.974 120.158 463.559 120.158 463.559C120.158 463.559 124.291 465.623 124.438 468.75C124.584 471.878 124.447 482.764 124.447 482.764V484.797C124.447 485.374 124.218 485.927 123.81 486.334C123.402 486.741 122.849 486.97 122.272 486.97H66.9666C66.389 486.97 65.8356 486.741 65.4285 486.334C65.0205 485.927 64.7913 485.374 64.7913 484.797V482.143H64.9096C65.7368 479.416 70.8987 476.334 76.1938 475.055C76.2954 475.031 76.4044 475.004 76.5124 474.978C77.2968 474.785 79.4683 474.234 81.9342 473.467C82.7251 473.215 83.5766 472.929 84.4728 472.611C84.4178 472.557 84.3861 472.528 84.3833 472.526C84.2967 472.446 84.2595 472.326 84.2856 472.21C84.3116 472.096 84.3973 472.004 84.51 471.969C84.6228 471.935 84.7457 471.963 84.8315 472.043C84.8501 472.06 84.9712 472.173 85.1659 472.362C85.5748 472.213 85.995 472.057 86.4244 471.892C87.4548 471.477 88.5671 470.996 89.6887 470.493L89.6421 470.449C89.5555 470.369 89.5182 470.249 89.5443 470.133C89.5704 470.019 89.6561 469.927 89.7688 469.892C89.8815 469.857 90.0045 469.886 90.0902 469.966C90.106 469.98 90.1955 470.064 90.3362 470.199C91.754 469.554 93.1625 468.884 94.4193 468.273C93.3256 468.212 91.1131 467.953 90.0902 466.878C89.6999 466.484 89.4977 465.939 89.5368 465.385C89.5033 464.943 89.7502 464.528 90.1535 464.347C91.1457 463.964 93.0768 465.448 94.2162 466.444C94.0009 465.347 93.8249 463.712 94.4593 462.92C94.736 462.579 95.1664 462.401 95.6033 462.447C96.0197 462.455 96.4026 462.677 96.6169 463.033C97.2569 464.1 96.4603 466.397 96.0169 467.49C96.7054 467.149 97.3109 466.846 97.786 466.606C98.1511 466.418 98.5098 466.236 98.8629 466.057L98.9486 466.014L98.9495 466.015C100.898 464.967 102.959 464.143 105.094 463.559ZM95.5623 463.105C95.3406 463.074 95.118 463.16 94.9745 463.331C94.3513 464.109 94.8571 466.476 95.1039 467.322L95.1999 467.651L95.2251 467.673C95.8073 466.366 96.5116 464.139 96.0514 463.371C95.9489 463.2 95.7617 463.097 95.5623 463.105ZM90.1955 465.424C90.2104 465.162 90.2775 465.006 90.393 464.961C90.4424 464.943 90.4945 464.934 90.5476 464.935C91.2891 464.935 93.1113 466.259 94.5245 467.619C93.5417 467.567 91.4456 467.347 90.5681 466.424C90.3035 466.161 90.1675 465.796 90.1955 465.424Z" fill="#4C3939"/>
<g style="mix-blend-mode:overlay" opacity="0.4">
<path d="M120.198 480.574C121.143 480.574 121.997 480.005 122.358 479.131C122.721 478.258 122.52 477.253 121.851 476.585C121.183 475.917 120.176 475.717 119.303 476.079C118.429 476.44 117.859 477.293 117.859 478.238C117.859 479.528 118.906 480.574 120.198 480.574Z" fill="#030F1C"/>
</g>
<g style="mix-blend-mode:overlay" opacity="0.4">
<path d="M119.395 474.428H124.506V473.771H119.395C117.033 473.772 115.12 475.684 115.117 478.043V482.144H64.7913V484.798C64.7913 485.375 65.0205 485.927 65.4285 486.334C65.8366 486.742 66.3899 486.971 66.9666 486.971H122.273C122.849 486.971 123.403 486.742 123.81 486.334C124.218 485.927 124.447 485.375 124.447 484.798V482.144H115.777V478.043C115.778 476.048 117.398 474.431 119.395 474.428Z" fill="#030F1C"/>
</g>
<g style="mix-blend-mode:overlay" opacity="0.4">
<path d="M96.0169 467.491C95.9014 467.776 95.8082 467.984 95.7728 468.061C95.7589 468.092 95.7402 468.12 95.7179 468.145C96.75 469.159 97.7087 470.246 98.5881 471.395C98.6961 471.541 98.6663 471.747 98.5201 471.855C98.3747 471.964 98.1688 471.935 98.0599 471.791C97.1041 470.547 96.0551 469.377 94.9223 468.293C94.8115 468.291 94.6354 468.285 94.4193 468.273C93.1626 468.884 91.754 469.554 90.3361 470.199C91.441 471.269 92.4657 472.418 93.4001 473.639C93.5082 473.784 93.4783 473.99 93.333 474.099C93.1868 474.207 92.9809 474.179 92.8719 474.033C91.903 472.773 90.8392 471.59 89.6887 470.493C88.5475 471.005 87.4166 471.494 86.3723 471.914C85.9819 472.07 85.5804 472.222 85.1752 472.371C86.2428 473.414 87.2349 474.531 88.1413 475.716C88.2494 475.861 88.2196 476.067 88.0743 476.176C87.9289 476.284 87.7221 476.256 87.6131 476.11C86.6601 474.87 85.614 473.704 84.4849 472.622C80.4502 474.048 76.1938 475.055 76.1938 475.055C76.1938 475.055 76.8888 477.836 79.3007 478.493C81.7125 479.15 95.4179 474.44 99.0408 472.688C102.663 470.936 98.9486 466.014 98.9486 466.014C98.9486 466.014 97.7664 466.624 96.0169 467.491Z" fill="#030F1C"/>
</g>
<g style="mix-blend-mode:overlay" opacity="0.4">
<path d="M339.707 428.869C339.535 427.59 338.357 426.693 337.077 426.864C335.796 427.036 334.898 428.213 335.07 429.491C335.242 430.771 336.42 431.668 337.7 431.496C338.98 431.324 339.879 430.148 339.707 428.869Z" fill="#030F1C"/>
</g>
<g style="mix-blend-mode:overlay" opacity="0.4">
<path d="M333.717 430.483L333.036 425.424L332.383 425.512L333.064 430.571C333.381 432.908 335.532 434.548 337.873 434.236L341.941 433.69L348.646 483.514L351.28 483.16C351.852 483.083 352.37 482.783 352.72 482.325C353.07 481.866 353.223 481.288 353.146 480.717L345.777 425.963C345.701 425.392 345.4 424.875 344.941 424.526C344.482 424.176 343.904 424.023 343.332 424.099L340.698 424.453L341.853 433.038L337.785 433.584C335.805 433.847 333.985 432.46 333.717 430.483Z" fill="#030F1C"/>
</g>
<g style="mix-blend-mode:overlay" opacity="0.4">
<path d="M329.948 454.552C330.247 454.628 330.465 454.692 330.547 454.717C330.579 454.727 330.609 454.742 330.637 454.761C331.506 453.604 332.456 452.51 333.48 451.486C333.609 451.359 333.818 451.361 333.946 451.491C334.074 451.62 334.072 451.829 333.942 451.956C332.835 453.068 331.815 454.262 330.89 455.529C330.903 455.639 330.921 455.814 330.938 456.029C331.711 457.192 332.563 458.497 333.393 459.815C334.306 458.578 335.31 457.411 336.396 456.324C336.526 456.196 336.735 456.198 336.863 456.328C336.99 456.458 336.989 456.666 336.859 456.793C335.737 457.92 334.705 459.132 333.77 460.417C334.43 461.478 335.066 462.533 335.621 463.51C335.829 463.877 336.033 464.254 336.235 464.635C337.126 463.439 338.103 462.308 339.158 461.253C339.288 461.125 339.497 461.127 339.624 461.257C339.752 461.387 339.75 461.596 339.62 461.724C338.517 462.832 337.499 464.023 336.575 465.285C338.529 469.089 340.095 473.169 340.095 473.169C340.095 473.169 342.761 472.111 343.091 469.636C343.422 467.159 336.923 454.219 334.702 450.866C332.48 447.513 328.092 451.847 328.092 451.847C328.092 451.847 328.856 452.935 329.948 454.552Z" fill="#030F1C"/>
</g>
<path d="M317.996 438.696C317.49 432.864 314.66 430.194 314.66 430.194C314.66 430.194 282.508 433.585 264.142 434.077C253.189 434.371 237.055 435.576 220.778 441.252C231.403 428.547 252.483 411.168 260.248 391.6C267.439 373.475 266.784 357.974 266.355 355.596C265.969 353.458 202.872 350.925 202.872 350.925C202.872 350.925 134.442 318.768 113.582 315.926C95.1962 313.422 86.6163 325.06 86.961 334.573C88.2093 369.068 96.4445 405.765 102.605 453.917C105.761 458.119 118.59 457.023 121.504 453.43C123.474 423.289 127.215 408.977 128.092 388.24C128.537 377.71 126.429 364.736 126.429 364.736C126.429 364.736 162.912 391.859 177.048 398.536C180.58 400.207 184.249 401.574 188.012 402.624C180.567 423.504 172.12 446.159 169.877 454.206C164.267 474.329 173.005 486.799 189.07 486.26C193.895 486.099 208.477 483.29 225.78 477.665C225.919 477.618 226.063 477.573 226.202 477.526C259.623 466.637 317.661 448.543 317.661 448.543C317.661 448.543 318.654 446.29 317.996 438.696Z" fill="#2D2B72"/>
<g style="mix-blend-mode:overlay" opacity="0.6">
<path d="M188.077 402.444C191.242 393.568 194.221 385.022 196.463 378.066L196.476 378.032C196.476 378.032 187.957 374.614 175.531 378.032C163.105 381.45 157.842 376.85 149.29 372.469C140.738 368.088 135.036 367.979 132.023 368.84C142.821 376.357 171.602 398.7 187.835 402.586C187.835 402.586 187.923 402.541 188.077 402.444Z" fill="#030F1C"/>
</g>
<g style="mix-blend-mode:overlay" opacity="0.6">
<path d="M305.701 431.086C309.292 437.107 310.611 444.212 309.42 451.119L306.324 452.088C308.197 444.994 306.911 437.438 302.796 431.361L305.701 431.086Z" fill="#F9FAFA"/>
</g>
<g style="mix-blend-mode:overlay" opacity="0.6">
<path d="M189.408 398.699C189.408 398.699 194.964 401.822 192.332 411.46C189.701 421.099 179.599 447.635 177.047 457.127C173.85 469.016 181.785 475.462 171.313 477.926C168.226 471.821 167.386 464.826 168.939 458.165C172.554 443.586 189.408 398.699 189.408 398.699Z" fill="#F9FAFA"/>
</g>
<g style="mix-blend-mode:overlay" opacity="0.6">
<path d="M87.1958 339.65C87.1958 339.65 93.8836 341.063 95.3452 346.763C96.8069 352.463 103.04 405.912 104.017 412.921C104.995 419.931 105.596 428.335 99.2569 429.828C99.2569 429.828 89.8638 369.773 87.1958 339.65Z" fill="#F9FAFA"/>
</g>
<g style="mix-blend-mode:overlay" opacity="0.6">
<path d="M245.888 358.953L174.399 350.082C174.399 350.082 171.78 365.803 174.399 367.285C188.349 375.181 216.332 379.757 244.246 372.521C249.286 376.641 252.25 388.774 248.408 398.699C243.894 410.365 222.533 412.774 227.031 434.334C227.031 434.334 253.891 409.38 260.248 391.6C264.978 378.371 266.5 370.826 266.5 360.969L245.888 358.953Z" fill="#030F1C"/>
</g>
<g style="mix-blend-mode:overlay" opacity="0.6">
<path d="M100.303 436.992C100.303 436.992 110.138 441.043 122.885 436.992L122.552 440.042C115.465 442.364 107.821 442.36 100.736 440.034L100.303 436.992Z" fill="#F9FAFA"/>
</g>
<path d="M302.763 371.302C302.763 377.469 307.768 382.469 313.942 382.469C320.116 382.469 325.121 377.469 325.121 371.302C325.121 365.135 320.116 360.135 313.942 360.135C307.768 360.135 302.763 365.135 302.763 371.302Z" fill="#FFB66D"/>
<path fill-rule="evenodd" clip-rule="evenodd" d="M296.218 267.487C299.026 275.318 302.294 284.432 306.258 295.093C309.078 302.678 306.967 317.873 288.084 317.543C279.821 317.399 273.172 316.323 264.192 314.85C263.568 321.11 263.461 327.857 265.531 338.836C266.822 346.309 267.263 353.905 266.847 361.477C266.847 361.477 188.798 368.948 173.958 354.861C170.88 351.938 172.943 345.606 174.819 339.848C175.745 337.007 176.626 334.307 176.819 332.226C177.364 326.371 178.035 320.812 178.668 315.552C179.475 308.861 180.224 302.649 180.585 296.917C180.942 291.254 180.796 280.713 180.641 269.311C180.36 248.869 180.042 225.657 182.502 222.826C186.334 218.413 209.03 210.513 209.03 210.513L220.576 219.766L243.859 211.237C243.859 211.237 261.526 216.301 267.213 218.756C267.876 219.042 268.505 219.399 269.088 219.824C275.902 222.604 280.016 227.342 284.183 236.2C287.614 243.492 291.172 253.416 296.218 267.487ZM267.048 289.792L268.944 290.018L274.09 290.629C272.719 287.221 271.989 285.432 268.435 277.209C267.953 281.587 267.483 285.858 267.048 289.792Z" fill="#34AD82"/>
<path d="M260.58 258.983C260.513 258.979 260.45 258.954 260.398 258.912C251.457 251.718 252.441 237.517 252.452 237.374C252.466 237.194 252.624 237.059 252.804 237.071H252.806C252.988 237.086 253.123 237.244 253.11 237.426C253.099 237.564 252.144 251.425 260.811 258.398C260.923 258.488 260.964 258.641 260.911 258.776C260.858 258.91 260.725 258.994 260.58 258.983Z" fill="#0B122D"/>
<path d="M180.467 264.41C180.305 264.398 180.176 264.269 180.163 264.107C179.009 249.403 180.8 238.955 180.819 238.851C180.839 238.735 180.919 238.638 181.03 238.598C181.14 238.557 181.264 238.58 181.354 238.655C181.445 238.731 181.487 238.848 181.468 238.964C181.45 239.067 179.674 249.441 180.82 264.055C180.827 264.143 180.799 264.228 180.742 264.295C180.685 264.361 180.604 264.402 180.518 264.409C180.501 264.411 180.484 264.411 180.467 264.41Z" fill="#0B122D"/>
<path d="M183.703 343.587C183.645 343.583 183.589 343.564 183.542 343.532C178.039 339.816 176.556 332.595 176.496 332.289C176.473 332.174 176.513 332.055 176.602 331.977C176.691 331.899 176.814 331.875 176.925 331.913C177.037 331.951 177.12 332.046 177.143 332.162C177.157 332.234 178.637 339.425 183.911 342.986C184.034 343.07 184.087 343.225 184.037 343.367C183.989 343.507 183.852 343.598 183.703 343.587Z" fill="#0B122D"/>
<g style="mix-blend-mode:overlay" opacity="0.6">
<path d="M267.609 275.296C267.404 274.825 267.2 274.348 266.99 273.871C266.35 272.409 265.693 270.904 265.016 269.375L257.127 254.319C257.127 254.319 254.09 271.126 255.023 288.362L266.914 289.776C267.705 284.225 268.43 279.882 268.761 277.96C268.407 277.142 268.025 276.258 267.609 275.296Z" fill="#030F1C"/>
</g>
<g style="mix-blend-mode:overlay" opacity="0.6">
<path d="M264.227 314.856C264.136 314.841 264.047 314.826 263.955 314.811C262.707 314.605 260.015 314.035 256.913 313.34C255.857 330.41 247.622 341.913 239.733 349.151C231.248 356.937 214.789 357.77 202.663 362.697C225.008 365.524 266.847 361.477 266.847 361.477C266.847 361.477 267.836 347.625 264.799 334.541C263.779 329.737 263.76 322.544 264.227 314.856Z" fill="#030F1C"/>
</g>
<g style="mix-blend-mode:overlay" opacity="0.6">
<path d="M228.874 222.353L254.424 214.402L243.859 211.237L228.874 222.353Z" fill="#030F1C"/>
</g>
<path d="M281.454 297.792C281.293 297.78 281.165 297.654 281.15 297.494C281.129 297.276 280.576 292.142 274.578 291.543C274.397 291.524 274.265 291.362 274.283 291.182C274.301 291 274.463 290.868 274.644 290.887C281.194 291.542 281.801 297.375 281.806 297.433C281.814 297.521 281.787 297.607 281.731 297.674C281.676 297.741 281.595 297.784 281.508 297.791C281.49 297.793 281.472 297.793 281.454 297.792Z" fill="#0B122D"/>
<path d="M263.795 315.127C260.585 314.899 255.609 313.838 245.687 311.039C245.512 310.99 245.411 310.808 245.46 310.633C245.509 310.458 245.692 310.356 245.867 310.406C255.889 313.232 260.889 314.295 263.974 314.48H263.977C264.159 314.492 264.296 314.649 264.284 314.83C264.272 315.012 264.115 315.149 263.933 315.137C263.888 315.135 263.842 315.131 263.795 315.127Z" fill="#0B122D"/>
<g style="mix-blend-mode:overlay" opacity="0.6">
<path d="M272.427 270.481C268.819 262.417 265.505 262.728 262.344 263.393C263.107 265.111 272.619 286.972 274.09 290.629L268.944 290.019L247.964 287.523C248.015 287.767 248.026 288.017 247.998 288.264L247.589 291.467C248.832 292.314 250.213 292.941 251.671 293.318C257.856 295.166 268.832 296.001 272.631 296.152C276.83 296.325 280.394 295.637 280.625 292.693C280.954 288.487 274.986 276.202 272.427 270.481Z" fill="#F9FAFA"/>
</g>
<g style="mix-blend-mode:overlay" opacity="0.6">
<path d="M245.315 309.238L247.998 288.264C248.159 287.004 242.112 298.912 243.905 304.984C245.067 308.916 241.613 309.485 239.803 308.901C237.264 308.082 234.868 303.597 234.868 303.597C234.839 303.593 234.514 306.702 234.486 306.697L234.456 306.928C234.291 308.217 236.606 310.443 237.895 310.608L242.681 311.273C243.971 311.438 245.151 310.527 245.315 309.238Z" fill="#030F1C"/>
</g>
<path d="M268.921 290.347L268.905 290.345L247.936 287.851C247.762 287.83 247.634 287.676 247.646 287.501C247.691 286.834 247.217 286.244 246.555 286.145L241.115 285.347C240.935 285.321 240.81 285.154 240.836 284.973C240.865 284.794 241.031 284.671 241.211 284.695L246.65 285.492C247.535 285.626 248.215 286.343 248.301 287.232L268.983 289.692C269.161 289.714 269.289 289.872 269.272 290.049C269.255 290.227 269.099 290.359 268.921 290.347Z" fill="#0B122D"/>
<path d="M239.984 226.72L108.056 217.325L106.816 234.696L112.138 235.076L106.838 309.326L228.122 317.964L233.422 243.714L238.744 244.092L239.984 226.72Z" fill="#FFB66D"/>
<g style="mix-blend-mode:overlay" opacity="0.25">
<path d="M194.732 223.498L239.983 226.72L238.743 244.092L193.492 240.87L194.732 223.498Z" fill="black"/>
</g>
<g style="mix-blend-mode:overlay" opacity="0.6">
<path d="M112.138 235.076L233.421 243.714L233.044 249L111.76 240.363L112.138 235.076Z" fill="black"/>
</g>
<g style="mix-blend-mode:overlay" opacity="0.6">
<path d="M193.492 240.87L233.421 243.713L228.122 317.964L188.192 315.12L193.492 240.87Z" fill="black"/>
</g>
<path fill-rule="evenodd" clip-rule="evenodd" d="M224.222 213.436C237.345 206.473 241.662 199.807 241.662 199.807L243.859 211.237L228.874 222.353C228.395 220.76 227.782 219.211 227.042 217.722L220.576 219.766L224.222 213.436ZM220.576 219.766L219.647 212.79C214.216 209.838 214.246 205.176 214.246 205.176L209.03 210.513L213.129 221.483L217.088 216.971L220.576 219.766Z" fill="#2D2B72"/>
<g style="mix-blend-mode:overlay" opacity="0.6">
<path d="M224.222 213.437L220.576 219.766L227.042 217.722C226.335 216.153 225.382 214.707 224.222 213.437Z" fill="#030F1C"/>
</g>
<g style="mix-blend-mode:overlay" opacity="0.6">
<path d="M219.647 212.79L220.576 219.766L217.088 216.971L219.647 212.79Z" fill="#030F1C"/>
</g>
<path fill-rule="evenodd" clip-rule="evenodd" d="M220.033 215.693L222.939 215.663L220.576 219.766L220.033 215.693ZM111.795 282.554C111.283 283.206 110.455 283.527 109.637 283.392L106.875 282.872C106.008 282.709 105.369 281.969 105.335 281.088L105.31 280.464C105.289 279.907 105.514 279.369 105.927 278.993C106.341 278.618 106.899 278.444 107.452 278.517L110.236 278.89C111.062 278.972 111.776 279.498 112.101 280.261C112.425 281.024 112.308 281.903 111.795 282.554ZM112.778 272.704L109.315 271.702C108.819 271.524 108.269 271.569 107.809 271.826C107.348 272.083 107.021 272.526 106.913 273.042L106.802 273.61C106.647 274.418 107.085 275.223 107.849 275.531L111.258 276.663C111.871 276.904 112.559 276.857 113.133 276.536C113.707 276.216 114.106 275.654 114.221 275.007C114.379 273.988 113.764 273.007 112.778 272.704ZM109.763 284.838C110.851 284.802 111.816 285.533 112.075 286.589C112.253 287.318 112.065 288.087 111.571 288.652C111.077 289.216 110.339 289.505 109.593 289.426L107.407 289.249C106.636 289.186 106.009 288.6 105.897 287.834L105.74 286.764C105.671 286.29 105.81 285.808 106.122 285.445C106.433 285.081 106.887 284.869 107.366 284.864L109.763 284.838ZM110.483 291.69L108.454 291.784C108.029 291.803 107.636 292.018 107.391 292.366C107.146 292.714 107.076 293.155 107.201 293.562L107.529 294.634C107.706 295.21 108.238 295.604 108.842 295.607L110.914 295.615C111.629 295.554 112.254 295.111 112.548 294.456C112.842 293.803 112.758 293.042 112.33 292.467C111.9 291.893 111.194 291.595 110.483 291.69ZM209.094 283.039L212.143 283.563L237.054 287.317C236.917 287.564 236.824 287.833 236.778 288.112L234.817 304.008L211.341 298.38L211.321 298.422L202.911 296.317C202.911 296.317 184.964 295.855 181.868 293.84C178.774 291.826 180.907 290.251 180.907 290.251C180.907 290.251 175.84 288.195 178.266 285.455C178.266 285.455 173.754 284.12 175.538 280.475C175.538 280.475 169.98 279.778 170.916 277.036C171.852 274.294 192.159 277.07 192.159 277.07C192.159 277.07 183.227 266.65 186.879 263.968C190.429 267.948 194.623 271.303 199.286 273.894C207.024 278.187 209.094 283.039 209.094 283.039Z" fill="#FFB7B6"/>
<path d="M181.99 281.085L176.27 280.677C176.088 280.664 175.951 280.507 175.964 280.326C175.977 280.144 176.135 280.007 176.316 280.02L182.037 280.428C182.219 280.441 182.356 280.598 182.343 280.78C182.33 280.961 182.172 281.098 181.99 281.085Z" fill="#030F1C"/>
<path d="M186.468 286.317L178.96 285.783C178.778 285.77 178.642 285.613 178.655 285.432C178.668 285.25 178.826 285.113 179.008 285.126L186.514 285.661C186.696 285.674 186.833 285.832 186.82 286.012C186.807 286.194 186.649 286.331 186.468 286.317Z" fill="#030F1C"/>
<path d="M186.803 290.924L181.759 290.565C181.577 290.552 181.44 290.394 181.453 290.213C181.466 290.031 181.623 289.895 181.805 289.908L186.851 290.267C187.032 290.28 187.169 290.437 187.156 290.619C187.143 290.8 186.985 290.937 186.803 290.924Z" fill="#030F1C"/>
<path d="M97.8158 178.672C97.8158 188.951 106.157 197.283 116.447 197.283C126.738 197.283 135.079 188.951 135.079 178.672C135.079 168.392 126.738 160.06 116.447 160.06C106.157 160.06 97.8158 168.392 97.8158 178.672Z" fill="#08AC85"/>
<path d="M7.62939e-06 278.244C7.62939e-06 281.328 2.50223 283.827 5.58948 283.827C8.67673 283.827 11.179 281.328 11.179 278.244C11.179 275.16 8.67673 272.66 5.58948 272.66C2.50223 272.66 7.62939e-06 275.16 7.62939e-06 278.244Z" fill="#FFB66D"/>
<path d="M84.7737 142.379C84.7737 145.976 87.6933 148.893 91.2947 148.893C94.8962 148.893 97.8158 145.976 97.8158 142.379C97.8158 138.781 94.8962 135.865 91.2947 135.865C87.6933 135.865 84.7737 138.781 84.7737 142.379Z" fill="#FFB66D"/>
<path d="M305.558 168.435C305.558 172.033 308.477 174.95 312.079 174.95C315.68 174.95 318.6 172.033 318.6 168.435C318.6 164.838 315.68 161.921 312.079 161.921C308.477 161.921 305.558 164.838 305.558 168.435Z" fill="#08AC85"/>
<path fill-rule="evenodd" clip-rule="evenodd" d="M112.47 103.356C83.7974 103.356 60.5526 80.2187 60.5526 51.6778C60.5526 23.137 83.7974 0 112.47 0C141.144 0 164.388 23.137 164.388 51.6778C164.388 61.4938 161.639 70.6706 156.865 78.4867L196.563 138.657L144.312 92.4984C135.52 99.3033 124.471 103.356 112.47 103.356Z" fill="#D5F9EC"/>
<path d="M121.678 39.0845C120.066 39.0845 118.73 39.5048 117.671 40.3455C116.613 41.1336 115.806 42.2107 115.252 43.5768C114.698 44.8903 114.42 46.3614 114.42 47.9901C114.42 50.1443 114.849 52.2197 115.706 54.2163C116.513 56.2129 117.646 57.9992 119.108 59.5754C120.57 61.1517 122.232 62.3864 124.097 63.2796L128.558 59.5754C127.197 58.9975 125.963 58.2882 124.853 57.4475C123.694 56.6069 122.711 55.6611 121.905 54.6103C121.099 53.5595 120.519 52.4824 120.166 51.379L120.544 51.1427C120.796 51.3002 121.099 51.4316 121.452 51.5367C121.804 51.6943 122.308 51.7731 122.964 51.7731C123.77 51.7731 124.576 51.5629 125.383 51.1427C126.189 50.6697 126.87 50.013 127.424 49.1723C127.978 48.2792 128.255 47.1758 128.255 45.8623C128.255 44.4437 127.953 43.2352 127.349 42.2369C126.743 41.2387 125.937 40.4768 124.929 39.9514C123.921 39.3734 122.837 39.0845 121.678 39.0845Z" fill="#08AC85"/>
<path d="M100.416 39.0845C98.8023 39.0845 97.4674 39.5048 96.4091 40.3455C95.3499 41.1336 94.5441 42.2107 93.9898 43.5768C93.4355 44.8903 93.1579 46.3614 93.1579 47.9901C93.1579 50.1443 93.5864 52.2197 94.4435 54.2163C95.2493 56.2129 96.384 57.9992 97.8456 59.5754C99.3063 61.1517 100.97 62.3864 102.835 63.2796L107.296 59.5754C105.934 58.9975 104.699 58.2882 103.591 57.4475C102.432 56.6069 101.449 55.6611 100.642 54.6103C99.8364 53.5595 99.256 52.4824 98.9039 51.379L99.2812 51.1427C99.5336 51.3002 99.8364 51.4316 100.189 51.5367C100.542 51.6943 101.046 51.7731 101.7 51.7731C102.507 51.7731 103.314 51.5629 104.12 51.1427C104.927 50.6697 105.607 50.013 106.161 49.1723C106.715 48.2792 106.993 47.1758 106.993 45.8623C106.993 44.4437 106.69 43.2352 106.085 42.2369C105.481 41.2387 104.674 40.4768 103.666 39.9514C102.658 39.3734 101.575 39.0845 100.416 39.0845Z" fill="#08AC85"/>
</svg>
