<svg width="219" height="307" viewBox="0 0 219 307" fill="none" xmlns="http://www.w3.org/2000/svg">
<g clip-path="url(#clip0_50_438)">
<path d="M219 295.48C219 301.842 170.104 307 109.788 307C49.4721 307 0.576294 301.842 0.576294 295.48C0.576294 289.118 49.4721 283.96 109.788 283.96C170.104 283.96 219 289.118 219 295.48Z" fill="#058A6A"/>
<path d="M62.747 104.324C62.2836 97.8324 69.6045 99.3904 70.854 99.7101C72.104 100.03 74.2848 90.473 74.2848 90.473C74.2848 90.473 88.8471 88.2094 91.8987 90.8532C91.8987 90.8532 93.5827 102.996 93.7274 110.752C93.8715 118.508 91.6187 121.931 88.7705 122.134C87.8657 122.148 86.9661 122.004 86.1108 121.71L87.1251 135.934L69.2582 128.236L70.1814 111.282C70.0904 111.237 70.0385 111.214 70.0385 111.214C70.0385 111.214 63.1844 110.455 62.747 104.324Z" fill="#FFB7B6"/>
<path d="M93.1188 101.397C93.1188 101.397 91.8474 94.7751 91.6146 92.9331C91.2792 90.2835 88.7607 89.9022 87.4369 91.8715C85.5385 94.7912 82.0697 96.283 78.6435 95.654C75.6426 95.1771 74.3436 94.4767 74.2848 97.4736C74.2266 100.47 73.5644 105.487 72.523 104.232C71.4816 102.977 70.2143 100.144 68.3136 99.9399C65.409 99.6278 63.8794 103.176 64.7018 105.169C65.5236 107.162 66.5714 108.366 70.2489 110.044L69.7682 118.864C60.1679 107.865 55.725 92.1376 67.3581 87.5931C71.7041 85.8957 75.6824 76.6171 84.428 78.0398C90.6239 79.0484 90.957 83.7144 91.6797 87.7406C99.8905 87.4952 93.1188 101.397 93.1188 101.397Z" fill="#352316"/>
<path d="M83.9306 102.051C83.5102 102.081 83.1294 101.545 83.0802 100.855C83.0309 100.164 83.3317 99.5793 83.7521 99.5494C84.1725 99.5194 84.5532 100.055 84.6025 100.746C84.6518 101.437 84.3509 102.021 83.9306 102.051Z" fill="#161B36"/>
<path d="M91.4987 102.034C91.0784 102.064 90.6976 101.528 90.6483 100.837C90.5991 100.147 90.8999 99.5622 91.3203 99.5323C91.7406 99.5023 92.1214 100.038 92.1707 100.729C92.2199 101.42 91.9191 102.004 91.4987 102.034Z" fill="#161B36"/>
<path d="M85.0573 95.6836C84.7651 95.3991 84.3761 95.1888 83.2644 95.3357C82.1527 95.4832 80.5361 96.6518 80.9274 96.8955C81.3188 97.1397 82.37 96.1473 83.2713 96.3886C84.1727 96.6305 84.6954 96.8448 84.9795 96.6582C85.3368 96.4232 85.1979 95.8207 85.0573 95.6836Z" fill="#161B36"/>
<path d="M89.873 95.0291C90.213 94.8033 90.6343 94.6685 91.6993 95.0193C92.7644 95.3701 94.136 96.8175 93.7066 96.9851C93.2767 97.1522 92.4272 95.9824 91.497 96.0526C90.5663 96.1229 90.013 96.2369 89.7687 96.0008C89.4615 95.7036 89.7093 95.138 89.873 95.0291Z" fill="#161B36"/>
<g style="mix-blend-mode:overlay" opacity="0.6">
<path d="M89.2027 108.899C89.5964 108.885 89.979 108.767 90.3121 108.557C90.53 108.414 90.6723 108.181 90.7 107.922C90.7461 107.385 90.1456 106.603 89.4148 105.712C89.2304 105.499 89.0592 105.276 88.9019 105.042C88.7469 104.763 88.5976 102.127 88.5429 99.7397L88.1348 99.749C88.1538 100.577 88.2628 104.732 88.5457 105.241C88.7129 105.497 88.8979 105.74 89.0996 105.97C89.5595 106.531 90.3294 107.472 90.2937 107.886C90.2764 108.026 90.1957 108.151 90.0747 108.225C89.5082 108.518 88.8518 108.585 88.238 108.414L88.1412 108.81C88.4881 108.894 88.8466 108.924 89.2027 108.899Z" fill="#030F1C"/>
</g>
<path d="M89.9716 112.734C89.9975 112.611 89.9733 112.483 89.9047 112.378C89.8356 112.273 89.7284 112.201 89.605 112.175C88.9941 112.045 87.8674 111.798 87.0064 111.572C86.1051 111.287 85.2245 110.943 84.3686 110.541C84.2199 110.473 84.0465 110.487 83.9105 110.578C83.7739 110.668 83.6938 110.822 83.6984 110.985C83.7306 112.241 84.0557 114.675 86.0607 115.033C88.4991 115.468 89.6609 114.084 89.9716 112.734Z" fill="#161B36"/>
<path d="M89.0414 114.368C89.0414 114.368 86.7753 111.637 83.8776 112.505C83.8776 112.505 84.0337 114.752 85.9679 115.123C88.0501 115.523 89.0414 114.368 89.0414 114.368Z" fill="#E55151"/>
<path d="M67.1379 102.616C69.0421 101.818 71.1566 105.933 71.2459 106.109C71.2966 106.209 71.2563 106.331 71.156 106.382C71.0557 106.433 70.933 106.393 70.8817 106.293C70.514 105.583 70.0789 104.91 69.5809 104.284C69.1642 104.242 68.7464 104.349 68.4024 104.587C68.0646 104.878 67.8658 105.298 67.8554 105.743C67.8456 105.842 67.7661 105.92 67.667 105.927C67.6555 105.928 67.6445 105.928 67.6336 105.927C67.5794 105.922 67.5298 105.895 67.4952 105.854C67.4607 105.812 67.4439 105.759 67.4491 105.705C67.4497 104.715 68.2375 103.906 69.2271 103.878C68.5966 103.202 67.8992 102.738 67.2964 102.992C67.229 103.021 67.1518 103.011 67.0941 102.967C67.0359 102.923 67.0059 102.851 67.0146 102.779C67.0238 102.707 67.0711 102.645 67.1379 102.616Z" fill="#0B122D"/>
<path d="M86.1252 121.914C86.2208 121.907 86.2992 121.834 86.3125 121.738C86.3257 121.643 86.2704 121.551 86.1799 121.518C86.1108 121.494 79.2117 118.981 76.1319 115.569C76.0564 115.485 75.9278 115.479 75.8443 115.554C75.7607 115.629 75.7538 115.757 75.8293 115.842C78.9777 119.33 85.7546 121.799 86.0416 121.902C86.0681 121.912 86.0964 121.916 86.1252 121.914Z" fill="#0B122D"/>
<path d="M74.5447 93.9109C74.5897 93.9081 74.6329 93.8896 74.6663 93.8597C77.5669 91.2574 76.0944 86.7198 76.0304 86.528C75.9947 86.4214 75.8794 86.3644 75.7728 86.3995C75.6662 86.4352 75.6086 86.5499 75.6437 86.6564C75.6581 86.7013 77.0937 91.1341 74.3937 93.5561C74.3292 93.6143 74.3084 93.707 74.3424 93.7877C74.3764 93.8677 74.4577 93.9173 74.5447 93.9109Z" fill="white"/>
<g style="mix-blend-mode:overlay" opacity="0.6">
<path d="M86.1033 121.804C86.1033 121.804 80.0451 119.496 78.0095 117.647C78.0095 117.647 78.8285 122.964 82.9693 126.447C87.1095 129.929 86.4687 126.922 86.4687 126.922L86.1033 121.804Z" fill="#030F1C"/>
</g>
<path d="M169.51 294.664L171.538 298.841H171.478C170.862 298.841 170.362 299.34 170.362 299.955C170.362 300.571 170.862 301.069 171.478 301.069H186.002C186.617 301.069 187.117 300.571 187.117 299.955C187.117 299.34 186.617 298.841 186.002 298.841H185.941L187.969 294.664C191.322 287.68 191.241 279.537 187.75 272.622H169.716C166.23 279.539 166.154 287.682 169.51 294.664Z" fill="#FFB66D"/>
<path fill-rule="evenodd" clip-rule="evenodd" d="M198.936 248.948C198.888 247.902 197.66 247.993 196.445 248.084C195.34 248.167 194.248 248.248 194.062 247.474C193.933 246.936 194.867 246.087 195.768 245.269C196.649 244.467 197.499 243.695 197.285 243.273C194.196 237.184 188.506 235.966 183.071 241.234H182.906C180.994 241.259 179.097 241.592 177.29 242.22C175.75 241.736 174.134 241.549 172.525 241.665L172.403 241.568C171.557 240.856 166.524 236.813 163.264 238.682C161.409 239.723 159.856 241.227 158.756 243.048C158.531 243.422 159.284 243.888 160.195 244.453C161.507 245.266 163.148 246.283 162.674 247.523C162.141 248.93 160.204 248.827 158.712 248.748C157.712 248.694 156.912 248.652 156.867 249.082C156.684 251.029 156.735 252.992 157.02 254.928C157.089 255.429 158.034 255.559 158.984 255.69C159.89 255.815 160.801 255.94 160.962 256.389C161.181 256.997 160.256 257.87 159.41 258.668C158.705 259.334 158.055 259.947 158.171 260.31C158.932 262.914 159.884 265.458 161.023 267.921C161.278 268.472 161.745 268.898 162.318 269.101C162.891 269.305 163.522 269.271 164.069 269.005C166.082 268.036 168.043 266.96 169.942 265.784C170.107 265.681 169.954 265.09 169.761 264.345C169.42 263.028 168.953 261.227 169.899 260.779C170.138 260.667 170.71 261.536 171.28 262.402C171.859 263.28 172.435 264.157 172.659 264L173.317 263.531V272.622H184.174V260.085C184.536 260.55 184.427 261.656 184.326 262.676C184.232 263.632 184.145 264.512 184.46 264.719C186.737 266.193 189.122 267.493 191.594 268.609C192.143 268.862 192.77 268.879 193.331 268.658C193.9 268.439 194.357 268 194.598 267.44C195.476 265.389 196.246 263.294 196.907 261.163C196.965 260.978 196.464 260.634 195.831 260.198C194.709 259.427 193.172 258.37 193.593 257.412C193.699 257.171 194.692 257.447 195.686 257.725C196.703 258.008 197.723 258.292 197.79 258.021C198.593 255.065 198.979 252.011 198.936 248.948ZM178.745 254.355C178.426 254.691 178.082 255.002 177.716 255.286C177.003 254.732 176.43 254.178 176.735 253.581C176.942 253.192 177.789 253.095 178.745 253.058V254.355ZM184.162 260.085C184.116 260.025 184.057 259.975 183.991 259.939V259.932C184.058 259.971 184.116 260.023 184.162 260.085Z" fill="#85CEB4"/>
<path d="M178.691 272.622V260.14L178.733 260.182V272.622H178.691Z" fill="#FFB66D"/>
<path d="M183.162 260.036C183.095 260.036 183.034 260.097 182.968 260.128C183.034 260.097 183.095 260.06 183.162 260.036Z" fill="#FFB66D"/>
<path d="M175.973 261.424L176.016 261.388V272.622H175.973V261.424Z" fill="#FFB66D"/>
<path d="M181.432 272.622V261.083H181.475V272.622H181.432Z" fill="#FFB66D"/>
<g style="mix-blend-mode:overlay" opacity="0.6">
<path d="M190.303 281.445H167.152C167.072 282.249 167.03 283.059 167.03 283.881H190.419C190.423 283.067 190.385 282.254 190.303 281.445Z" fill="#030F1C"/>
</g>
<g style="mix-blend-mode:overlay" opacity="0.6">
<path d="M167.328 287.582H190.139C190.26 286.784 190.346 285.975 190.388 285.147H167.115C167.115 285.975 167.206 286.784 167.328 287.582Z" fill="#030F1C"/>
</g>
<g style="mix-blend-mode:overlay" opacity="0.6">
<path d="M175.973 272.622V261.424C175.115 262.155 174.206 262.861 173.287 263.531V272.622H175.973Z" fill="#030F1C"/>
</g>
<g style="mix-blend-mode:overlay" opacity="0.6">
<path d="M181.432 272.579V261.083C180.823 261.43 180.336 261.656 180.049 261.406C179.598 261.016 179.166 260.602 178.745 260.188V272.579H181.432Z" fill="#030F1C"/>
</g>
<g style="mix-blend-mode:overlay" opacity="0.43">
<path d="M161.023 267.921C159.893 265.458 158.948 262.914 158.196 260.31C157.964 259.513 161.388 257.503 160.986 256.389C160.657 255.47 157.178 255.908 157.044 254.928C156.76 252.992 156.708 251.029 156.892 249.082C157.002 248.011 161.809 249.873 162.716 247.511C163.52 245.411 158.251 243.949 158.799 243.036C159.898 241.215 161.452 239.711 163.307 238.67C166.506 236.801 171.557 240.844 172.403 241.568C171.087 244.455 169.406 248.266 167.621 252.705C165.465 258.039 163.682 263.516 162.284 269.096C161.724 268.888 161.27 268.465 161.023 267.921Z" fill="#030F1C"/>
</g>
<g style="mix-blend-mode:overlay" opacity="0.43">
<path d="M191.582 268.61C189.11 267.489 186.725 266.185 184.448 264.706C183.754 264.25 185.021 260.493 183.991 259.915C183.138 259.439 180.793 262.052 180.049 261.394C178.568 260.117 177.244 258.67 176.101 257.083C175.492 256.2 180.366 254.453 179.47 252.078C178.691 249.977 173.762 252.328 173.573 251.311C173.213 249.214 173.401 247.06 174.121 245.057C175.34 241.526 181.792 241.282 182.901 241.264C183.808 244.308 185.051 248.315 186.599 252.833C188.471 258.256 190.714 263.543 193.312 268.658C192.753 268.878 192.129 268.86 191.582 268.61Z" fill="#030F1C"/>
</g>
<path fill-rule="evenodd" clip-rule="evenodd" d="M16.9078 266.624L15.675 275.79L27.3171 277.354L28.6104 267.74L16.9078 266.624ZM144.731 289.307H153.985V277.567H144.278L144.731 289.307Z" fill="#FFB7B6"/>
<path fill-rule="evenodd" clip-rule="evenodd" d="M18.0414 276.107C14.6794 271.295 19.283 266.877 19.283 266.877C19.283 266.877 18.3566 264.173 16.4489 263.826C14.5413 263.478 7.84825 262.664 7.84825 262.664L6.60018 262.497C6.2465 262.45 5.88843 262.544 5.6047 262.761C5.32098 262.977 5.13486 263.297 5.08731 263.65L0.528602 297.54C0.481057 297.894 0.57596 298.252 0.792436 298.536C1.00891 298.819 1.32922 299.005 1.68291 299.052L3.31238 299.272L3.32216 299.199C5.06405 298.916 7.38144 296.008 8.60259 292.868C8.61642 292.833 8.63095 292.796 8.64564 292.758L8.67636 292.68C8.85934 292.215 9.37653 290.93 10.0508 289.482C10.2703 289.018 10.5167 288.52 10.7858 287.997C10.8003 288.017 10.8114 288.032 10.819 288.043L10.8294 288.057L10.8303 288.059C10.8722 288.119 10.9429 288.152 11.0157 288.145C11.0885 288.139 11.1523 288.094 11.1828 288.027C11.2133 287.961 11.206 287.883 11.1635 287.824C11.1546 287.811 11.0953 287.728 10.995 287.593C11.1202 287.355 11.2511 287.11 11.3875 286.86C11.7268 286.264 12.1138 285.621 12.5157 284.976L12.5388 285.008C12.5806 285.068 12.6513 285.101 12.7242 285.094C12.7971 285.088 12.8609 285.043 12.8915 284.976C12.922 284.91 12.9145 284.832 12.8719 284.773C12.8645 284.763 12.8206 284.7 12.7486 284.603C13.2622 283.787 13.7892 282.98 14.2675 282.26C14.2155 282.936 14.1917 284.312 14.7671 285.028C14.9773 285.299 15.2947 285.468 15.6379 285.49C15.9059 285.547 16.181 285.43 16.326 285.197C16.6431 284.621 15.891 283.315 15.3741 282.535C16.0291 282.758 17.018 283 17.5567 282.677C17.7888 282.535 17.9335 282.286 17.9412 282.015C17.9704 281.759 17.8663 281.506 17.6654 281.345C17.0629 280.866 15.5877 281.164 14.88 281.345C15.1459 280.951 15.382 280.606 15.5682 280.334C15.7135 280.127 15.8554 279.921 15.9937 279.719L16.0278 279.671L16.0272 279.67C16.831 278.562 17.5067 277.367 18.0414 276.107ZM17.5343 281.986C17.5348 282.124 17.464 282.253 17.3468 282.327C16.8181 282.645 15.4068 282.14 14.908 281.918L14.7141 281.833L14.7023 281.816C15.5522 281.566 16.9772 281.319 17.4111 281.664C17.5078 281.741 17.555 281.864 17.5343 281.986ZM15.6685 285.083C15.8305 285.096 15.9315 285.067 15.9687 285C15.9839 284.971 15.9936 284.94 15.9972 284.908C16.0583 284.453 15.396 283.228 14.6782 282.249C14.6291 282.856 14.591 284.158 15.0853 284.772C15.225 284.956 15.438 285.07 15.6685 285.083ZM153.984 286.92C149.66 290.891 144.665 286.92 144.665 286.92C144.665 286.92 142.108 288.198 142.017 290.134C141.927 292.07 142.012 298.807 142.012 298.807V300.066C142.012 300.423 142.153 300.765 142.406 301.017C142.658 301.269 143 301.411 143.357 301.411H177.572C177.929 301.411 178.271 301.269 178.523 301.017C178.775 300.765 178.917 300.423 178.917 300.066V298.423H178.844C178.332 296.735 175.139 294.827 171.863 294.036C171.8 294.021 171.733 294.004 171.666 293.988C171.181 293.869 169.837 293.528 168.312 293.053C167.823 292.897 167.296 292.72 166.741 292.523C166.775 292.49 166.795 292.472 166.797 292.47C166.85 292.421 166.873 292.347 166.857 292.275C166.841 292.204 166.788 292.147 166.718 292.126C166.649 292.105 166.573 292.122 166.52 292.172C166.508 292.182 166.433 292.252 166.313 292.369C166.06 292.277 165.8 292.18 165.534 292.078C164.897 291.821 164.208 291.524 163.515 291.212L163.543 291.185C163.597 291.135 163.62 291.061 163.604 290.99C163.588 290.919 163.535 290.862 163.465 290.84C163.395 290.819 163.319 290.836 163.266 290.886C163.256 290.895 163.201 290.946 163.114 291.03C162.237 290.631 161.366 290.216 160.588 289.838C161.265 289.8 162.633 289.64 163.266 288.975C163.508 288.731 163.633 288.394 163.609 288.051C163.629 287.777 163.477 287.52 163.227 287.408C162.613 287.171 161.419 288.09 160.714 288.706C160.847 288.027 160.956 287.015 160.563 286.525C160.392 286.314 160.126 286.204 159.856 286.232C159.598 286.237 159.361 286.374 159.229 286.595C158.833 287.255 159.325 288.677 159.6 289.354C159.174 289.142 158.799 288.955 158.505 288.807C158.279 288.69 158.057 288.577 157.839 288.467L157.786 288.44L157.785 288.44C156.58 287.792 155.305 287.282 153.984 286.92ZM159.881 286.639C160.018 286.62 160.156 286.673 160.245 286.779C160.63 287.261 160.317 288.726 160.164 289.25L160.105 289.453L160.09 289.467C159.729 288.658 159.294 287.28 159.578 286.804C159.642 286.698 159.758 286.635 159.881 286.639ZM163.201 288.075C163.192 287.913 163.15 287.816 163.079 287.788C163.048 287.777 163.016 287.772 162.983 287.772C162.525 287.772 161.397 288.592 160.523 289.433C161.131 289.401 162.428 289.265 162.971 288.694C163.134 288.531 163.218 288.305 163.201 288.075Z" fill="#4C3939"/>
<g style="mix-blend-mode:overlay" opacity="0.4">
<path d="M144.64 297.452C144.055 297.452 143.527 297.1 143.304 296.559C143.08 296.019 143.204 295.397 143.617 294.983C144.031 294.57 144.654 294.446 145.194 294.67C145.735 294.893 146.087 295.421 146.087 296.006C146.087 296.804 145.44 297.452 144.64 297.452Z" fill="#030F1C"/>
</g>
<g style="mix-blend-mode:overlay" opacity="0.4">
<path d="M145.137 293.648H141.975V293.241H145.137C146.598 293.242 147.782 294.425 147.784 295.886V298.424H178.917V300.067C178.917 300.424 178.775 300.765 178.523 301.018C178.271 301.27 177.928 301.412 177.572 301.412H143.357C143 301.412 142.658 301.27 142.406 301.018C142.153 300.765 142.012 300.424 142.012 300.067V298.424H147.375V295.886C147.374 294.651 146.373 293.65 145.137 293.648Z" fill="#030F1C"/>
</g>
<g style="mix-blend-mode:overlay" opacity="0.4">
<path d="M159.6 289.354C159.671 289.531 159.729 289.659 159.751 289.707C159.759 289.726 159.771 289.743 159.785 289.759C159.146 290.387 158.553 291.06 158.009 291.771C157.942 291.861 157.961 291.989 158.051 292.055C158.141 292.123 158.268 292.105 158.336 292.016C158.927 291.246 159.576 290.522 160.277 289.851C160.345 289.849 160.454 289.846 160.588 289.838C161.366 290.216 162.237 290.631 163.114 291.031C162.431 291.693 161.797 292.404 161.219 293.16C161.152 293.249 161.17 293.377 161.26 293.444C161.351 293.511 161.478 293.494 161.545 293.404C162.145 292.624 162.803 291.891 163.515 291.212C164.221 291.53 164.92 291.832 165.566 292.092C165.808 292.188 166.056 292.282 166.307 292.375C165.646 293.02 165.033 293.712 164.472 294.445C164.405 294.535 164.423 294.662 164.513 294.73C164.603 294.797 164.731 294.779 164.799 294.689C165.388 293.922 166.035 293.2 166.734 292.53C169.23 293.413 171.863 294.036 171.863 294.036C171.863 294.036 171.433 295.757 169.941 296.164C168.449 296.571 159.97 293.655 157.729 292.571C155.488 291.486 157.786 288.44 157.786 288.44C157.786 288.44 158.517 288.818 159.6 289.354Z" fill="#030F1C"/>
</g>
<g style="mix-blend-mode:overlay" opacity="0.4">
<path d="M8.84247 265.449C8.94897 264.658 9.67738 264.102 10.4695 264.208C11.2615 264.315 11.8173 265.043 11.7108 265.834C11.6043 266.626 10.8759 267.182 10.0839 267.075C9.29177 266.969 8.73602 266.241 8.84247 265.449Z" fill="#030F1C"/>
</g>
<g style="mix-blend-mode:overlay" opacity="0.4">
<path d="M12.5479 266.448L12.9691 263.316L13.3735 263.371L12.9522 266.502C12.756 267.949 11.4251 268.964 9.97713 268.771L7.46019 268.433L3.31195 299.272L1.6825 299.052C1.3288 299.005 1.00849 298.819 0.792007 298.536C0.575533 298.252 0.480628 297.894 0.528176 297.54L5.08689 263.65C5.13444 263.297 5.32054 262.977 5.60426 262.761C5.888 262.544 6.24606 262.45 6.59975 262.497L8.22922 262.716L7.51454 268.029L10.0315 268.367C11.2563 268.53 12.382 267.671 12.5479 266.448Z" fill="#030F1C"/>
</g>
<g style="mix-blend-mode:overlay" opacity="0.4">
<path d="M14.8797 281.345C14.6949 281.393 14.5597 281.432 14.5093 281.448C14.4893 281.454 14.4705 281.463 14.4534 281.475C13.9157 280.759 13.3281 280.082 12.6949 279.448C12.6145 279.369 12.4853 279.37 12.4063 279.451C12.3274 279.531 12.3285 279.66 12.4089 279.739C13.0936 280.427 13.7248 281.166 14.297 281.95C14.289 282.018 14.2777 282.126 14.2675 282.259C13.7892 282.979 13.2619 283.788 12.7486 284.603C12.1837 283.838 11.5626 283.115 10.8904 282.442C10.81 282.363 10.6808 282.364 10.6019 282.445C10.5229 282.525 10.5241 282.654 10.6045 282.733C11.298 283.43 11.9369 284.18 12.5155 284.976C12.1067 285.632 11.7135 286.286 11.37 286.89C11.2416 287.117 11.1152 287.351 10.9901 287.587C10.4388 286.846 9.8345 286.146 9.18205 285.493C9.1016 285.414 8.97239 285.415 8.89344 285.496C8.81448 285.576 8.81563 285.706 8.89603 285.785C9.57868 286.471 10.2084 287.208 10.7797 287.989C9.57113 290.343 8.60251 292.869 8.60251 292.869C8.60251 292.869 6.95321 292.214 6.74868 290.682C6.54414 289.149 10.5646 281.139 11.9387 279.064C13.313 276.989 16.0276 279.671 16.0276 279.671C16.0276 279.671 15.5554 280.345 14.8797 281.345Z" fill="#030F1C"/>
</g>
<path d="M22.2738 271.532C22.5864 267.922 24.3375 266.269 24.3375 266.269C24.3375 266.269 44.2284 268.368 55.5901 268.673C62.366 268.855 72.3472 269.601 82.4172 273.114C75.8437 265.25 62.8028 254.493 57.9993 242.382C53.5504 231.163 53.9559 221.569 54.221 220.097C54.4596 218.774 93.4945 217.206 93.4945 217.206C93.4945 217.206 135.828 197.302 148.733 195.543C160.107 193.993 165.415 201.197 165.202 207.085C164.43 228.435 159.335 251.149 155.524 280.953C153.571 283.554 145.635 282.875 143.832 280.652C142.613 261.996 140.299 253.137 139.757 240.302C139.481 233.784 140.785 225.754 140.785 225.754C140.785 225.754 118.216 242.542 109.471 246.675C107.285 247.709 105.016 248.555 102.687 249.205C107.293 262.129 112.519 276.151 113.906 281.131C117.377 293.587 111.971 301.305 102.033 300.972C99.0479 300.872 90.0268 299.133 79.3224 295.651C79.2365 295.623 79.1472 295.594 79.0613 295.566C58.386 288.826 22.4807 277.627 22.4807 277.627C22.4807 277.627 21.8669 276.232 22.2738 271.532Z" fill="#2D2B72"/>
<g style="mix-blend-mode:overlay" opacity="0.6">
<path d="M102.647 249.093C100.689 243.6 98.8462 238.31 97.4596 234.004L97.4515 233.984C97.4515 233.984 102.721 231.868 110.409 233.984C118.096 236.099 121.352 233.252 126.643 230.54C131.933 227.829 135.461 227.761 137.325 228.294C130.644 232.947 112.839 246.776 102.797 249.181C102.797 249.181 102.743 249.153 102.647 249.093Z" fill="#030F1C"/>
</g>
<g style="mix-blend-mode:overlay" opacity="0.6">
<path d="M29.8802 266.822C27.6583 270.548 26.8423 274.946 27.5794 279.221L29.4948 279.821C28.3358 275.43 29.1315 270.753 31.6771 266.992L29.8802 266.822Z" fill="white"/>
</g>
<g style="mix-blend-mode:overlay" opacity="0.6">
<path d="M101.824 246.775C101.824 246.775 98.3869 248.708 100.015 254.674C101.643 260.64 107.892 277.064 109.471 282.939C111.449 290.298 106.539 294.288 113.018 295.813C114.928 292.034 115.448 287.705 114.487 283.582C112.25 274.558 101.824 246.775 101.824 246.775Z" fill="white"/>
</g>
<g style="mix-blend-mode:overlay" opacity="0.6">
<path d="M165.057 210.227C165.057 210.227 160.919 211.101 160.015 214.629C159.111 218.157 155.255 251.239 154.65 255.578C154.046 259.917 153.673 265.118 157.595 266.043C157.595 266.043 163.406 228.872 165.057 210.227Z" fill="white"/>
</g>
<g style="mix-blend-mode:overlay" opacity="0.6">
<path d="M66.8826 222.174L111.109 216.684C111.109 216.684 112.729 226.414 111.109 227.331C102.479 232.218 85.1674 235.051 67.8987 230.572C64.7808 233.122 62.947 240.632 65.3237 246.775C68.1165 253.996 81.3314 255.487 78.5484 268.832C78.5484 268.832 61.9321 253.386 57.9993 242.381C55.0731 234.193 54.1314 229.523 54.1314 223.422L66.8826 222.174Z" fill="#030F1C"/>
</g>
<g style="mix-blend-mode:overlay" opacity="0.6">
<path d="M156.948 270.477C156.948 270.477 150.864 272.984 142.978 270.477L143.184 272.365C147.568 273.802 152.297 273.799 156.68 272.359L156.948 270.477Z" fill="white"/>
</g>
<path d="M31.6974 229.818C31.6974 233.635 28.601 236.73 24.7816 236.73C20.9621 236.73 17.8658 233.635 17.8658 229.818C17.8658 226.001 20.9621 222.906 24.7816 222.906C28.601 222.906 31.6974 226.001 31.6974 229.818Z" fill="#FFB66D"/>
<path fill-rule="evenodd" clip-rule="evenodd" d="M35.7464 165.561C34.0093 170.408 31.9873 176.05 29.5356 182.648C27.7909 187.343 29.0966 196.748 40.7785 196.544C45.8906 196.454 50.0036 195.789 55.559 194.877C55.9454 198.751 56.0113 202.927 54.7307 209.723C53.9322 214.349 53.6592 219.05 53.917 223.737C53.917 223.737 102.201 228.361 111.382 219.642C113.286 217.833 112.01 213.913 110.849 210.349C110.276 208.591 109.732 206.92 109.612 205.632C109.275 202.007 108.86 198.567 108.468 195.311C107.969 191.17 107.505 187.325 107.282 183.777C107.062 180.272 107.152 173.748 107.248 166.69C107.421 154.038 107.618 139.671 106.096 137.918C103.725 135.187 89.6851 130.297 89.6851 130.297L82.5423 136.024L68.1378 130.745C68.1378 130.745 57.2088 133.88 53.6904 135.399C53.2804 135.576 52.8912 135.797 52.5301 136.06C48.315 137.781 45.77 140.713 43.1918 146.196C41.0695 150.71 38.868 156.852 35.7464 165.561ZM53.7926 179.367L52.6197 179.507L49.4361 179.885C50.2839 177.776 50.7357 176.669 52.934 171.579C53.2322 174.289 53.5233 176.932 53.7926 179.367Z" fill="#34AD82"/>
<path d="M57.7935 160.299C57.835 160.296 57.8742 160.28 57.9064 160.254C63.4374 155.802 62.8288 147.012 62.8218 146.924C62.8132 146.812 62.7158 146.728 62.604 146.736H62.6028C62.4905 146.745 62.4069 146.843 62.415 146.955C62.4219 147.041 63.0126 155.62 57.6506 159.936C57.5812 159.992 57.5561 160.087 57.5887 160.17C57.6214 160.253 57.7042 160.305 57.7935 160.299Z" fill="#0B122D"/>
<path d="M107.355 163.657C107.455 163.65 107.535 163.57 107.543 163.469C108.257 154.369 107.149 147.902 107.138 147.837C107.125 147.766 107.075 147.706 107.007 147.681C106.939 147.656 106.862 147.669 106.806 147.716C106.75 147.763 106.724 147.835 106.736 147.907C106.747 147.971 107.846 154.392 107.137 163.438C107.132 163.492 107.15 163.545 107.185 163.586C107.22 163.627 107.27 163.652 107.324 163.656C107.334 163.658 107.345 163.658 107.355 163.657Z" fill="#0B122D"/>
<path d="M105.353 212.664C105.389 212.661 105.424 212.65 105.453 212.629C108.857 210.329 109.775 205.86 109.812 205.671C109.826 205.6 109.801 205.526 109.746 205.478C109.691 205.43 109.615 205.415 109.546 205.438C109.477 205.462 109.426 205.521 109.412 205.592C109.403 205.637 108.487 210.088 105.224 212.292C105.148 212.344 105.116 212.44 105.146 212.527C105.176 212.614 105.261 212.67 105.353 212.664Z" fill="#0B122D"/>
<g style="mix-blend-mode:overlay" opacity="0.6">
<path d="M53.4454 170.395C53.572 170.103 53.6982 169.809 53.8285 169.513C54.2244 168.608 54.6307 167.677 55.0492 166.73L59.9299 157.412C59.9299 157.412 61.8087 167.814 61.2318 178.482L53.8751 179.358C53.3861 175.922 52.9374 173.233 52.7328 172.044C52.9514 171.538 53.1878 170.99 53.4454 170.395Z" fill="#030F1C"/>
</g>
<g style="mix-blend-mode:overlay" opacity="0.6">
<path d="M55.5372 194.881C55.594 194.871 55.6486 194.862 55.7056 194.853C56.4776 194.726 58.1433 194.373 60.0625 193.942C60.7154 204.508 65.8101 211.628 70.6903 216.108C75.94 220.927 86.1223 221.442 93.6236 224.492C79.8001 226.242 53.9164 223.737 53.9164 223.737C53.9164 223.737 53.3048 215.163 55.1834 207.065C55.8145 204.091 55.8263 199.639 55.5372 194.881Z" fill="#030F1C"/>
</g>
<g style="mix-blend-mode:overlay" opacity="0.6">
<path d="M77.4085 137.626L61.6024 132.705L68.1378 130.746L77.4085 137.626Z" fill="#030F1C"/>
</g>
<path d="M44.8802 184.319C44.9796 184.311 45.059 184.233 45.0683 184.134C45.081 183.999 45.4231 180.822 49.1339 180.451C49.246 180.439 49.3277 180.339 49.3165 180.227C49.3052 180.115 49.2051 180.033 49.093 180.045C45.0412 180.45 44.6657 184.061 44.6623 184.097C44.6573 184.151 44.6739 184.204 44.7085 184.246C44.7431 184.287 44.7928 184.314 44.8467 184.318C44.8578 184.32 44.869 184.319 44.8802 184.319Z" fill="#0B122D"/>
<path d="M55.8051 195.049C57.7907 194.908 60.8688 194.251 67.0071 192.519C67.1154 192.488 67.1783 192.375 67.1477 192.267C67.1172 192.159 67.0042 192.096 66.8959 192.126C60.6959 193.876 57.6028 194.534 55.6942 194.648H55.6922C55.5798 194.656 55.4947 194.753 55.5022 194.865C55.5096 194.977 55.6068 195.062 55.7192 195.055C55.7474 195.054 55.776 195.051 55.8051 195.049Z" fill="#0B122D"/>
<g style="mix-blend-mode:overlay" opacity="0.6">
<path d="M50.4649 167.415C52.6965 162.424 54.7468 162.616 56.7024 163.027C56.2303 164.091 50.3459 177.622 49.4358 179.885L52.6195 179.507L65.5986 177.963C65.5669 178.113 65.56 178.268 65.5778 178.422L65.8308 180.404C65.0615 180.928 64.2074 181.316 63.3054 181.55C59.4787 182.693 52.689 183.21 50.3383 183.304C47.7406 183.411 45.5359 182.985 45.3933 181.163C45.1895 178.559 48.8814 170.956 50.4649 167.415Z" fill="white"/>
</g>
<g style="mix-blend-mode:overlay" opacity="0.6">
<path d="M67.237 191.403L65.5778 178.422C65.4781 177.642 69.219 185.012 68.1096 188.77C67.3909 191.204 69.5273 191.556 70.6471 191.195C72.2181 190.688 73.7004 187.912 73.7004 187.912C73.7183 187.909 73.9194 189.834 73.9367 189.831L73.9552 189.974C74.0572 190.771 72.625 192.149 71.8274 192.251L68.8669 192.663C68.0687 192.765 67.339 192.201 67.237 191.403Z" fill="#030F1C"/>
</g>
<path d="M52.6338 179.711L52.6433 179.71L65.6159 178.166C65.7236 178.153 65.8026 178.058 65.7951 177.949C65.7675 177.536 66.0608 177.171 66.47 177.11L69.8357 176.616C69.9469 176.6 70.0241 176.496 70.008 176.385C69.9901 176.274 69.8875 176.197 69.7763 176.212L66.4112 176.706C65.8643 176.789 65.4436 177.232 65.39 177.782L52.5952 179.305C52.4854 179.319 52.4063 179.417 52.4167 179.527C52.4272 179.637 52.5235 179.718 52.6338 179.711Z" fill="#0B122D"/>
<path d="M70.5353 140.329L152.152 134.514L152.919 145.266L149.627 145.501L152.905 191.458L77.8735 196.804L74.5949 150.847L71.3024 151.081L70.5353 140.329Z" fill="#FFB66D"/>
<g style="mix-blend-mode:overlay" opacity="0.25">
<path d="M98.5304 138.334L70.5359 140.329L71.303 151.082L99.2975 149.087L98.5304 138.334Z" fill="black"/>
</g>
<g style="mix-blend-mode:overlay" opacity="0.6">
<path d="M149.627 145.5L74.5955 150.847L74.8289 154.119L149.861 148.773L149.627 145.5Z" fill="black"/>
</g>
<g style="mix-blend-mode:overlay" opacity="0.6">
<path d="M99.2975 149.087L74.5955 150.847L77.8735 196.804L102.576 195.044L99.2975 149.087Z" fill="black"/>
</g>
<path fill-rule="evenodd" clip-rule="evenodd" d="M80.2866 132.107C72.168 127.797 69.4973 123.671 69.4973 123.671L68.1378 130.746L77.4084 137.626C77.7047 136.64 78.0839 135.681 78.542 134.759L82.5423 136.025L80.2866 132.107ZM82.5423 136.025L83.1168 131.706C86.4768 129.879 86.4577 126.994 86.4577 126.994L89.6851 130.298L87.1493 137.087L84.7 134.294L82.5423 136.025Z" fill="#2D2B72"/>
<g style="mix-blend-mode:overlay" opacity="0.6">
<path d="M80.2866 132.107L82.5423 136.025L78.5421 134.759C78.9795 133.788 79.5685 132.893 80.2866 132.107Z" fill="#030F1C"/>
</g>
<g style="mix-blend-mode:overlay" opacity="0.6">
<path d="M83.1168 131.707L82.5422 136.025L84.7 134.294L83.1168 131.707Z" fill="#030F1C"/>
</g>
<path fill-rule="evenodd" clip-rule="evenodd" d="M82.8776 133.504L81.0801 133.485L82.5422 136.025L82.8776 133.504ZM149.839 174.888C150.156 175.291 150.668 175.49 151.174 175.406L152.882 175.084C153.419 174.983 153.814 174.525 153.835 173.98L153.85 173.594C153.864 173.249 153.724 172.916 153.469 172.683C153.213 172.451 152.868 172.344 152.525 172.389L150.803 172.619C150.292 172.671 149.85 172.996 149.65 173.468C149.449 173.941 149.521 174.485 149.839 174.888ZM149.231 168.791L151.373 168.171C151.68 168.061 152.02 168.088 152.305 168.248C152.59 168.407 152.792 168.681 152.859 169L152.928 169.352C153.023 169.852 152.752 170.35 152.28 170.541L150.171 171.241C149.792 171.39 149.366 171.362 149.011 171.163C148.656 170.965 148.409 170.617 148.338 170.216C148.24 169.586 148.62 168.979 149.231 168.791ZM151.096 176.301C150.422 176.279 149.826 176.731 149.666 177.385C149.555 177.836 149.672 178.313 149.977 178.662C150.283 179.011 150.739 179.19 151.201 179.141L152.553 179.031C153.03 178.993 153.418 178.63 153.487 178.156L153.585 177.493C153.627 177.2 153.541 176.902 153.348 176.677C153.156 176.452 152.875 176.32 152.578 176.317L151.096 176.301ZM150.65 180.542L151.905 180.6C152.169 180.612 152.411 180.745 152.563 180.961C152.715 181.176 152.758 181.449 152.681 181.701L152.478 182.365C152.368 182.721 152.039 182.965 151.666 182.966L150.384 182.972C149.941 182.934 149.555 182.659 149.373 182.255C149.191 181.85 149.243 181.379 149.508 181.023C149.774 180.668 150.21 180.483 150.65 180.542ZM89.6453 175.188L87.759 175.512L72.3478 177.836C72.4325 177.989 72.4901 178.155 72.5184 178.328L73.7321 188.166L88.2552 184.683L88.2674 184.709L93.4703 183.406C93.4703 183.406 104.573 183.12 106.488 181.873C108.403 180.626 107.083 179.652 107.083 179.652C107.083 179.652 110.217 178.379 108.717 176.683C108.717 176.683 111.508 175.857 110.404 173.601C110.404 173.601 113.843 173.17 113.264 171.472C112.685 169.775 100.122 171.493 100.122 171.493C100.122 171.493 105.648 165.044 103.388 163.384C101.192 165.847 98.5978 167.924 95.7128 169.528C90.9259 172.185 89.6453 175.188 89.6453 175.188Z" fill="#FFB7B6"/>
<path d="M106.413 173.978L109.952 173.726C110.064 173.717 110.149 173.62 110.141 173.508C110.133 173.395 110.035 173.311 109.923 173.319L106.384 173.571C106.271 173.579 106.187 173.677 106.195 173.789C106.203 173.901 106.3 173.986 106.413 173.978Z" fill="#030F1C"/>
<path d="M103.643 177.217L108.287 176.886C108.4 176.878 108.484 176.781 108.476 176.668C108.468 176.556 108.37 176.471 108.258 176.48L103.614 176.81C103.502 176.818 103.417 176.916 103.425 177.028C103.433 177.14 103.531 177.225 103.643 177.217Z" fill="#030F1C"/>
<path d="M103.435 180.068L106.556 179.846C106.669 179.838 106.753 179.74 106.745 179.628C106.737 179.516 106.64 179.431 106.527 179.439L103.406 179.661C103.294 179.669 103.209 179.767 103.217 179.879C103.225 179.991 103.323 180.076 103.435 180.068Z" fill="#030F1C"/>
<path d="M158.487 110.589C158.487 116.951 153.327 122.109 146.961 122.109C140.595 122.109 135.434 116.951 135.434 110.589C135.434 104.227 140.595 99.0693 146.961 99.0693C153.327 99.0693 158.487 104.227 158.487 110.589Z" fill="#08AC85"/>
<path d="M219 172.22C219 174.128 217.452 175.675 215.542 175.675C213.632 175.675 212.084 174.128 212.084 172.22C212.084 170.311 213.632 168.764 215.542 168.764C217.452 168.764 219 170.311 219 172.22Z" fill="#FFB66D"/>
<path d="M166.555 88.1256C166.555 90.3524 164.749 92.1575 162.521 92.1575C160.293 92.1575 158.487 90.3524 158.487 88.1256C158.487 85.8989 160.293 84.0938 162.521 84.0938C164.749 84.0938 166.555 85.8989 166.555 88.1256Z" fill="#FFB66D"/>
<path d="M29.9684 104.253C29.9684 106.48 28.1623 108.285 25.9342 108.285C23.7062 108.285 21.9 106.48 21.9 104.253C21.9 102.026 23.7062 100.221 25.9342 100.221C28.1623 100.221 29.9684 102.026 29.9684 104.253Z" fill="#08AC85"/>
<path fill-rule="evenodd" clip-rule="evenodd" d="M149.421 63.9723C167.159 63.9723 181.539 49.6515 181.539 31.9861C181.539 14.3207 167.159 0 149.421 0C131.682 0 117.302 14.3207 117.302 31.9861C117.302 38.0617 119.003 43.7417 121.956 48.5795L97.3973 85.8218L129.722 57.252C135.162 61.4639 141.997 63.9723 149.421 63.9723Z" fill="#D5F9EC"/>
<path d="M143.725 24.1914C144.722 24.1914 145.549 24.4516 146.203 24.9719C146.858 25.4597 147.357 26.1264 147.7 26.9719C148.043 27.7849 148.215 28.6955 148.215 29.7036C148.215 31.0369 147.95 32.3215 147.419 33.5573C146.92 34.793 146.219 35.8987 145.315 36.8743C144.41 37.85 143.382 38.6142 142.228 39.167L139.468 36.8743C140.31 36.5166 141.074 36.0776 141.76 35.5573C142.477 35.0369 143.085 34.4515 143.584 33.8011C144.083 33.1507 144.441 32.4841 144.66 31.8011L144.426 31.6548C144.27 31.7524 144.083 31.8337 143.865 31.8987C143.647 31.9963 143.335 32.0451 142.929 32.0451C142.431 32.0451 141.932 31.915 141.433 31.6548C140.934 31.3621 140.513 30.9557 140.17 30.4353C139.827 29.8825 139.656 29.1995 139.656 28.3865C139.656 27.5085 139.842 26.7605 140.217 26.1426C140.591 25.5248 141.09 25.0532 141.713 24.728C142.337 24.3702 143.008 24.1914 143.725 24.1914Z" fill="#08AC85"/>
<path d="M156.878 24.1914C157.877 24.1914 158.702 24.4516 159.357 24.9719C160.012 25.4597 160.511 26.1264 160.854 26.9719C161.197 27.7849 161.368 28.6955 161.368 29.7036C161.368 31.0369 161.103 32.3215 160.573 33.5573C160.075 34.793 159.373 35.8987 158.468 36.8743C157.565 37.85 156.535 38.6142 155.382 39.167L152.622 36.8743C153.464 36.5166 154.228 36.0776 154.914 35.5573C155.631 35.0369 156.239 34.4515 156.738 33.8011C157.237 33.1507 157.596 32.4841 157.814 31.8011L157.58 31.6548C157.424 31.7524 157.237 31.8337 157.019 31.8987C156.801 31.9963 156.489 32.0451 156.084 32.0451C155.585 32.0451 155.085 31.915 154.587 31.6548C154.088 31.3621 153.667 30.9557 153.324 30.4353C152.981 29.8825 152.81 29.1995 152.81 28.3865C152.81 27.5085 152.997 26.7605 153.371 26.1426C153.745 25.5248 154.244 25.0532 154.868 24.728C155.491 24.3702 156.161 24.1914 156.878 24.1914Z" fill="#08AC85"/>
</g>
<defs>
<clipPath id="clip0_50_438">
<rect width="219" height="307" fill="white"/>
</clipPath>
</defs>
</svg>
