<svg width="56" height="56" viewBox="0 0 56 56" fill="none" xmlns="http://www.w3.org/2000/svg">
<circle cx="28" cy="28" r="28" fill="url(#paint0_linear_11_31)"/>
<g clip-path="url(#clip0_11_31)">
<path fill-rule="evenodd" clip-rule="evenodd" d="M32.401 34.714C31.1895 36.0505 29.7928 37.2065 28.2535 38.1469C28.158 38.2182 28.043 38.2585 27.9239 38.2624C27.8048 38.2663 27.6874 38.2335 27.5875 38.1685C25.3958 36.7832 23.4498 35.043 21.8291 33.0193C19.712 30.3824 18.3882 27.4585 17.936 24.643C17.4758 21.7868 17.9063 19.0389 19.3276 16.8054C19.9071 15.9023 20.6326 15.1018 21.4745 14.4365C23.4805 12.8284 25.7682 11.9837 28.0558 12C30.3773 12.0392 32.5994 12.9483 34.2826 14.5475C34.9306 15.1414 35.4912 15.8241 35.9475 16.5753C37.4745 19.093 37.8047 22.3039 37.1333 25.558C36.3895 28.9741 34.7528 32.1316 32.3902 34.7086L32.401 34.714ZM17.8548 32.356C17.9866 32.349 18.1184 32.369 18.2422 32.4146C18.366 32.4602 18.4792 32.5306 18.575 32.6214C18.6707 32.7122 18.7469 32.8216 18.799 32.9428C18.8511 33.064 18.878 33.1946 18.878 33.3266C18.878 33.4585 18.8511 33.5891 18.799 33.7103C18.7469 33.8315 18.6707 33.9409 18.575 34.0317C18.4792 34.1225 18.366 34.1929 18.2422 34.2385C18.1184 34.2841 17.9866 34.3041 17.8548 34.2971H16.0301L13.6288 42.0507H41.5706L38.9635 34.289H37.4555C37.3237 34.296 37.1919 34.276 37.0681 34.2304C36.9443 34.1847 36.8311 34.1144 36.7354 34.0236C36.6396 33.9328 36.5634 33.8234 36.5113 33.7022C36.4592 33.581 36.4323 33.4504 36.4323 33.3184C36.4323 33.1865 36.4592 33.0559 36.5113 32.9347C36.5634 32.8134 36.6396 32.7041 36.7354 32.6133C36.8311 32.5225 36.9443 32.4521 37.0681 32.4065C37.1919 32.3609 37.3237 32.3409 37.4555 32.3479H40.3523L44.267 43.9892H11L14.6061 32.3479L17.8548 32.356ZM27.6173 16.5861L21.8535 22.0548L23.2071 22.7695L27.5794 18.3783L32.0166 22.7695L33.3702 22.0548L27.6173 16.5861ZM23.6944 23.5492L27.6227 19.621L31.5401 23.5492V27.4044H28.6785V24.6971H26.5316V27.4044H23.6944V23.5492Z" fill="white"/>
</g>
<defs>
<linearGradient id="paint0_linear_11_31" x1="-2.45341" y1="-2.88462" x2="73.9286" y2="15.9783" gradientUnits="userSpaceOnUse">
<stop stop-color="#34AD82"/>
<stop offset="1" stop-color="#019298"/>
</linearGradient>
<clipPath id="clip0_11_31">
<rect width="33.267" height="32" fill="white" transform="translate(11 12)"/>
</clipPath>
</defs>
</svg>
