<svg width="56" height="56" viewBox="0 0 56 56" fill="none" xmlns="http://www.w3.org/2000/svg">
<circle cx="28" cy="28" r="28" fill="url(#paint0_linear_11_50)"/>
<g clip-path="url(#clip0_11_50)">
<path fill-rule="evenodd" clip-rule="evenodd" d="M27.9193 16.7422C29.3933 16.7427 30.8341 17.1803 32.0594 17.9995C33.2847 18.8188 34.2396 19.983 34.8033 21.3449C35.367 22.7068 35.5142 24.2053 35.2263 25.6509C34.9385 27.0965 34.2284 28.4243 33.186 29.4664C32.1435 30.5085 30.8155 31.218 29.3698 31.5054C27.9241 31.7928 26.4257 31.645 25.064 31.0808C23.7022 30.5167 22.5384 29.5614 21.7195 28.3358C20.9007 27.1102 20.4636 25.6693 20.4636 24.1953C20.4636 23.2163 20.6565 22.2469 21.0312 21.3425C21.4059 20.4381 21.9551 19.6164 22.6475 18.9242C23.3399 18.2321 24.1618 17.6832 25.0664 17.3088C25.9709 16.9344 26.9404 16.7418 27.9193 16.7422ZM28.2735 42.1302C29.8453 41.1144 31.2784 39.8985 32.5365 38.513C35.2024 35.6119 37.05 32.0549 37.8907 28.2057C38.6225 24.6458 38.2813 21.1745 36.6537 18.4818C36.181 17.7035 35.5996 16.9967 34.9272 16.3828C32.9584 14.5859 30.7136 13.7292 28.4298 13.7083C26.0443 13.6901 23.6225 14.6042 21.4818 16.2969C20.5984 16.9948 19.8386 17.8364 19.2344 18.7865C17.7318 21.1536 17.2787 24.0911 17.7735 27.1667C18.2787 30.2917 19.7709 33.5755 22.1407 36.5417C23.8811 38.7129 25.9503 40.5985 28.2735 42.1302ZM33.8048 39.6641C32.3315 41.2842 30.6358 42.687 28.7683 43.8307C28.6296 43.9324 28.4636 43.99 28.2917 43.996C28.1199 44.0021 27.9502 43.9563 27.8048 43.8646C25.1392 42.1842 22.7718 40.0721 20.7996 37.6146C18.2475 34.4115 16.6329 30.8437 16.086 27.4323C15.5235 23.9505 16.0522 20.5937 17.7865 17.8672C18.4946 16.7567 19.3836 15.7726 20.4167 14.9557C22.8621 13.0078 25.6615 11.9766 28.4454 12C31.1303 12.0234 33.7839 13.0234 36.0782 15.125C36.8711 15.8517 37.5567 16.6873 38.1147 17.6068C39.9766 20.6797 40.3829 24.5937 39.5652 28.5573C38.6629 32.7076 36.6751 36.5439 33.8048 39.6745V39.6641ZM25.2449 27.9219V20.3698H28.3699C29.1824 20.3698 29.7683 20.5495 30.1225 20.9088C30.3038 21.107 30.4434 21.3396 30.5329 21.5928C30.6223 21.8461 30.6599 22.1147 30.6433 22.3828C30.6495 22.648 30.6099 22.9123 30.5261 23.1641C30.4557 23.3706 30.338 23.5579 30.1824 23.7109C30.0217 23.8618 29.8226 23.9654 29.6068 24.0104C29.7817 24.0583 29.9491 24.1302 30.1042 24.224C30.2632 24.3228 30.402 24.4509 30.5131 24.6016C30.6294 24.7683 30.7174 24.953 30.7735 25.1484C30.8411 25.3801 30.8736 25.6206 30.8699 25.862C30.8884 26.2771 30.7987 26.6899 30.6094 27.0599C30.4316 27.3638 30.1563 27.5987 29.8282 27.7266C29.4107 27.8754 28.9693 27.946 28.5261 27.9349L25.2449 27.9219ZM27.2162 26.1536H28.4662C28.5774 26.1574 28.687 26.1255 28.7787 26.0625C28.8626 26.0069 28.9287 25.9282 28.9688 25.8359C29.0556 25.6096 29.0556 25.3591 28.9688 25.1328C28.9287 25.0405 28.8626 24.9618 28.7787 24.9062C28.6882 24.8476 28.5818 24.8185 28.474 24.8229H27.224V26.1458L27.2162 26.1536ZM27.2162 23.3385H28.3699C28.4357 23.3429 28.5015 23.3289 28.5599 23.2981C28.6183 23.2673 28.667 23.2209 28.7006 23.1641C28.7764 23.0349 28.8134 22.8866 28.8074 22.737C28.817 22.6534 28.81 22.5687 28.7868 22.4878C28.7635 22.4069 28.7245 22.3314 28.6719 22.2656C28.5918 22.1853 28.4834 22.1395 28.3699 22.138H27.224V23.3385H27.2162Z" fill="white"/>
</g>
<defs>
<linearGradient id="paint0_linear_11_50" x1="-13.1511" y1="3.0439" x2="69.5918" y2="57.1452" gradientUnits="userSpaceOnUse">
<stop stop-color="#443FEB"/>
<stop offset="1" stop-color="#CD23C6"/>
</linearGradient>
<clipPath id="clip0_11_50">
<rect width="24.0964" height="32" fill="white" transform="translate(15.8699 12)"/>
</clipPath>
</defs>
</svg>
