<svg width="56" height="56" viewBox="0 0 56 56" fill="none" xmlns="http://www.w3.org/2000/svg">
<circle cx="28" cy="28" r="28" fill="url(#paint0_linear_11_59)"/>
<g clip-path="url(#clip0_11_59)">
<path d="M27.7938 31.1712L16.8568 25.4345L14.0336 28.782C17.9862 30.8716 21.6531 32.8453 25.6076 34.9355L27.7938 31.1712ZM36.3436 15.6733L36.383 23.5702C36.385 23.9825 36.1253 24.3369 35.7557 24.4858L35.7563 24.4877L28.8946 27.5355C28.6325 27.6399 28.1514 27.6558 27.8956 27.5482L21.571 24.6162L21.5716 24.6143C21.2064 24.461 20.9493 24.0964 20.9512 23.6714L20.9888 15.875C20.9602 15.3933 21.158 14.925 21.6321 14.7341L28.2322 12.0757C28.5014 11.9676 28.7903 11.9796 29.0359 12.0853L35.6252 14.4682C36.0197 14.6107 36.2691 14.9651 36.287 15.3488C36.3245 15.4531 36.3436 15.5632 36.3436 15.6733ZM27.7264 26.0224V18.6116L21.9273 16.3274L21.816 23.4932L27.7264 26.0224ZM29.0989 18.6129V26.0161L35.379 23.4124L35.3434 16.1995L29.0989 18.6129ZM19.2206 23.777L17.5993 24.5806L28.5014 30.3097L39.4245 24.5698L38.1137 23.8883L38.108 22.6387L39.7534 23.4881L42.8331 20.5688L38.0845 18.0002L38.0781 16.678L44.355 19.9962C44.3919 20.0159 44.4263 20.0414 44.4575 20.0732C44.6197 20.238 44.6172 20.5027 44.453 20.6649L40.6983 24.3516L44.334 28.7031C44.4817 28.88 44.4581 29.1447 44.2819 29.2929C44.2545 29.3152 44.2259 29.3343 44.196 29.3483L40.9325 31.0739V37.5424C40.9325 37.7161 40.8249 37.8662 40.6735 37.9292L28.873 43.9192C28.5943 44.0509 28.488 44.0216 28.1883 43.8263L16.3662 37.9159C16.2968 37.8812 16.2384 37.8279 16.1976 37.762C16.1568 37.696 16.1352 37.6199 16.1352 37.5424L16.1327 31.1057L12.8081 29.3483C12.7782 29.3343 12.7502 29.3152 12.7228 29.2929C12.5459 29.1447 12.5224 28.88 12.6706 28.7031L16.2122 24.4654L12.1031 20.5714C11.951 20.3983 11.9695 20.1343 12.1432 19.9816C12.1686 19.9599 12.1953 19.9408 12.2227 19.9262L19.2581 15.9462L19.2517 17.2913L13.6123 20.4995L16.9617 23.6135L19.2269 22.4917L19.2206 23.777ZM40.2097 25.4771L29.2923 31.2024L31.4188 34.9756L42.905 28.7445L40.2097 25.4771Z" fill="white"/>
</g>
<defs>
<linearGradient id="paint0_linear_11_59" x1="-8.73778" y1="1.87515" x2="63.4161" y2="53.5675" gradientUnits="userSpaceOnUse">
<stop stop-color="#DE16BE"/>
<stop offset="1" stop-color="#F10C0C"/>
</linearGradient>
<clipPath id="clip0_11_59">
<rect width="32.5777" height="32" fill="white" transform="translate(12 12)"/>
</clipPath>
</defs>
</svg>
