<svg width="56" height="56" viewBox="0 0 56 56" fill="none" xmlns="http://www.w3.org/2000/svg">
<circle cx="28" cy="28" r="28" fill="url(#paint0_linear_11_40)"/>
<g clip-path="url(#clip0_11_40)">
<path fill-rule="evenodd" clip-rule="evenodd" d="M28.0604 23.4583H28.0239L26.7219 20.8255H25.6802L23.7114 23.4297L25.0656 20.9063C22.1385 21.8958 18.6854 26.263 17.4015 28.8151C15.3911 32.8151 14.9328 33.2995 14.1203 38.9714C13.9562 40.1172 14.4849 39.9557 13.5422 40.2083C12.5291 40.4688 12.0057 41.0781 12.6307 42.7552C13.6281 42.9063 14.8937 42.6042 15.9823 42.7552C17.8364 43.0156 19.9745 43.4271 22.1281 43.7136C27.0187 44.3646 31.0083 43.7787 36.3052 42.7031L39.9146 42.7526C40.2922 41.3854 40.1047 40.7057 39.1333 40.263C37.8312 39.6667 38.4172 40.0599 38.2531 38.3646C37.589 31.474 36.7661 31.6953 33.714 26.9557C32.3651 24.8412 30.1203 21.375 27.4953 20.8854L28.0604 23.4583ZM17.3078 36.5938C17.3168 36.517 17.3409 36.4427 17.3787 36.3753C17.4165 36.3078 17.4671 36.2485 17.5278 36.2006C17.5885 36.1527 17.658 36.1172 17.7324 36.0962C17.8068 36.0752 17.8847 36.0691 17.9614 36.0781C18.0382 36.0872 18.1124 36.1113 18.1799 36.149C18.2474 36.1868 18.3067 36.2375 18.3546 36.2982C18.4025 36.3589 18.438 36.4284 18.459 36.5028C18.48 36.5772 18.4861 36.655 18.4771 36.7318C18.4224 37.2005 18.3651 37.6771 18.3338 38.099C18.2993 38.4558 18.2993 38.8151 18.3338 39.1719C18.3486 39.25 18.3473 39.3303 18.3302 39.4079C18.313 39.4855 18.2804 39.5588 18.2341 39.6234C18.1879 39.6881 18.129 39.7427 18.0611 39.784C17.9932 39.8252 17.9176 39.8523 17.8389 39.8636C17.7602 39.8748 17.6801 39.87 17.6033 39.8495C17.5265 39.8289 17.4547 39.7931 17.3922 39.744C17.3297 39.6949 17.2777 39.6337 17.2395 39.564C17.2013 39.4944 17.1775 39.4177 17.1698 39.3386C17.1195 38.901 17.1143 38.4595 17.1541 38.0208C17.1854 37.5469 17.2427 37.0651 17.3 36.5938H17.3078ZM34.0422 35.5156C34.0262 35.4385 34.0258 35.3589 34.0412 35.2815C34.0565 35.2042 34.0873 35.1308 34.1315 35.0656C34.1758 35.0004 34.2327 34.9447 34.2989 34.9019C34.3651 34.8591 34.4392 34.8301 34.5168 34.8165C34.5945 34.8029 34.6741 34.805 34.7509 34.8227C34.8277 34.8404 34.9001 34.8734 34.9639 34.9197C35.0277 34.9659 35.0816 35.0246 35.1223 35.092C35.1631 35.1595 35.1898 35.2345 35.201 35.3125C35.3063 36.0436 35.3464 36.7826 35.3208 37.5208C35.3304 38.175 35.2525 38.8275 35.089 39.4609C35.0622 39.5341 35.0212 39.6013 34.9684 39.6587C34.9156 39.716 34.852 39.7624 34.7813 39.7951C34.7105 39.8279 34.634 39.8464 34.5561 39.8496C34.4783 39.8528 34.4005 39.8407 34.3273 39.8138C34.2541 39.787 34.187 39.746 34.1296 39.6932C34.0723 39.6404 34.0259 39.5768 33.9931 39.506C33.9604 39.4353 33.9418 39.3588 33.9386 39.2809C33.9354 39.203 33.9476 39.1253 33.9745 39.0521C34.0911 38.5397 34.1454 38.015 34.1359 37.4896C34.1581 36.8281 34.1232 36.1659 34.0317 35.5104L34.0422 35.5156ZM24.1906 17C23.7427 15.6771 23.3364 14.3438 22.9979 12.9818C24.2687 11.5859 29.1802 11.7708 30.589 12.9583L29.287 16.0833C29.9901 15.1589 30.2271 14.7813 30.6463 14.2604C30.8223 14.3762 30.9886 14.506 31.1437 14.6484C31.5161 14.9844 31.8521 15.3594 31.925 15.875C31.9439 16.0617 31.9224 16.2502 31.8617 16.4278C31.801 16.6053 31.7027 16.7676 31.5734 16.9037L28.563 20.388C28.1783 20.327 27.8 20.2312 27.4328 20.1016C27.6021 19.7031 27.8078 19.2604 27.9771 18.862L26.8859 20.0417C25.9067 19.7962 24.8713 19.9224 23.9797 20.3958L20.9354 16.75C20.7731 16.5704 20.6807 16.3384 20.675 16.0964C20.675 15.2135 21.9927 14.4505 22.6828 14.1615L24.1932 17.0078L24.1906 17Z" fill="white"/>
</g>
<defs>
<linearGradient id="paint0_linear_11_40" x1="-25.2" y1="-0.748983" x2="83.5117" y2="43.2827" gradientUnits="userSpaceOnUse">
<stop stop-color="#F07D1E"/>
<stop offset="1" stop-color="#E94630"/>
</linearGradient>
<clipPath id="clip0_11_40">
<rect width="27.737" height="32" fill="white" transform="translate(12.3599 12)"/>
</clipPath>
</defs>
</svg>
