<svg width="158" height="41" viewBox="0 0 158 41" fill="none" xmlns="http://www.w3.org/2000/svg">
<g clip-path="url(#clip0_2_1217)">
<path fill-rule="evenodd" clip-rule="evenodd" d="M34.5059 1.36594e-05C34.8332 -0.00167062 35.1413 0.152493 35.3336 0.414167L46.7657 15.9727H49.9856C50.8711 15.9727 51.6829 16.4603 52.0906 17.2369L59.5541 31.4567C60.6414 33.5282 59.0337 35.9818 56.6754 35.8499L52.4122 35.6115C52.4251 35.7562 52.4317 35.9027 52.4317 36.0507C52.4317 38.7841 50.1887 41 47.4218 41C44.6549 41 42.4119 38.7841 42.4119 36.0507L27.3658 36.0506C27.3658 38.784 25.1228 41 22.3559 41C19.589 41 17.346 38.7841 17.346 36.0507L11.3573 36.0506C10.7961 36.0506 10.3412 35.6012 10.3412 35.0467C10.3412 34.4923 10.7961 34.0428 11.3573 34.0428H17.7753C18.5549 32.3098 20.3125 31.1014 22.3559 31.1014C24.3992 31.1014 26.1568 32.3098 26.9363 34.0428H42.8413C43.6208 32.3098 45.3785 31.1014 47.4218 31.1014C49.271 31.1014 50.8862 32.0911 51.7542 33.5636L56.7902 33.8452C57.5764 33.8892 58.1122 33.0714 57.7498 32.3808L50.2863 18.1611C50.2281 18.0502 50.1121 17.9805 49.9856 17.9805H38.9538C38.7667 17.9805 38.615 18.1304 38.615 18.3151V21.6493C38.6151 21.6569 38.6151 21.6645 38.615 21.6721V29.358C38.615 29.9124 38.1601 30.3619 37.5989 30.3619C37.0376 30.3619 36.5827 29.9124 36.5827 29.358V21.9924L22.3197 2.94122L9.20853 20.5824C9.01711 20.84 8.71292 20.9922 8.38944 20.9922H1.01618C0.454962 20.9922 0 20.5427 0 19.9883C0 19.4339 0.454962 18.9844 1.01618 18.9844H7.87487L21.4975 0.654852C21.6887 0.397748 21.992 0.245649 22.3149 0.245093C22.6378 0.244535 22.9417 0.395585 23.1337 0.652028L36.5827 18.6159V18.3151C36.5827 17.0215 37.6443 15.9727 38.9538 15.9727H44.2543L34.5203 2.72517L31.5054 6.91951C31.1804 7.37156 30.5461 7.47781 30.0885 7.1568C29.6309 6.8358 29.5233 6.20911 29.8483 5.75705L33.6826 0.422662C33.8722 0.159023 34.1786 0.00169794 34.5059 1.36594e-05ZM6.77457 29.7132C6.77457 29.1588 7.22953 28.7093 7.79075 28.7093H19.3075C19.8688 28.7093 20.3237 29.1588 20.3237 29.7132C20.3237 30.2676 19.8688 30.7171 19.3075 30.7171H7.79075C7.22953 30.7171 6.77457 30.2676 6.77457 29.7132ZM2.03237 24.6731C2.03237 24.1187 2.48734 23.6692 3.04856 23.6692H21.0012C21.5624 23.6692 22.0174 24.1187 22.0174 24.6731C22.0174 25.2276 21.5624 25.677 21.0012 25.677H3.04856C2.48734 25.677 2.03237 25.2276 2.03237 24.6731ZM50.3993 36.0507C50.3993 37.6753 49.0662 38.9922 47.4218 38.9922C45.7773 38.9922 44.4443 37.6753 44.4443 36.0507C44.4443 34.4261 45.7773 33.1092 47.4218 33.1092C49.0662 33.1092 50.3993 34.4261 50.3993 36.0507ZM22.3559 38.9922C24.0003 38.9922 25.3334 37.6753 25.3334 36.0507C25.3334 34.4261 24.0003 33.1092 22.3559 33.1092C20.7114 33.1092 19.3784 34.4261 19.3784 36.0507C19.3784 37.6753 20.7114 38.9922 22.3559 38.9922ZM45.9454 25.4361V22.3513H47.8439L49.3861 25.4361H45.9454ZM45.6066 20.3435C44.6713 20.3435 43.913 21.0926 43.913 22.0167V25.7707C43.913 26.6948 44.6713 27.4439 45.6066 27.4439H49.9312C51.1866 27.4439 52.0056 26.1418 51.4497 25.0298L49.5729 21.2758C49.2875 20.7049 48.6989 20.3435 48.0544 20.3435H45.6066Z" fill="url(#paint0_linear_2_1217)"/>
<path d="M78.3749 7.62418V19.1391H75.7358V13.8527L75.8226 10.311H75.7879L72.9578 19.1391H70.5444L67.7143 10.311H67.6795L67.7663 13.8527V19.1391H65.1099V7.62418H69.3637L71.1694 13.4863L71.8118 15.9288H71.8466L72.5063 13.5037L74.2947 7.62418H78.3749Z" fill="#070713"/>
<path d="M86.0519 7.44971C87.2091 7.44971 88.2048 7.68814 89.0382 8.16503C89.8829 8.63027 90.5314 9.3049 90.9829 10.1888C91.4343 11.0729 91.66 12.1371 91.66 13.3816C91.66 14.6262 91.4343 15.6904 90.9829 16.5744C90.5314 17.4584 89.8829 18.1388 89.0382 18.6156C88.2048 19.081 87.2091 19.3135 86.0519 19.3135C84.8945 19.3135 83.8933 19.081 83.0482 18.6156C82.2033 18.1388 81.555 17.4584 81.1036 16.5744C80.6522 15.6904 80.4265 14.6262 80.4265 13.3816C80.4265 12.1371 80.6522 11.0729 81.1036 10.1888C81.555 9.3049 82.2033 8.63027 83.0482 8.16503C83.8933 7.68814 84.8945 7.44971 86.0519 7.44971ZM86.0519 9.80501C85.4963 9.80501 85.0276 9.93874 84.6456 10.2063C84.2636 10.4738 83.9742 10.8751 83.7774 11.4101C83.5807 11.9335 83.4823 12.5907 83.4823 13.3816C83.4823 14.161 83.5807 14.8181 83.7774 15.3531C83.9742 15.8882 84.2636 16.2895 84.6456 16.5569C85.0276 16.8245 85.4963 16.9582 86.0519 16.9582C86.6076 16.9582 87.0702 16.8245 87.4409 16.5569C87.8229 16.2895 88.1119 15.8882 88.309 15.3531C88.5061 14.8181 88.6042 14.161 88.6042 13.3816C88.6042 12.5907 88.5061 11.9335 88.309 11.4101C88.1119 10.8751 87.8229 10.4738 87.4409 10.2063C87.0702 9.93874 86.6076 9.80501 86.0519 9.80501Z" fill="#070713"/>
<path d="M103.732 7.62418V14.4459C103.732 16.0743 103.298 17.2955 102.43 18.1097C101.574 18.9122 100.3 19.3135 98.6102 19.3135C96.9321 19.3135 95.6586 18.9122 94.7904 18.1097C93.9223 17.2955 93.4883 16.0743 93.4883 14.4459V7.62418H96.492V14.4982C96.492 15.324 96.6656 15.9405 97.0129 16.3476C97.3723 16.7547 97.9044 16.9582 98.6102 16.9582C99.3282 16.9582 99.8603 16.7547 100.208 16.3476C100.567 15.9405 100.746 15.324 100.746 14.4982V7.62418H103.732Z" fill="#070713"/>
<path d="M116.371 7.62418V19.1391H113.055L109.496 12.9105L108.628 11.2008H108.61L108.68 13.3293V19.1391H106.041V7.62418H109.357L112.916 13.8527L113.784 15.5625H113.802L113.732 13.4339V7.62418H116.371Z" fill="#070713"/>
<path d="M128.547 7.62418V9.94458H124.814V19.1391H121.828V9.94458H118.077V7.62418H128.547Z" fill="#070713"/>
<path d="M139.23 19.1391H136.157L135.358 16.5395H131.434L130.618 19.1391H127.615L131.643 7.62418H135.219L139.23 19.1391ZM131.99 14.4982H134.803L133.396 9.8399L131.99 14.4982Z" fill="#070713"/>
<path d="M143.549 7.62418V19.1391H140.563V7.62418H143.549Z" fill="#070713"/>
<path d="M156.421 7.62418V19.1391H153.105L149.545 12.9105L148.677 11.2008H148.66L148.729 13.3293V19.1391H146.09V7.62418H149.406L152.966 13.8527L153.834 15.5625H153.851L153.782 13.4339V7.62418H156.421Z" fill="#070713"/>
<path d="M64.2418 33.3583L66.8982 21.8434H70.6659L71.2215 27.4264L71.3778 30.2702H71.3952L72.7842 27.4264L75.8226 21.8434H80.0939L77.4374 33.3583H74.7982L76.0136 28.0719L76.8297 24.6698H76.7949L71.9855 33.3583H69.6936L68.756 24.7396H68.7213L68.0963 28.0719L66.8809 33.3583H64.2418Z" fill="#08AC85"/>
<path d="M90.0131 33.5328C89.0643 33.5328 88.2014 33.335 87.4261 32.9396C86.6505 32.5441 86.037 31.9683 85.5856 31.2123C85.1342 30.4447 84.9084 29.5258 84.9084 28.4558C84.9084 27.5019 85.0416 26.6121 85.3078 25.7864C85.5856 24.9605 85.9849 24.2394 86.5058 23.623C87.0381 23.0065 87.6866 22.5296 88.4505 22.1923C89.2258 21.8434 90.106 21.6689 91.0896 21.6689C92.0507 21.6689 92.9127 21.8725 93.6767 22.2796C94.4406 22.675 95.0483 23.2508 95.4997 24.0068C95.9512 24.7512 96.1769 25.6643 96.1769 26.746C96.1769 27.6997 96.038 28.5895 95.7602 29.4153C95.4937 30.2295 95.0943 30.9506 94.5622 31.5787C94.0413 32.1951 93.3989 32.6779 92.6349 33.0268C91.871 33.3641 90.9967 33.5328 90.0131 33.5328ZM90.1173 31.1775C90.6382 31.1775 91.0836 31.0379 91.4542 30.7587C91.8362 30.4796 92.1548 30.1132 92.4092 29.6596C92.6636 29.1943 92.8545 28.6883 92.9822 28.1417C93.1098 27.595 93.1731 27.06 93.1731 26.5366C93.1731 26.0015 93.0863 25.5479 92.9127 25.1758C92.7391 24.8035 92.4899 24.5185 92.1661 24.3209C91.8423 24.1231 91.443 24.0243 90.9681 24.0243C90.4585 24.0243 90.0132 24.1638 89.6312 24.443C89.2492 24.7221 88.9306 25.0943 88.6762 25.5596C88.4219 26.0132 88.2309 26.5133 88.1033 27.06C87.9756 27.595 87.9123 28.13 87.9123 28.6651C87.9123 29.2001 87.9991 29.6537 88.1727 30.026C88.3463 30.3981 88.5955 30.6831 88.9193 30.8809C89.2553 31.0785 89.6546 31.1775 90.1173 31.1775Z" fill="#08AC85"/>
<path d="M113.063 21.8434L106.465 33.3583H102.958L101.69 21.8434H104.538L105.059 28.7349L105.163 31.003L106.205 28.7523L110.007 21.8434H113.063Z" fill="#08AC85"/>
<path d="M115.86 33.3583L118.516 21.8434H127.441L126.885 24.1638H120.965L120.426 26.5017H125.097L124.593 28.6826H119.923L119.385 31.0379H125.496L124.958 33.3583H115.86Z" fill="#08AC85"/>
<path d="M130.895 33.3583L133.552 21.8434H138.465C139.646 21.8434 140.577 22.1342 141.261 22.7158C141.955 23.2857 142.302 24.0882 142.302 25.1234C142.302 25.9609 142.105 26.6703 141.712 27.2519C141.33 27.8334 140.809 28.287 140.149 28.6128C139.49 28.9268 138.743 29.1013 137.91 29.1362L137.25 29.2932H134.507L134.993 27.1647H137.267C137.719 27.1647 138.095 27.0891 138.396 26.9379C138.708 26.7866 138.945 26.5773 139.108 26.3098C139.27 26.0306 139.351 25.7282 139.351 25.4026C139.351 24.9489 139.201 24.6232 138.899 24.4255C138.598 24.2162 138.211 24.1115 137.736 24.1115H135.965L133.829 33.3583H130.895ZM138.309 33.3583L136.434 28.3685L139.142 27.9498L141.33 33.3583H138.309Z" fill="#08AC85"/>
<path d="M152.334 33.5502C151.524 33.5502 150.76 33.4455 150.042 33.2362C149.325 33.0151 148.676 32.6953 148.097 32.2766C147.53 31.8579 147.044 31.3286 146.639 30.6889L148.392 28.9617C148.67 29.4502 149.017 29.8689 149.434 30.2179C149.863 30.5551 150.326 30.8111 150.823 30.9855C151.321 31.1483 151.819 31.2298 152.316 31.2298C152.676 31.2298 152.965 31.1775 153.184 31.0728C153.416 30.9681 153.59 30.8285 153.705 30.6541C153.822 30.4796 153.879 30.2934 153.879 30.0958C153.879 29.8398 153.787 29.6421 153.601 29.5026C153.416 29.3513 153.138 29.2176 152.768 29.1013L151.049 28.543C150.528 28.3685 150.054 28.1417 149.625 27.8626C149.208 27.5717 148.879 27.217 148.635 26.7983C148.392 26.3796 148.271 25.8968 148.271 25.3502C148.271 24.5709 148.468 23.9079 148.861 23.3613C149.267 22.8146 149.816 22.3959 150.511 22.1051C151.217 21.8143 152.021 21.6689 152.924 21.6689C154.117 21.6689 155.124 21.8841 155.945 22.3145C156.767 22.7332 157.444 23.3264 157.977 24.0941L156.153 25.7689C155.91 25.3618 155.615 25.0303 155.268 24.7745C154.933 24.5069 154.562 24.3092 154.157 24.1813C153.752 24.0533 153.341 23.9894 152.924 23.9894C152.577 23.9894 152.288 24.0359 152.056 24.1289C151.825 24.2219 151.651 24.3499 151.535 24.5128C151.431 24.664 151.379 24.8443 151.379 25.0536C151.379 25.2862 151.489 25.5014 151.709 25.6992C151.94 25.8852 152.242 26.0364 152.611 26.1528L154.33 26.7111C155.199 26.9902 155.858 27.3741 156.31 27.8626C156.761 28.3394 156.987 28.9675 156.987 29.7468C156.987 30.5377 156.779 31.2181 156.362 31.7881C155.957 32.358 155.402 32.7942 154.695 33.0966C153.989 33.399 153.202 33.5502 152.334 33.5502Z" fill="#08AC85"/>
</g>
<defs>
<linearGradient id="paint0_linear_2_1217" x1="1.90594" y1="22.3637" x2="59.9011" y2="22.3637" gradientUnits="userSpaceOnUse">
<stop stop-color="#1DC78A"/>
<stop offset="1" stop-color="#2F9E9E"/>
</linearGradient>
<clipPath id="clip0_2_1217">
<rect width="158" height="41" fill="white"/>
</clipPath>
</defs>
</svg>
