<svg width="101" height="31" viewBox="0 0 101 31" fill="none" xmlns="http://www.w3.org/2000/svg">
<path d="M28.6878 23.3846C27.7146 23.3846 26.887 23.2257 26.1918 22.9079C25.5032 22.5901 24.967 22.1266 24.5829 21.5109C24.1989 20.8951 23.9871 20.1338 23.9474 19.2267C23.9341 18.8096 23.9341 18.3594 23.9341 17.8761C23.9341 17.3927 23.9407 16.9359 23.9474 16.4923C23.9871 15.6051 24.2056 14.8504 24.5896 14.228C24.9802 13.6123 25.5231 13.1356 26.2183 12.8178C26.9135 12.4934 27.7344 12.3345 28.6878 12.3345C29.3632 12.3345 29.9855 12.4205 30.5615 12.5861C31.1375 12.7582 31.6341 13.0032 32.0644 13.321C32.4948 13.6454 32.8324 14.0294 33.0708 14.4862C33.3091 14.9431 33.4349 15.4529 33.4482 16.0289C33.4614 16.1216 33.4283 16.1944 33.3621 16.2606C33.2959 16.3202 33.2164 16.3533 33.1238 16.3533H31.0515C30.919 16.3533 30.8131 16.3268 30.7469 16.2672C30.6741 16.2142 30.6145 16.1083 30.5615 15.9494C30.4159 15.4065 30.1841 15.0358 29.8663 14.8371C29.5485 14.6385 29.1447 14.5392 28.6746 14.5392C28.1118 14.5392 27.6682 14.6981 27.3372 15.0093C27.0128 15.3204 26.834 15.8435 26.8009 16.5652C26.7678 17.406 26.7678 18.2667 26.8009 19.1406C26.834 19.8689 27.0128 20.3853 27.3372 20.6965C27.6616 21.0077 28.1118 21.1666 28.6746 21.1666C29.1447 21.1666 29.5419 21.0673 29.873 20.862C30.1974 20.6568 30.4291 20.286 30.5615 19.7564C30.6012 19.6041 30.6608 19.4982 30.7403 19.4386C30.8197 19.3856 30.919 19.3525 31.0581 19.3525H33.1304C33.2231 19.3525 33.3025 19.3856 33.3687 19.4452C33.4349 19.5048 33.4614 19.5842 33.4548 19.6769C33.4416 20.2529 33.3224 20.7627 33.0774 21.2196C32.8391 21.6764 32.5014 22.067 32.0711 22.3848C31.6407 22.7092 31.1375 22.9542 30.5681 23.1197C29.9855 23.2985 29.3632 23.3846 28.6878 23.3846Z" fill="#15184F"/>
<path d="M34.8319 23.2322C34.7194 23.2322 34.6267 23.1991 34.5538 23.1263C34.481 23.0535 34.4479 22.9608 34.4479 22.8482V15.6316C34.4479 15.5323 34.481 15.4396 34.5538 15.3601C34.6267 15.2807 34.7194 15.2476 34.8319 15.2476H36.5997C36.7122 15.2476 36.8049 15.2873 36.8777 15.3601C36.9506 15.4396 36.9837 15.5256 36.9837 15.6316V16.2473C37.2617 15.9295 37.5928 15.6845 37.9768 15.5124C38.3608 15.3402 38.7911 15.2542 39.2745 15.2542H39.9498C40.0491 15.2542 40.1418 15.2873 40.2212 15.3601C40.3007 15.4329 40.3338 15.5256 40.3338 15.6382V17.2139C40.3338 17.3132 40.2941 17.4059 40.2212 17.4854C40.1418 17.5648 40.0557 17.5979 39.9498 17.5979H38.4601C38.043 17.5979 37.7186 17.7105 37.4868 17.9422C37.2551 18.1739 37.1426 18.4984 37.1426 18.9155V22.8416C37.1426 22.9541 37.1028 23.0468 37.03 23.1197C36.9506 23.1925 36.8579 23.2256 36.7453 23.2256H34.8319V23.2322Z" fill="#15184F"/>
<path d="M44.7035 23.3844C43.4985 23.3844 42.5319 23.06 41.8168 22.4045C41.1018 21.749 40.7244 20.7758 40.6979 19.4914C40.6979 19.4185 40.6979 19.3258 40.6979 19.2133C40.6979 19.1007 40.6979 19.0147 40.6979 18.9551C40.731 18.1473 40.9098 17.4522 41.2408 16.8761C41.5719 16.3001 42.0353 15.8565 42.6246 15.5586C43.2138 15.2541 43.9024 15.1084 44.6903 15.1084C45.5907 15.1084 46.3322 15.2872 46.9215 15.6447C47.5107 16.0022 47.9543 16.4921 48.2522 17.1013C48.5502 17.717 48.6958 18.4188 48.6958 19.2067V19.5774C48.6958 19.69 48.6561 19.7827 48.5833 19.8555C48.5038 19.9283 48.4178 19.9614 48.3118 19.9614H43.3992C43.3992 19.9747 43.3992 19.9879 43.3992 20.0078C43.3992 20.0276 43.3992 20.0475 43.3992 20.0674C43.4125 20.3653 43.4588 20.6367 43.5515 20.8817C43.6442 21.1267 43.7898 21.3187 43.9818 21.4643C44.1738 21.61 44.4122 21.6762 44.6903 21.6762C44.8955 21.6762 45.0677 21.6431 45.2067 21.5769C45.3457 21.5107 45.4583 21.4312 45.551 21.3452C45.6437 21.2591 45.7165 21.1863 45.7628 21.1201C45.8555 21.0208 45.9284 20.9545 45.9879 20.9281C46.0409 20.9016 46.1336 20.8883 46.2594 20.8883H48.1596C48.2589 20.8883 48.3449 20.9148 48.4111 20.9744C48.4774 21.034 48.5038 21.1068 48.4972 21.2128C48.484 21.3849 48.3979 21.5968 48.239 21.8417C48.0735 22.0867 47.8351 22.3317 47.524 22.57C47.2128 22.8084 46.8222 23.007 46.3521 23.1593C45.8754 23.3115 45.3259 23.3844 44.7035 23.3844ZM43.3992 18.4254H45.9946V18.3923C45.9946 18.0679 45.9482 17.7766 45.8489 17.5316C45.7496 17.2866 45.6039 17.0946 45.4053 16.9622C45.2067 16.8298 44.9683 16.7636 44.6903 16.7636C44.4122 16.7636 44.1805 16.8298 43.9951 16.9622C43.8031 17.0946 43.6574 17.2866 43.5581 17.5316C43.4588 17.7766 43.4058 18.0613 43.4058 18.3923V18.4254H43.3992Z" fill="#15184F"/>
<path d="M51.8275 23.2322C51.6752 23.2322 51.5626 23.1991 51.4898 23.1263C51.417 23.0535 51.364 22.9608 51.3243 22.8482L49.1129 15.7441C49.0931 15.6912 49.0798 15.6448 49.0798 15.5918C49.0798 15.4991 49.1129 15.4197 49.1858 15.3535C49.2586 15.2873 49.338 15.2542 49.4307 15.2542H51.0131C51.1455 15.2542 51.2514 15.2873 51.3309 15.3601C51.4103 15.4329 51.4567 15.5058 51.4766 15.572L52.7676 19.9616L54.1514 15.5852C54.1712 15.5124 54.2176 15.4396 54.297 15.3601C54.3765 15.2807 54.4824 15.2476 54.628 15.2476H55.641C55.7867 15.2476 55.8926 15.2873 55.9721 15.3601C56.0515 15.4396 56.0979 15.5124 56.1177 15.5852L57.5015 19.9616L58.7925 15.572C58.8124 15.4991 58.8587 15.4263 58.9382 15.3601C59.0176 15.2873 59.1169 15.2542 59.256 15.2542H60.8383C60.931 15.2542 61.0105 15.2873 61.0767 15.3535C61.1429 15.4197 61.176 15.4991 61.176 15.5918C61.176 15.6448 61.1694 15.6912 61.1628 15.7441L58.9514 22.8482C58.9183 22.9608 58.8653 23.0535 58.7925 23.1263C58.7131 23.1991 58.6005 23.2322 58.4482 23.2322H57.0645C56.9188 23.2322 56.8063 23.1991 56.7268 23.1263C56.6474 23.0535 56.5878 22.9608 56.5613 22.8482L55.1511 18.644L53.7409 22.8482C53.7078 22.9608 53.6548 23.0535 53.5687 23.1263C53.4893 23.1991 53.3767 23.2322 53.2311 23.2322H51.8275Z" fill="#15184F"/>
<path d="M66.2872 23.2323C66.1747 23.2323 66.082 23.1992 66.0092 23.1264C65.9363 23.0536 65.9032 22.9609 65.9032 22.8483V12.8708C65.9032 12.7583 65.9363 12.6656 66.0092 12.5927C66.082 12.5199 66.1747 12.4868 66.2872 12.4868H68.3132C68.4125 12.4868 68.5052 12.5199 68.5846 12.5927C68.6641 12.6656 68.6972 12.7583 68.6972 12.8708V20.9151H73.3317C73.4443 20.9151 73.537 20.9548 73.6164 21.0276C73.6959 21.1005 73.729 21.1998 73.729 21.3123V22.8483C73.729 22.9609 73.6893 23.0536 73.6164 23.1264C73.537 23.1992 73.4443 23.2323 73.3317 23.2323H66.2872Z" fill="#15184F"/>
<path d="M77.2446 23.3847C76.6951 23.3847 76.1985 23.2788 75.7616 23.0669C75.3246 22.855 74.9803 22.5703 74.7287 22.2128C74.4705 21.8553 74.3447 21.4514 74.3447 21.0012C74.3447 20.2729 74.6427 19.6969 75.2319 19.2732C75.8278 18.8495 76.6157 18.5582 77.5955 18.4059L79.5156 18.1146V17.9027C79.5156 17.5319 79.4361 17.2539 79.2838 17.0552C79.1315 16.8632 78.8469 16.7639 78.4364 16.7639C78.1517 16.7639 77.9199 16.8235 77.7412 16.9294C77.5624 17.042 77.4234 17.1943 77.3175 17.3929C77.2248 17.5253 77.099 17.5915 76.9334 17.5915H75.212C75.0995 17.5915 75.0134 17.5584 74.9538 17.4922C74.8942 17.426 74.8678 17.3466 74.8744 17.2539C74.8744 17.0685 74.9406 16.8566 75.0796 16.6183C75.2187 16.3799 75.4305 16.1416 75.7152 15.9032C75.9999 15.6649 76.3707 15.4729 76.8209 15.3206C77.2711 15.1683 77.814 15.0889 78.4496 15.0889C79.1117 15.0889 79.6811 15.1683 80.1511 15.3206C80.6212 15.4729 81.0052 15.6914 81.2965 15.9628C81.5879 16.2409 81.8063 16.5653 81.952 16.9361C82.0977 17.3068 82.1639 17.7239 82.1639 18.1742V22.8418C82.1639 22.9544 82.1241 23.047 82.0513 23.1199C81.9719 23.1927 81.8858 23.2258 81.7799 23.2258H79.9989C79.8863 23.2258 79.7936 23.1927 79.7208 23.1199C79.648 23.047 79.6149 22.9544 79.6149 22.8418V22.3121C79.4825 22.5041 79.3037 22.6829 79.0786 22.8484C78.8535 23.0139 78.5886 23.1397 78.2907 23.239C77.9928 23.3384 77.6419 23.3847 77.2446 23.3847ZM77.9663 21.6368C78.2642 21.6368 78.5291 21.5706 78.774 21.4448C79.0124 21.319 79.2044 21.1204 79.3434 20.8489C79.4825 20.5775 79.5487 20.2398 79.5487 19.8293V19.6175L78.2444 19.8492C77.7611 19.9287 77.4101 20.0545 77.1917 20.2266C76.9732 20.3987 76.8606 20.5907 76.8606 20.8158C76.8606 20.988 76.9136 21.1403 77.0129 21.2594C77.1122 21.3852 77.2512 21.4779 77.4101 21.5441C77.5757 21.6037 77.761 21.6368 77.9663 21.6368Z" fill="#15184F"/>
<path d="M88.3543 23.3846C87.7783 23.3846 87.3016 23.2852 86.9176 23.0932C86.5336 22.9012 86.2224 22.6563 85.9708 22.3583V22.8483C85.9708 22.9608 85.9311 23.0535 85.8583 23.1263C85.7788 23.1992 85.6928 23.2323 85.5868 23.2323H83.8522C83.7396 23.2323 83.6469 23.1992 83.5741 23.1263C83.5013 23.0535 83.4682 22.9608 83.4682 22.8483V12.7185C83.4682 12.6059 83.5013 12.5132 83.5741 12.4404C83.6469 12.3676 83.7396 12.3345 83.8522 12.3345H85.7259C85.8384 12.3345 85.9311 12.3676 86.0039 12.4404C86.0768 12.5132 86.1099 12.6059 86.1099 12.7185V16.0024C86.3548 15.7376 86.666 15.5191 87.0368 15.3469C87.4075 15.1748 87.8445 15.0953 88.3477 15.0953C88.8575 15.0953 89.3143 15.1814 89.705 15.3469C90.0956 15.5124 90.4332 15.7574 90.7113 16.0752C90.9894 16.393 91.2012 16.7704 91.3535 17.214C91.5058 17.651 91.5919 18.1475 91.6117 18.7037C91.625 18.8957 91.625 19.0744 91.625 19.2333C91.625 19.3922 91.6184 19.571 91.6117 19.7762C91.5919 20.3522 91.4992 20.8554 91.3403 21.3056C91.1814 21.7492 90.9629 22.1266 90.6848 22.4444C90.4067 22.7556 90.0757 22.9939 89.6851 23.1528C89.3209 23.3051 88.8707 23.3846 88.3543 23.3846ZM87.5267 21.3321C87.8776 21.3321 88.1424 21.2593 88.3411 21.1202C88.5331 20.9746 88.6787 20.7826 88.7648 20.5376C88.8509 20.2927 88.9038 20.0212 88.9237 19.7233C88.9436 19.4055 88.9436 19.0877 88.9237 18.7699C88.9038 18.4719 88.8509 18.2005 88.7648 17.9555C88.6787 17.7105 88.5397 17.5185 88.3411 17.3729C88.1491 17.2272 87.8776 17.161 87.5267 17.161C87.2089 17.161 86.9507 17.2272 86.7455 17.3663C86.5402 17.5053 86.3879 17.6841 86.282 17.9025C86.1827 18.121 86.1231 18.3594 86.1165 18.6176C86.1032 18.8096 86.1032 19.0016 86.1032 19.187C86.1032 19.3724 86.1099 19.5644 86.1165 19.7696C86.1297 20.0477 86.1761 20.2993 86.2688 20.5376C86.3615 20.776 86.5071 20.968 86.7124 21.1136C86.9176 21.2527 87.1891 21.3321 87.5267 21.3321Z" fill="#15184F"/>
<path d="M96.0543 23.3844C95.3922 23.3844 94.8228 23.3115 94.3593 23.1593C93.8959 23.0136 93.5119 22.8282 93.2206 22.6164C92.9293 22.4045 92.7108 22.1794 92.5651 21.9477C92.4195 21.7159 92.3466 21.5173 92.3334 21.3584C92.3201 21.2459 92.3599 21.1532 92.4393 21.0737C92.5188 20.9943 92.6048 20.9612 92.6975 20.9612H94.4454C94.4785 20.9612 94.4984 20.9678 94.5249 20.9744C94.5447 20.9877 94.5778 21.0075 94.6176 21.034C94.75 21.1068 94.8824 21.1929 95.0148 21.3054C95.1472 21.4114 95.2995 21.5107 95.4783 21.5901C95.6504 21.6696 95.8623 21.7159 96.1072 21.7159C96.3919 21.7159 96.6369 21.663 96.8289 21.5504C97.0209 21.4379 97.1202 21.2723 97.1202 21.0406C97.1202 20.8751 97.0739 20.7427 96.9812 20.6368C96.8885 20.5308 96.7031 20.4249 96.4184 20.319C96.1337 20.2196 95.7166 20.1137 95.1538 20.0144C94.6242 19.8886 94.1541 19.7297 93.7568 19.5311C93.3596 19.3325 93.0484 19.0676 92.8366 18.7498C92.6247 18.4254 92.5121 18.0348 92.5121 17.5779C92.5121 17.1675 92.6446 16.7768 92.9094 16.3928C93.1742 16.0154 93.5648 15.7043 94.0746 15.4659C94.5844 15.2276 95.2134 15.1084 95.9616 15.1084C96.5574 15.1084 97.0672 15.1746 97.5042 15.3136C97.9412 15.4527 98.3053 15.6314 98.6099 15.8433C98.9144 16.0552 99.1395 16.2803 99.2918 16.5054C99.4441 16.7305 99.5302 16.9357 99.5368 17.1211C99.55 17.2204 99.5169 17.3131 99.4441 17.3926C99.3713 17.472 99.2918 17.5051 99.1991 17.5051H97.6035C97.5638 17.5051 97.5241 17.4985 97.4777 17.4853C97.438 17.472 97.3983 17.4522 97.3718 17.4323C97.246 17.3727 97.1268 17.2866 97.001 17.1873C96.8752 17.088 96.7362 16.9953 96.5707 16.9093C96.4052 16.8298 96.1999 16.7835 95.955 16.7835C95.6769 16.7835 95.465 16.843 95.3127 16.9688C95.1605 17.0946 95.081 17.2535 95.081 17.4455C95.081 17.5779 95.1274 17.7037 95.2134 17.8163C95.2995 17.9289 95.4782 18.0282 95.7497 18.1209C96.0212 18.2135 96.4449 18.3129 97.0143 18.4254C97.7227 18.538 98.2855 18.7167 98.7026 18.9683C99.1197 19.2199 99.4176 19.5112 99.5898 19.8423C99.7619 20.1733 99.848 20.5242 99.848 20.895C99.848 21.3849 99.7023 21.8219 99.411 22.1993C99.1197 22.5766 98.6893 22.8746 98.1133 23.0798C97.5704 23.2784 96.8752 23.3844 96.0543 23.3844Z" fill="#15184F"/>
<path d="M11.7055 1.52931L11.1361 3.42948L11.7254 1.46973C11.7121 1.48959 11.7121 1.50945 11.7055 1.52931Z" fill="#2962FF"/>
<path d="M18.2667 9.86475L19.9881 3.87956C20.1735 3.24397 19.8027 2.57527 19.1672 2.38989L14.1883 0.946558L13.268 0.681727L13.2085 0.668486C12.5729 0.483104 11.9108 0.847247 11.7188 1.47622L11.1295 3.43597L11.0964 3.53528L9.92454 7.45479C9.79875 7.88514 9.44123 8.19631 9.00426 8.289C4.38957 9.23577 0.860696 13.1751 0.529657 18.0149C0.529657 18.048 0.523036 18.0811 0.523036 18.1209C0.523036 18.1407 0.516415 18.1672 0.516415 18.1871C0.509795 18.293 0.509795 18.3989 0.509795 18.4982C0.503174 18.5777 0.503174 18.6638 0.503174 18.7432C0.503174 24.6291 5.29 29.4225 11.1825 29.4225C17.0684 29.4225 21.8618 24.6291 21.8618 18.7432C21.8618 15.8301 20.6701 13.0626 18.6044 11.0697C18.28 10.7586 18.1476 10.2951 18.2667 9.86475ZM11.1825 26.8934C6.68698 26.8934 3.03231 23.2387 3.03231 18.7432C3.03231 18.7101 3.03231 18.677 3.03231 18.6439C3.03893 18.6108 3.03893 18.5777 3.03893 18.538C3.03893 18.4718 3.03893 18.4122 3.03893 18.3526C3.03893 18.3195 3.04555 18.293 3.04555 18.2533C3.04555 18.2334 3.05217 18.2136 3.05217 18.2003C3.32363 14.0623 6.6605 10.785 10.8051 10.5997C11.3083 10.5798 11.7453 10.2289 11.8909 9.74557L13.6785 3.74715C13.7249 3.58163 13.897 3.48894 14.0625 3.53528L16.8962 4.35626C17.0617 4.40261 17.1544 4.57475 17.1081 4.74027L15.3801 10.7453C15.241 11.2353 15.4198 11.7649 15.8369 12.0562C18.0218 13.5724 19.3261 16.075 19.3261 18.7366C19.3261 23.2387 15.6714 26.8934 11.1825 26.8934Z" fill="#2962FF"/>
<path d="M11.7254 1.46973L11.1361 3.42948L11.7055 1.52931C11.7121 1.50945 11.7121 1.48959 11.7254 1.46973Z" fill="#2962FF"/>
<path d="M16.5652 22.5233C16.5321 22.5829 16.499 22.6359 16.4593 22.6889C16.1547 23.0795 15.8038 23.437 15.4132 23.7548C15.2543 23.8806 15.0954 23.9998 14.9299 24.1123C14.4995 24.4037 14.0427 24.6354 13.5726 24.8141C13.5196 24.834 13.46 24.8605 13.4071 24.887C12.6986 25.1452 11.9306 25.2842 11.1295 25.2842C10.3681 25.2842 9.63985 25.1584 8.95791 24.9267C8.95791 24.9267 8.95791 24.9267 8.95128 24.9267C8.8917 24.8936 8.83873 24.8671 8.77252 24.8472C8.13693 24.6155 7.52782 24.2779 6.97829 23.8541C6.93195 23.821 6.89222 23.7879 6.84588 23.7482C6.46849 23.4436 6.11097 23.0861 5.79979 22.6889C5.76007 22.6359 5.72034 22.5763 5.68724 22.5167C5.60117 22.3578 5.55482 22.1791 5.55482 22.0003C5.55482 21.8083 5.60779 21.6097 5.7071 21.4375L6.38904 20.2789C6.62077 19.9015 7.03126 19.6566 7.50133 19.6566C7.62051 19.6566 7.73968 19.6764 7.85224 19.7029C8.40176 19.8552 8.79901 20.3584 8.79901 20.9542V22.3909C8.79901 22.669 9.02411 22.8941 9.30219 22.8941C9.58026 22.8941 9.80537 22.669 9.80537 22.3909V19.3586C9.80537 19.3388 9.80537 19.3189 9.80537 19.299C9.83185 18.6237 10.3615 18.0543 11.0435 18.0212C11.1692 18.0146 11.295 18.0278 11.4076 18.0543C11.9836 18.1934 12.4073 18.7032 12.4073 19.3189V22.4042C12.4073 22.6822 12.6324 22.9074 12.9105 22.9074C13.0495 22.9074 13.1753 22.8478 13.268 22.7617C13.3607 22.669 13.4137 22.5432 13.4137 22.4042V20.9542C13.4137 20.4577 13.6984 20.0207 14.1089 19.8022C14.1155 19.7956 14.1221 19.7956 14.1287 19.7956C14.3075 19.7029 14.5061 19.6566 14.718 19.6566C15.1881 19.6566 15.5985 19.9081 15.8303 20.2789C16.062 20.6629 16.2871 21.0469 16.5188 21.4309C16.7439 21.7686 16.7439 22.1857 16.5652 22.5233Z" fill="#2962FF"/>
<path d="M16.0819 17.4721C16.0819 18.2004 15.4926 18.7896 14.7643 18.7896C14.5392 18.7896 14.3274 18.7301 14.142 18.6307C13.7249 18.4056 13.4468 17.9687 13.4468 17.4655C13.4468 16.9623 13.7249 16.5253 14.142 16.3068C14.3274 16.2075 14.5392 16.1479 14.7643 16.1479C15.486 16.1546 16.0819 16.7438 16.0819 17.4721Z" fill="#2962FF"/>
<path d="M12.4669 15.8366C12.4669 16.5649 11.8777 17.1541 11.1494 17.1541C11.0964 17.1541 11.0435 17.1475 10.9905 17.1475C10.335 17.068 9.83185 16.5119 9.83185 15.8366C9.83185 15.585 9.90468 15.3533 10.0239 15.148C10.2556 14.7706 10.6727 14.519 11.1494 14.519C11.8777 14.519 12.4669 15.1083 12.4669 15.8366Z" fill="#2962FF"/>
<path d="M8.8586 17.4718C8.8586 18.0876 8.44149 18.5974 7.8721 18.7496C7.76617 18.7761 7.65361 18.7894 7.54106 18.7894C6.81278 18.7894 6.22353 18.2001 6.22353 17.4718C6.22353 16.7435 6.81278 16.1543 7.54106 16.1543C7.65361 16.1543 7.76617 16.1675 7.8721 16.194C8.12369 16.2602 8.34218 16.3993 8.51432 16.5846C8.67984 16.77 8.79901 17.0018 8.83873 17.2533C8.85198 17.3262 8.8586 17.399 8.8586 17.4718Z" fill="#2962FF"/>
</svg>
