<svg width="79" height="14" viewBox="0 0 79 14" fill="none" xmlns="http://www.w3.org/2000/svg">
<path d="M7.14265 1.03076V2.80557H4.73398V10.1136H2.5192V2.80557H0.110535V1.03076H7.14265Z" fill="#0B1542"/>
<path d="M15.0249 7.03366H10.0211C10.0584 7.48109 10.2001 7.82412 10.4536 8.06275C10.7072 8.30138 11.0204 8.4207 11.3932 8.4207C11.9451 8.4207 12.3254 8.18952 12.5416 7.71972H14.8981C14.7788 8.19698 14.5625 8.62204 14.2419 9.00236C13.9287 9.38267 13.5334 9.68096 13.0562 9.89722C12.5789 10.1135 12.0495 10.2179 11.4678 10.2179C10.7594 10.2179 10.133 10.0687 9.58114 9.76299C9.02931 9.4647 8.59679 9.03218 8.29105 8.4729C7.97785 7.91361 7.8287 7.25738 7.8287 6.5042C7.8287 5.75103 7.98531 5.10225 8.29105 4.53551C8.59679 3.97622 9.02931 3.5437 9.58114 3.24542C10.133 2.94713 10.7668 2.79053 11.4827 2.79053C12.1837 2.79053 12.8026 2.93967 13.347 3.2305C13.8914 3.52133 14.3164 3.93893 14.6222 4.48331C14.9279 5.02768 15.0845 5.66154 15.0845 6.38489C15.0622 6.59369 15.0473 6.80995 15.0249 7.03366ZM12.7952 5.80323C12.7952 5.42291 12.6684 5.12462 12.4074 4.90091C12.1464 4.67719 11.8258 4.56534 11.438 4.56534C11.0651 4.56534 10.7519 4.66974 10.4984 4.88599C10.2448 5.10225 10.0882 5.408 10.0286 5.80323H12.7952Z" fill="#0B1542"/>
<path d="M16.2479 4.53551C16.5536 3.97622 16.9787 3.5437 17.5305 3.24542C18.0749 2.94713 18.7087 2.79053 19.4097 2.79053C20.312 2.79053 21.0727 3.02916 21.6767 3.49896C22.2882 3.97622 22.6834 4.63991 22.8698 5.50494H20.5134C20.312 4.95311 19.9317 4.67719 19.365 4.67719C18.9623 4.67719 18.6342 4.83379 18.3955 5.147C18.1569 5.4602 18.0301 5.91508 18.0301 6.49674C18.0301 7.08586 18.1494 7.53329 18.3955 7.84649C18.6342 8.15969 18.9623 8.3163 19.365 8.3163C19.9317 8.3163 20.3195 8.04038 20.5134 7.48855H22.8698C22.6834 8.33121 22.2807 8.9949 21.6692 9.47961C21.0577 9.96433 20.3046 10.203 19.4022 10.203C18.6938 10.203 18.0674 10.0538 17.523 9.74807C16.9787 9.44979 16.5461 9.01727 16.2404 8.45798C15.9347 7.89869 15.7781 7.24246 15.7781 6.48929C15.7855 5.75103 15.9421 5.0948 16.2479 4.53551Z" fill="#0B1542"/>
<path d="M30.4836 3.6333C30.9832 4.17768 31.2368 4.93085 31.2368 5.89283V10.1136H29.0369V6.19111C29.0369 5.7064 28.9102 5.33354 28.6641 5.06508C28.4105 4.79662 28.075 4.66239 27.6573 4.66239C27.2323 4.66239 26.8967 4.79662 26.6506 5.06508C26.3971 5.33354 26.2778 5.7064 26.2778 6.19111V10.1136H24.063V0.538574H26.2778V3.86448C26.5015 3.54382 26.8072 3.29027 27.195 3.10384C27.5828 2.91741 28.0153 2.82047 28.5 2.82047C29.3203 2.81301 29.984 3.08893 30.4836 3.6333Z" fill="#0B1542"/>
<path d="M34.1749 9.88997C33.72 9.68117 33.3695 9.3978 33.1085 9.02494C32.8475 8.65208 32.7133 8.24194 32.6909 7.77959H33.6455C33.6902 8.21957 33.8841 8.60734 34.2271 8.93546C34.5702 9.27103 35.0772 9.43509 35.7409 9.43509C36.3524 9.43509 36.8371 9.27849 37.1951 8.96528C37.553 8.65208 37.732 8.2494 37.732 7.77214C37.732 7.38436 37.6351 7.07116 37.4337 6.83253C37.2324 6.5939 36.9863 6.41493 36.6954 6.30307C36.4046 6.18376 35.9945 6.05699 35.4799 5.92276C34.8759 5.7587 34.3986 5.6021 34.0407 5.4455C33.6902 5.2889 33.3845 5.05027 33.1384 4.72215C32.8848 4.39404 32.7655 3.95406 32.7655 3.38732C32.7655 2.92497 32.8848 2.50737 33.1309 2.14197C33.3695 1.77657 33.7126 1.48574 34.1526 1.28439C34.5925 1.07559 35.0996 0.971191 35.6664 0.971191C36.5016 0.971191 37.1802 1.17253 37.6873 1.58268C38.2018 1.99282 38.4926 2.52228 38.5747 3.1636H37.5903C37.5307 2.79074 37.3293 2.46263 36.9788 2.1718C36.6358 1.88097 36.166 1.73928 35.5843 1.73928C35.04 1.73928 34.5851 1.88097 34.2271 2.1718C33.8617 2.46263 33.6828 2.85786 33.6828 3.35749C33.6828 3.7378 33.7797 4.04355 33.981 4.27472C34.1824 4.50589 34.4285 4.68486 34.7268 4.80418C35.025 4.92349 35.4277 5.05772 35.9348 5.19195C36.5239 5.35601 36.9937 5.52007 37.3591 5.67667C37.7245 5.83327 38.0303 6.07936 38.2764 6.40747C38.5299 6.73559 38.6492 7.17556 38.6492 7.72739C38.6492 8.15245 38.5374 8.54768 38.3137 8.928C38.0899 9.30831 37.7544 9.61406 37.3144 9.84523C36.8744 10.0764 36.345 10.1957 35.7335 10.1957C35.1518 10.2032 34.6298 10.0988 34.1749 9.88997Z" fill="#0B1542"/>
<path d="M46.524 3.04395V10.1059H45.6217V8.86054C45.4129 9.30052 45.0922 9.63609 44.6672 9.86726C44.2347 10.0984 43.7499 10.2177 43.2205 10.2177C42.3778 10.2177 41.6843 9.95675 41.1474 9.43475C40.6105 8.91274 40.342 8.15957 40.342 7.16776V3.04395H41.2369V7.06336C41.2369 7.83145 41.4308 8.42057 41.8111 8.82326C42.1914 9.22594 42.7208 9.43475 43.3845 9.43475C44.0631 9.43475 44.6075 9.21849 45.0177 8.78597C45.4203 8.35346 45.6292 7.71959 45.6292 6.88439V3.04395H46.524Z" fill="#0B1542"/>
<path d="M50.4092 3.28288C50.8193 3.04425 51.319 2.91748 51.9155 2.91748V3.86454H51.6694C51.0132 3.86454 50.4912 4.04351 50.0885 4.394C49.6933 4.74449 49.492 5.34106 49.492 6.16881V10.1137H48.5896V3.05171H49.492V4.30452C49.6933 3.86454 49.999 3.52151 50.4092 3.28288Z" fill="#0B1542"/>
<path d="M55.234 3.41707C55.7187 3.10387 56.3003 2.94727 56.9715 2.94727C57.6128 2.94727 58.187 3.09641 58.7016 3.3947C59.2161 3.69298 59.6188 4.11804 59.9022 4.66242C60.193 5.20679 60.3347 5.84811 60.3347 6.57145C60.3347 7.2948 60.193 7.93612 59.9022 8.48795C59.6113 9.03978 59.2086 9.46484 58.7016 9.77058C58.187 10.0689 57.6128 10.2255 56.9715 10.2255C56.3078 10.2255 55.7261 10.0689 55.2414 9.75567C54.7493 9.44247 54.3913 9.04724 54.1676 8.56998V13.4619H53.2727V3.04421H54.1676V4.5953C54.3913 4.1255 54.7493 3.73027 55.234 3.41707ZM59.0744 5.04273C58.8432 4.61767 58.53 4.28956 58.1348 4.06584C57.7396 3.84213 57.2921 3.73027 56.7925 3.73027C56.3078 3.73027 55.8678 3.84958 55.4651 4.08076C55.0625 4.31193 54.7493 4.6475 54.5106 5.08002C54.2795 5.51253 54.1601 6.01217 54.1601 6.57891C54.1601 7.14566 54.2795 7.64529 54.5106 8.0778C54.7418 8.51032 55.0625 8.83843 55.4651 9.07706C55.8678 9.30824 56.3078 9.42755 56.7925 9.42755C57.2921 9.42755 57.7396 9.31569 58.1348 9.08452C58.53 8.85335 58.8432 8.52523 59.0744 8.08526C59.3056 7.65274 59.4175 7.14566 59.4175 6.564C59.4175 5.98234 59.3056 5.47525 59.0744 5.04273Z" fill="#0B1542"/>
<path d="M62.9149 0.538574V10.1136H62.0126V0.538574H62.9149Z" fill="#0B1542"/>
<path d="M71.0879 3.04395V10.1059H70.1856V8.86054C69.9768 9.30052 69.6562 9.63609 69.2311 9.86726C68.7986 10.0984 68.3139 10.2177 67.7844 10.2177C66.9418 10.2177 66.2482 9.95675 65.7113 9.43475C65.1744 8.91274 64.9059 8.15957 64.9059 7.16776V3.04395H65.8008V7.06336C65.8008 7.83145 65.9947 8.42057 66.375 8.82326C66.7553 9.22594 67.2848 9.43475 67.9485 9.43475C68.6271 9.43475 69.1714 9.21849 69.5816 8.78597C69.9843 8.35346 70.1931 7.71959 70.1931 6.88439V3.04395H71.0879Z" fill="#0B1542"/>
<path d="M73.601 9.65104C73.0865 9.27819 72.8031 8.76364 72.7434 8.11487H73.6756C73.7203 8.5101 73.9068 8.83075 74.2349 9.07684C74.5704 9.32293 75.0104 9.44224 75.5772 9.44224C76.0693 9.44224 76.4571 9.32293 76.733 9.09176C77.0164 8.86058 77.1506 8.56975 77.1506 8.22672C77.1506 7.98809 77.0761 7.78675 76.9195 7.63015C76.7629 7.47355 76.569 7.35423 76.3303 7.26475C76.0917 7.17526 75.771 7.07832 75.3684 6.97392C74.8389 6.83969 74.4138 6.698 74.0857 6.55632C73.7576 6.42209 73.4817 6.21329 73.2505 5.94483C73.0194 5.67637 72.9075 5.31097 72.9075 4.84862C72.9075 4.50559 73.0119 4.18493 73.2207 3.8941C73.4295 3.60327 73.7203 3.36465 74.1006 3.19313C74.481 3.02162 74.9135 2.93213 75.3907 2.93213C76.1514 2.93213 76.7629 3.12602 77.2252 3.50633C77.6875 3.88665 77.9411 4.41611 77.9784 5.09471H77.0761C77.0537 4.67711 76.8896 4.34899 76.5913 4.09545C76.2931 3.8419 75.8829 3.71513 75.3684 3.71513C74.9135 3.71513 74.5406 3.81953 74.2572 4.03579C73.9739 4.25205 73.8322 4.52051 73.8322 4.84117C73.8322 5.11708 73.9142 5.3408 74.0857 5.51977C74.2572 5.69874 74.466 5.83297 74.7121 5.93737C74.9657 6.03431 75.3013 6.14617 75.7189 6.26549C76.2259 6.40717 76.6361 6.53394 76.9344 6.66817C77.2327 6.79495 77.4937 6.98883 77.7099 7.23492C77.9262 7.48846 78.038 7.81658 78.0455 8.23418C78.0455 8.6145 77.9411 8.95007 77.7323 9.24836C77.5235 9.54664 77.2327 9.77781 76.8673 9.95679C76.4944 10.1283 76.0693 10.2178 75.5846 10.2178C74.7792 10.2103 74.1156 10.0239 73.601 9.65104Z" fill="#0B1542"/>
</svg>
