<svg width="101" height="16" viewBox="0 0 101 16" fill="none" xmlns="http://www.w3.org/2000/svg">
<path d="M22.5424 1.00947H25.0532L21.681 11.2287C21.4012 12.0762 20.6097 12.6473 19.718 12.6473C18.8239 12.6473 18.0313 12.0727 17.7539 11.2229L14.412 1.0083H16.9228L19.7157 9.83694L22.5424 1.00947Z" fill="#0E003F"/>
<path d="M25.242 4.66752C26.1617 3.75832 27.2878 3.30371 28.6178 3.30371C29.9478 3.30371 31.0761 3.75832 32.0016 4.66752C32.9272 5.57673 33.3899 6.71207 33.3899 8.07588C33.3899 9.45019 32.933 10.589 32.018 11.4924C31.1029 12.3958 29.9699 12.8481 28.6178 12.8481C27.2761 12.8481 26.1489 12.3935 25.2339 11.4842C24.3188 10.575 23.8619 9.43853 23.8619 8.07588C23.8619 6.71207 24.3223 5.57673 25.242 4.66752ZM30.3056 6.2633C29.8568 5.7982 29.2938 5.56507 28.6178 5.56507C27.9417 5.56507 27.3787 5.7982 26.9299 6.2633C26.4811 6.72839 26.2562 7.33336 26.2562 8.07588C26.2562 8.8184 26.4811 9.42221 26.9299 9.88847C27.3787 10.3536 27.9417 10.5867 28.6178 10.5867C29.2938 10.5867 29.8568 10.3536 30.3056 9.88847C30.7544 9.42337 30.9794 8.8184 30.9794 8.07588C30.9782 7.33336 30.7544 6.72839 30.3056 6.2633Z" fill="#0E003F"/>
<path d="M39.4956 3.30371C39.6507 3.30371 39.8278 3.31537 40.0272 3.33752V5.78188C39.7835 5.75974 39.5889 5.74808 39.4455 5.74808C38.6027 5.74808 37.9243 5.96722 37.4091 6.40434C36.8939 6.84263 36.6363 7.56533 36.6363 8.57362V12.6476H34.2584V3.50304H36.6363V5.09881C37.2005 3.90169 38.154 3.30371 39.4956 3.30371Z" fill="#0E003F"/>
<path d="M41.0494 3.5026V1.52449L43.4274 1.00928V3.50377H46.8194V5.74881H43.4274V8.99165C43.4274 10.0885 43.9146 10.6376 44.8903 10.6376C45.3227 10.6376 45.9603 10.4883 46.8019 10.1888L47.2006 12.1179C46.9232 12.3068 46.5268 12.4758 46.0116 12.625C45.4964 12.7742 44.9835 12.85 44.4741 12.85C43.488 12.85 42.6697 12.5399 42.0216 11.9186C41.3735 11.2985 41.0494 10.3671 41.0494 9.1257V5.74998" fill="#0E003F"/>
<path d="M52.2432 3.30371C53.7399 3.30371 54.923 3.81893 55.7926 4.85053C56.6622 5.88096 57.0363 7.16201 56.9151 8.69135H49.8979C49.976 9.40123 50.2301 9.94442 50.6626 10.3209C51.095 10.6974 51.6324 10.8863 52.2758 10.8863C52.7409 10.8863 53.1571 10.7837 53.5231 10.5785C53.8891 10.3734 54.149 10.0936 54.3041 9.73927H56.7647C56.443 10.7697 55.8777 11.546 55.0687 12.0671C54.2598 12.5881 53.3342 12.8481 52.2921 12.8481C50.8735 12.8481 49.7149 12.3993 48.8173 11.5017C47.9198 10.6042 47.471 9.46767 47.471 8.09337C47.471 6.71907 47.9198 5.57673 48.8173 4.66869C49.716 3.75831 50.8572 3.30371 52.2432 3.30371ZM52.2257 5.2655C51.6604 5.2655 51.1894 5.4182 50.8129 5.72244C50.4364 6.02784 50.1695 6.43465 50.0145 6.94404H54.3868C54.2539 6.43465 53.9987 6.02667 53.6221 5.72244C53.2456 5.4182 52.7805 5.2655 52.2257 5.2655Z" fill="#0E003F"/>
<path d="M67.012 12.6473H64.1689L61.7584 8.63982L59.3979 12.6473H56.5712L60.3293 6.61158L56.7542 1.0083H59.5809L61.826 4.74887L64.0873 1.0083H66.914L63.2726 6.79459L67.012 12.6473Z" fill="#0E003F"/>
<path d="M72.9684 3.30371C74.1539 3.30371 75.147 3.75016 75.9443 4.64188C76.7428 5.53477 77.1415 6.67827 77.1415 8.07588C77.1415 9.4735 76.7451 10.617 75.9525 11.5099C75.1598 12.4028 74.1655 12.8481 72.9684 12.8481C71.7596 12.8481 70.7957 12.3713 70.0753 11.4178V15.0558L67.6974 15.571V3.50304H70.0753V4.78292C70.784 3.79678 71.7492 3.30371 72.9684 3.30371ZM72.4194 10.5867C73.085 10.5867 73.6352 10.3536 74.0735 9.88847C74.5117 9.42338 74.7297 8.8184 74.7297 8.07588C74.7297 7.33337 74.5141 6.72956 74.0816 6.2633C73.6492 5.7982 73.0955 5.56507 72.4194 5.56507C71.7433 5.56507 71.1838 5.7982 70.7397 6.2633C70.2968 6.72839 70.0741 7.33337 70.0741 8.07588C70.0741 8.8184 70.2956 9.42221 70.7397 9.88847C71.1838 10.3536 71.7433 10.5867 72.4194 10.5867Z" fill="#0E003F"/>
<path d="M82.5664 3.30371C84.0631 3.30371 85.2462 3.81893 86.1158 4.85053C86.9854 5.88096 87.3595 7.16201 87.2383 8.69135H80.2211C80.2992 9.40123 80.5533 9.94442 80.9858 10.3209C81.4182 10.6974 81.9556 10.8863 82.599 10.8863C83.0641 10.8863 83.4803 10.7837 83.8463 10.5785C84.2123 10.3734 84.4722 10.0936 84.6273 9.73927H87.0879C86.7662 10.7697 86.2009 11.546 85.3919 12.0671C84.583 12.5881 83.6574 12.8481 82.6153 12.8481C81.1968 12.8481 80.0381 12.3993 79.1405 11.5017C78.243 10.6042 77.7942 9.46767 77.7942 8.09337C77.7942 6.71907 78.243 5.57673 79.1405 4.66869C80.0393 3.75831 81.1804 3.30371 82.5664 3.30371ZM82.5489 5.2655C81.9836 5.2655 81.5126 5.4182 81.1361 5.72244C80.7596 6.02784 80.4927 6.43465 80.3377 6.94404H84.71C84.5771 6.43465 84.3219 6.02667 83.9454 5.72244C83.5688 5.4182 83.1038 5.2655 82.5489 5.2655Z" fill="#0E003F"/>
<path d="M93.295 3.30371C93.4501 3.30371 93.6272 3.31537 93.8266 3.33752V5.78188C93.583 5.75974 93.3883 5.74808 93.2449 5.74808C92.4021 5.74808 91.7237 5.96722 91.2085 6.40434C90.6933 6.84263 90.4357 7.56533 90.4357 8.57362V12.6476H88.0578V3.50304H90.4357V5.09881C90.9999 3.90169 91.9534 3.30371 93.295 3.30371Z" fill="#0E003F"/>
<path d="M94.8489 3.5026V1.52449L97.2268 1.00928V3.50377H100.619V5.74881H97.2268V8.99165C97.2268 10.0885 97.714 10.6376 98.6897 10.6376C99.1221 10.6376 99.7598 10.4883 100.601 10.1888L101 12.1179C100.723 12.3068 100.326 12.4758 99.8111 12.625C99.2958 12.7742 98.7829 12.85 98.2736 12.85C97.2874 12.85 96.4691 12.5399 95.821 11.9186C95.1729 11.2985 94.8489 10.3671 94.8489 9.1257V5.74998" fill="#0E003F"/>
<path d="M6.54151 7.95223H2.39995L0.32626 4.44245C-0.58761 2.8968 0.526753 0.944336 2.32302 0.944336H2.40112L6.54151 7.95223Z" fill="url(#paint0_linear_19_60)"/>
<path d="M10.6364 7.91974L8.52777 11.5566C7.63838 13.0906 5.42831 13.0999 4.52609 11.5741L4.48996 11.5134L6.54151 7.97453L8.19789 5.11518L8.58372 4.44727H8.58606L10.6364 7.91974Z" fill="url(#paint1_linear_19_60)"/>
<path d="M12.6484 4.44859H8.58492L6.52988 0.966797H10.6423C12.4281 0.966797 13.5436 2.90178 12.6484 4.44859Z" fill="url(#paint2_linear_19_60)"/>
<defs>
<linearGradient id="paint0_linear_19_60" x1="5.57081" y1="8.54461" x2="1.69364" y2="3.53478" gradientUnits="userSpaceOnUse">
<stop stop-color="white"/>
<stop offset="1" stop-color="#622BF9"/>
</linearGradient>
<linearGradient id="paint1_linear_19_60" x1="10.1919" y1="5.04774" x2="6.88101" y2="10.9289" gradientUnits="userSpaceOnUse">
<stop stop-color="white"/>
<stop offset="1" stop-color="#622BF9"/>
</linearGradient>
<linearGradient id="paint2_linear_19_60" x1="5.95957" y1="1.06524" x2="11.5357" y2="3.41768" gradientUnits="userSpaceOnUse">
<stop stop-color="white"/>
<stop offset="1" stop-color="#622BF9"/>
</linearGradient>
</defs>
</svg>
