<svg width="101" height="17" viewBox="0 0 101 17" fill="none" xmlns="http://www.w3.org/2000/svg">
<path fill-rule="evenodd" clip-rule="evenodd" d="M5.3147 0.187012V11.7721H15.6871V0.187012H20.7435C20.7435 0.187012 20.7435 12.9439 20.7435 13.2041C20.6137 14.7659 18.9284 16.4581 16.5949 16.4581H4.14857C1.55548 16.4581 0.12915 14.7659 0 13.2041C0 13.0737 0 0.187012 0 0.187012H5.3147Z" fill="black"/>
<path fill-rule="evenodd" clip-rule="evenodd" d="M30.3385 6.17519V0.187012H35.2645V6.17519H41.3585V0.187012H46.1553V16.4581H41.3585V10.3401H35.2645V16.4581H30.3385V10.3401H23.726V6.17519H30.3385Z" fill="black"/>
<path fill-rule="evenodd" clip-rule="evenodd" d="M54.1949 0.187012H60.5478L67.2889 16.4581H62.1039L60.8068 13.2041H54.0651L52.8983 16.4581H47.7122L54.1949 0.187012ZM55.4908 9.42915H59.5102L57.4356 3.7018L55.4908 9.42915Z" fill="black"/>
<path fill-rule="evenodd" clip-rule="evenodd" d="M72.6054 0.187012V12.2931H79.0882V0.187012H83.885V13.2041C83.7552 15.0267 82.1991 16.4581 80.2543 16.4581C80.2543 16.4581 71.438 16.4581 71.3082 16.4581C69.3641 16.4581 67.9371 15.0267 67.808 13.2041V0.187012H72.6054Z" fill="black"/>
<path fill-rule="evenodd" clip-rule="evenodd" d="M87.6461 0.187012H92.572V12.1627H100.222V16.4581H87.6461V0.187012Z" fill="black"/>
<path fill-rule="evenodd" clip-rule="evenodd" d="M97.3698 4.2227H97.8883V2.92112H98.4067L99.314 4.2227H99.8324L98.7955 2.79071C99.1842 2.79071 99.5729 2.53052 99.5729 2.01014C99.5729 1.74932 99.5729 1.48912 99.314 1.35934C99.0544 1.22893 98.7955 1.09852 98.277 1.09852H97.3698V4.2227ZM97.8883 1.35871H98.1472C98.6657 1.35871 99.1842 1.48849 99.1842 2.00951C99.1842 2.40011 98.9246 2.52989 98.4067 2.52989H97.8883V1.35871ZM98.4074 0.0571289C96.8513 0.0571289 95.6845 1.2283 95.6845 2.6603C95.6845 4.22207 96.8519 5.39388 98.4074 5.39388C99.8337 5.39388 101 4.2227 101 2.6603C101 1.2283 99.8331 0.0571289 98.4074 0.0571289ZM98.4074 0.31732C99.7039 0.31732 100.741 1.35871 100.741 2.6603C100.741 3.96188 99.7039 5.00328 98.4074 5.00328C97.1108 5.00328 96.0732 3.96251 96.0732 2.6603C96.0732 1.35871 97.1108 0.31732 98.4074 0.31732Z" fill="black"/>
</svg>
