<svg width="123" height="17" viewBox="0 0 123 17" fill="none" xmlns="http://www.w3.org/2000/svg">
<g clip-path="url(#clip0_10_1532)">
<path d="M103.95 10.7869V9.93417C103.531 9.79045 102.893 9.59884 101.837 9.59884C100.267 9.59884 99.4012 10.2982 99.4012 11.333V11.3617C99.4012 12.4443 100.419 13.0767 101.552 13.0767C102.96 13.0767 103.95 12.2144 103.95 10.7869ZM98.64 11.4096V11.3809C98.64 9.82878 99.9626 8.95692 101.875 8.95692C102.903 8.95692 103.445 9.12937 103.931 9.27309V8.95692C103.931 7.45273 103.017 6.67668 101.495 6.67668C100.867 6.67668 100.248 6.83955 99.563 7.19405L99.3061 6.57129C100.124 6.18806 100.762 6.0156 101.533 6.0156C102.532 6.0156 103.331 6.29345 103.874 6.82997C104.368 7.32818 104.625 8.00842 104.625 8.93776V13.5749H103.931V12.4443C103.645 12.933 102.874 13.7473 101.495 13.7473C100.124 13.7569 98.64 12.9617 98.64 11.4096ZM97.0318 9.50303C96.9271 7.99884 96.0707 6.60961 94.3769 6.60961C92.9115 6.60961 91.7791 7.85512 91.6459 9.50303H97.0318ZM90.8942 9.8671V9.83836C90.8942 7.67309 92.4072 5.94854 94.4055 5.94854C96.4799 5.94854 97.8026 7.64434 97.8026 9.84794C97.8026 9.98207 97.8026 10.0204 97.7835 10.1449H91.6459C91.7791 12.0036 93.0923 13.0863 94.5482 13.0863C95.6901 13.0863 96.4799 12.5785 97.0889 11.9174L97.5837 12.3581C96.832 13.1821 95.947 13.7569 94.5197 13.7569C92.5785 13.7473 90.8942 12.1857 90.8942 9.8671ZM25.6926 3.34255H33.229V4.95213H27.4815V7.6156H32.5724V9.22518H27.4815V11.9749H33.3051V13.5749H25.6926V3.34255ZM34.5041 5.86231H36.255V7.03117C36.7498 6.34135 37.4159 5.69943 38.5959 5.69943C39.6997 5.69943 40.4705 6.23596 40.8796 7.05991C41.5077 6.24554 42.3165 5.69943 43.4774 5.69943C45.1427 5.69943 46.1608 6.76291 46.1608 8.65033V13.5749H44.4004V9.18686C44.4004 7.96051 43.8295 7.29943 42.8494 7.29943C41.8883 7.29943 41.2127 7.97009 41.2127 9.2156V13.5749H39.4523V9.17728C39.4523 7.97967 38.8718 7.30901 37.9012 7.30901C36.9306 7.30901 36.2645 8.03716 36.2645 9.23476V13.5749H34.5041V5.86231ZM53.8495 9.73297V9.70423C53.8495 8.20961 52.8504 7.23237 51.6609 7.23237C50.4715 7.23237 49.4247 8.22878 49.4247 9.70423V9.73297C49.4247 11.2276 50.4715 12.2048 51.6609 12.2048C52.8599 12.2048 53.8495 11.2563 53.8495 9.73297ZM49.4628 12.3773V13.5749H47.7024V2.91141H49.4628V7.14614C50.0242 6.34135 50.8235 5.69943 52.0606 5.69943C53.8781 5.69943 55.629 7.14614 55.629 9.70423V9.73297C55.629 12.2911 53.8876 13.7378 52.0606 13.7378C50.8045 13.7378 50.0052 13.0958 49.4628 12.3773ZM56.8184 13.5749V2.91141H58.5788V13.5749H56.8184ZM65.5348 9.17728C65.4206 8.03716 64.7545 7.14614 63.5936 7.14614C62.5183 7.14614 61.7666 7.97967 61.6048 9.17728H65.5348ZM59.8635 9.75213V9.72339C59.8635 7.51979 61.4145 5.69943 63.6127 5.69943C66.0487 5.69943 67.2857 7.62518 67.2857 9.84794C67.2857 10.0108 67.2667 10.1641 67.2572 10.3461H61.6239C61.8142 11.6012 62.6991 12.3102 63.8315 12.3102C64.6879 12.3102 65.2969 11.9845 65.9059 11.3905L66.9336 12.3102C66.2104 13.1821 65.2113 13.7569 63.7934 13.7569C61.5763 13.7569 59.8635 12.1282 59.8635 9.75213ZM68.4752 5.86231H70.2261V7.03117C70.7209 6.34135 71.387 5.69943 72.5669 5.69943C73.6707 5.69943 74.4415 6.23596 74.8412 7.05991C75.4692 6.24554 76.2781 5.69943 77.439 5.69943C79.1137 5.69943 80.1319 6.76291 80.1319 8.65033V13.5749H78.3715V9.18686C78.3715 7.96051 77.8101 7.29943 76.8204 7.29943C75.8594 7.29943 75.1837 7.97009 75.1837 9.2156V13.5749H73.4329V9.17728C73.4329 7.97967 72.8524 7.30901 71.8818 7.30901C70.9112 7.30901 70.2451 8.03716 70.2451 9.23476V13.5749H68.4942L68.4752 5.86231ZM81.7306 3.34255H82.4823V8.07548H88.9815V3.34255H89.7333V13.5749H88.9815V8.78446H82.4728V13.5749H81.721V3.34255H81.7306ZM106.205 13.5749V2.91141H106.919V13.5749H106.205ZM109.288 11.6587V6.77249H108.213V6.11141H109.288V3.73536H110.002V6.12099H112.6V6.78207H110.002V11.5917C110.002 12.6551 110.63 13.0384 111.477 13.0384C111.838 13.0384 112.143 12.9617 112.561 12.7797V13.4503C112.181 13.6324 111.772 13.7186 111.353 13.7186C110.221 13.709 109.288 13.0767 109.288 11.6587ZM113.941 2.91141H114.655V7.51979C115.15 6.63836 115.978 5.95812 117.329 5.95812C119.203 5.95812 120.288 7.24195 120.288 9.02399V13.5749H119.575V9.14854C119.575 7.6156 118.718 6.60003 117.224 6.60003C115.768 6.60003 114.655 7.71141 114.655 9.26351V13.5749H113.941V2.91141ZM121.697 3.58207H121.278V4.08985H121.687C121.887 4.08985 122.02 4.00363 122.02 3.83117C122.03 3.67788 121.906 3.58207 121.697 3.58207ZM121.877 4.25273L122.315 4.82758H122.049L121.639 4.29105H121.278V4.82758H121.068V3.39045H121.706C122.02 3.39045 122.239 3.55333 122.239 3.82159C122.248 4.06111 122.096 4.19524 121.877 4.25273ZM121.62 2.87309C120.897 2.87309 120.355 3.44794 120.355 4.14734C120.355 4.84674 120.888 5.41201 121.611 5.41201C122.325 5.41201 122.876 4.83716 122.876 4.13776C122.876 3.44794 122.334 2.87309 121.62 2.87309ZM121.62 5.53656C120.859 5.53656 120.241 4.92339 120.241 4.15692V4.14734C120.241 3.38087 120.859 2.74854 121.63 2.74854C122.391 2.74854 123.01 3.37129 123.01 4.12818C123.01 4.12818 123.01 4.12818 123.01 4.13776C123 4.91381 122.382 5.53656 121.62 5.53656Z" fill="#565663"/>
<path d="M9.93463 4.54045L9.90608 4.55961C7.35587 6.22668 4.93888 8.32488 2.61705 10.8925C5.14823 12.3584 7.58425 14.1213 9.82044 16.2578C12.0566 14.1213 14.4926 12.3584 17.0238 10.8925L19.6406 0.257812C16.196 1.14883 12.9701 2.54763 9.93463 4.54045Z" fill="#EFAF2D"/>
<path d="M0 0.257812C0.26644 1.34045 0.456754 2.07817 0.723194 3.15123C0.903992 3.86979 1.19898 5.09614 1.37978 5.82428C1.56058 6.562 1.8175 7.64464 1.9983 8.38236C2.24571 9.38835 2.37893 9.88655 2.62633 10.8925C3.32098 10.1261 4.03466 9.38835 4.77688 8.66979C5.68088 7.80751 6.61342 6.99314 7.59353 6.21709C7.82191 6.04464 8.04077 5.87218 8.26915 5.69973C8.48801 5.53685 8.71639 5.37398 8.93525 5.22069C9.2683 4.99075 9.61086 4.77039 9.94391 4.53087C9.23023 4.0614 9.19217 4.05182 8.45946 3.63985C7.99319 3.38117 7.89804 3.2662 5.42395 2.09733C3.66355 1.2638 1.8175 0.717693 0 0.257812Z" fill="#565663"/>
</g>
<defs>
<clipPath id="clip0_10_1532">
<rect width="123" height="16" fill="white" transform="translate(0 0.257812)"/>
</clipPath>
</defs>
</svg>
