<svg width="361" height="532" viewBox="0 0 361 532" fill="none" xmlns="http://www.w3.org/2000/svg">
<g clip-path="url(#clip0_15_787)">
<path d="M176.778 532C251.801 532 312.619 524.505 312.619 515.259C312.619 506.013 251.801 498.518 176.778 498.518C101.756 498.518 40.9381 506.013 40.9381 515.259C40.9381 524.505 101.756 532 176.778 532Z" fill="#E8EAF1"/>
<path d="M224.867 55.3829C224.867 44.561 212.899 48.0107 210.863 48.6887C208.826 49.3667 204.074 33.7731 204.074 33.7731C204.074 33.7731 179.633 31.7392 174.881 36.485C174.881 36.485 173.523 56.8244 174.202 69.706C174.881 82.5873 179.026 87.9988 183.778 87.9988C185.281 87.9147 186.758 87.5702 188.143 86.9809V110.695L216.89 95.8144L213.35 67.8023C213.495 67.7169 213.578 67.6721 213.578 67.6721C213.578 67.6721 224.867 65.6036 224.867 55.3829Z" fill="#FFB7B6"/>
<path d="M174.104 54.117C174.104 54.117 175.43 42.9837 175.599 39.9015C175.841 35.4676 179.977 34.5372 182.408 37.647C185.905 42.265 191.839 44.3297 197.452 42.8812C202.377 41.7356 204.451 40.4206 204.902 45.3841C205.354 50.3477 207.047 58.5904 208.627 56.3854C210.208 54.1804 211.976 49.3331 215.107 48.7695C219.891 47.9082 222.851 53.6126 221.722 57.0151C220.593 60.4175 218.997 62.5395 213.091 65.7572L214.933 80.3305C229.567 60.9526 235.079 34.3403 215.231 28.1778C207.816 25.8756 200.113 10.9558 185.765 14.3499C175.599 16.7548 175.599 24.533 174.876 31.2967C161.217 31.8603 174.104 54.117 174.104 54.117Z" fill="#352316"/>
<path d="M189.434 54.117C190.136 54.117 190.704 53.1833 190.704 52.0315C190.704 50.8797 190.136 49.946 189.434 49.946C188.733 49.946 188.164 50.8797 188.164 52.0315C188.164 53.1833 188.733 54.117 189.434 54.117Z" fill="#070713"/>
<path d="M176.868 54.9836C177.57 54.9836 178.138 54.0499 178.138 52.8981C178.138 51.7463 177.57 50.8126 176.868 50.8126C176.167 50.8126 175.599 51.7463 175.599 52.8981C175.599 54.0499 176.167 54.9836 176.868 54.9836Z" fill="#070713"/>
<path d="M186.809 43.6897C187.261 43.1824 187.882 42.7879 189.744 42.9006C191.607 43.0133 194.429 44.7606 193.808 45.2115C193.187 45.6624 191.325 44.1406 189.857 44.6479C188.39 45.1552 187.547 45.5724 187.054 45.2962C186.433 44.9485 186.592 43.9336 186.809 43.6897Z" fill="#070713"/>
<path d="M178.738 43.1721C178.146 42.8376 177.431 42.6643 175.705 43.3716C173.979 44.0789 171.872 46.6425 172.606 46.8691C173.34 47.0956 174.61 45.0548 176.164 45.0617C177.716 45.0686 178.648 45.1919 179.026 44.7714C179.501 44.2421 179.023 43.3329 178.738 43.1721Z" fill="#070713"/>
<g style="mix-blend-mode:overlay" opacity="0.6">
<path d="M181.493 66.0983C180.838 66.1224 180.188 65.9718 179.611 65.662C179.232 65.4506 178.968 65.0806 178.892 64.654C178.751 63.7701 179.656 62.4022 180.763 60.8367C181.044 60.4629 181.302 60.0721 181.535 59.6665C181.76 59.1848 181.695 54.7948 181.503 50.8289L182.181 50.7961C182.248 52.1716 182.56 59.0762 182.15 59.9532C181.903 60.3971 181.625 60.8231 181.317 61.228C180.621 62.2138 179.453 63.8641 179.562 64.5474C179.608 64.7786 179.756 64.9764 179.966 65.0843C180.941 65.5028 182.038 65.5369 183.037 65.1797L183.244 65.8253C182.678 66.0052 182.087 66.0974 181.493 66.0983Z" fill="#070713"/>
</g>
<path d="M180.671 72.549C180.613 72.3488 180.638 72.134 180.74 71.9522C180.842 71.7706 181.011 71.6368 181.212 71.5808C182.211 71.2921 184.053 70.749 185.455 70.2722C186.917 69.6932 188.339 69.0178 189.711 68.2503C189.951 68.1205 190.24 68.123 190.477 68.2568C190.714 68.3907 190.865 68.637 190.877 68.9087C190.972 70.9953 190.72 75.0708 187.435 75.9012C183.439 76.9116 181.346 74.7524 180.671 72.549Z" fill="#070713"/>
<path d="M182.408 75.1504C182.408 75.1504 185.847 70.354 190.759 71.4497C190.759 71.4497 190.767 75.1957 187.599 76.0402C184.19 76.9487 182.408 75.1504 182.408 75.1504Z" fill="#E55151"/>
<path d="M217.375 53.0701C214.12 51.9708 211.098 59.0455 210.971 59.3474C210.898 59.5201 210.979 59.7188 211.152 59.7913C211.324 59.864 211.524 59.7829 211.596 59.6103C212.122 58.389 212.766 57.2216 213.518 56.1246C214.204 56.0052 214.91 56.1342 215.51 56.4882C216.104 56.9305 216.484 57.6033 216.555 58.3404C216.582 58.5038 216.724 58.6238 216.89 58.6241C216.908 58.6241 216.927 58.6227 216.945 58.6195C217.034 58.6049 217.114 58.5556 217.166 58.4825C217.219 58.4094 217.239 58.3185 217.224 58.2298C217.107 56.5887 215.703 55.339 214.057 55.4092C215.024 54.2138 216.127 53.3625 217.157 53.7124C217.272 53.7513 217.399 53.726 217.49 53.6462C217.581 53.5663 217.623 53.4439 217.599 53.325C217.575 53.2062 217.49 53.1091 217.375 53.0701Z" fill="#070713"/>
<path d="M188.143 87.3217C187.983 87.3217 187.844 87.2093 187.811 87.053C187.777 86.8961 187.858 86.7376 188.005 86.6728C188.117 86.623 199.272 81.6393 203.98 75.6154C204.095 75.4688 204.308 75.4428 204.456 75.5581C204.603 75.6727 204.629 75.8848 204.514 76.0328C199.701 82.1914 188.744 87.0873 188.28 87.2919C188.237 87.3112 188.19 87.3217 188.143 87.3217Z" fill="#070713"/>
<path d="M204.049 39.5066C203.974 39.5066 203.901 39.4816 203.841 39.4353C198.719 35.4625 200.625 27.7614 200.709 27.4357C200.755 27.2551 200.94 27.1465 201.121 27.1928C201.303 27.2391 201.412 27.4228 201.367 27.6038C201.347 27.6793 199.489 35.2016 204.258 38.8997C204.373 38.9886 204.418 39.1405 204.371 39.2775C204.324 39.4147 204.194 39.5068 204.049 39.5066Z" fill="white"/>
<g style="mix-blend-mode:overlay" opacity="0.6">
<path d="M188.166 87.1372C188.166 87.1372 197.949 82.5925 201.109 79.2859C201.109 79.2859 200.38 88.2012 193.918 94.4669C187.457 100.733 188.166 95.6693 188.166 95.6693V87.1372Z" fill="#070713"/>
</g>
<path fill-rule="evenodd" clip-rule="evenodd" d="M170.189 496.075H154.789V476.553H170.941L170.189 496.075ZM231.296 477.154L247.216 476.602L247.892 496.075H232.493L231.296 477.154Z" fill="#FFB7B6"/>
<path fill-rule="evenodd" clip-rule="evenodd" d="M261.557 511.713L261.517 511.716C261.853 512.266 262.033 512.899 262.038 513.544V516.203H228.573V513.544C228.574 513.225 228.619 512.907 228.709 512.6L231.484 493.272C231.58 492.597 233.608 492.047 234.427 492.206C234.782 492.099 235.145 492.018 235.512 491.965C235.217 491.501 235.031 490.977 234.967 490.43C234.908 489.539 235.318 488.68 236.051 488.166C236.43 487.837 236.953 487.727 237.432 487.878C238.537 488.218 239.598 489.887 240.448 491.674C241.068 491.671 241.683 491.675 242.273 491.684C242.686 489.997 243.363 488.31 244.487 487.41C245.214 486.814 246.177 486.592 247.091 486.809C248.237 487.046 248.911 487.562 249.094 488.342C249.321 489.308 248.697 490.548 247.764 491.777C248.285 491.795 248.803 491.887 248.973 492.153L261.557 511.713ZM246.375 487.41C245.84 487.409 245.322 487.596 244.912 487.939C243.956 488.705 243.354 490.178 242.973 491.697C244.498 491.73 245.773 491.787 246.361 491.814V491.814C246.556 491.823 246.675 491.829 246.705 491.829C246.743 491.823 246.791 491.817 246.838 491.813L246.869 491.809C247.906 490.559 248.629 489.331 248.434 488.496C248.316 487.996 247.818 487.652 246.954 487.473C246.763 487.433 246.57 487.412 246.375 487.41ZM235.644 490.375C235.606 489.708 235.921 489.069 236.477 488.695C236.678 488.506 236.968 488.441 237.231 488.526C238.048 488.777 238.922 490.115 239.688 491.683C238.456 491.703 237.248 491.757 236.236 491.869C235.917 491.428 235.714 490.915 235.644 490.375ZM154.789 492.107C161.986 498.71 170.297 492.107 170.297 492.107C170.297 492.107 174.554 494.232 174.705 497.451C174.855 500.67 174.714 511.874 174.714 511.874V513.967C174.714 514.56 174.478 515.129 174.058 515.548C173.638 515.968 173.069 516.203 172.475 516.203H115.536C114.942 516.203 114.372 515.968 113.952 515.548C113.533 515.129 113.297 514.56 113.297 513.967V511.235H113.42C114.271 508.428 119.585 505.256 125.036 503.939C125.141 503.914 125.254 503.887 125.365 503.86C126.171 503.662 128.407 503.094 130.946 502.305C131.761 502.046 132.637 501.751 133.56 501.423C133.51 501.376 133.479 501.347 133.47 501.338L133.467 501.336C133.33 501.209 133.322 500.995 133.449 500.858C133.577 500.72 133.792 500.713 133.929 500.84C133.948 500.857 134.073 500.973 134.273 501.168C134.695 501.015 135.126 500.853 135.569 500.684C136.629 500.257 137.775 499.762 138.929 499.243L138.882 499.198C138.745 499.071 138.736 498.857 138.864 498.719C138.991 498.582 139.205 498.574 139.343 498.701C139.359 498.716 139.451 498.802 139.596 498.942C141.056 498.277 142.506 497.588 143.8 496.96C142.673 496.896 140.396 496.63 139.343 495.523C138.94 495.117 138.733 494.557 138.774 493.987C138.739 493.533 138.992 493.105 139.408 492.919C140.43 492.523 142.418 494.052 143.591 495.076C143.368 493.948 143.187 492.265 143.841 491.45C144.125 491.099 144.569 490.916 145.019 490.963C145.447 490.971 145.841 491.199 146.062 491.566C146.721 492.664 145.901 495.028 145.444 496.154C146.154 495.803 146.777 495.491 147.266 495.244C147.642 495.05 148.011 494.863 148.375 494.679L148.463 494.634L148.463 494.635C150.47 493.556 152.592 492.709 154.789 492.107Z" fill="#4C3939"/>
<g style="mix-blend-mode:overlay" opacity="0.4">
<path d="M170.339 509.62C171.669 509.62 172.748 508.543 172.748 507.215C172.748 505.887 171.669 504.81 170.339 504.81C169.009 504.81 167.931 505.887 167.931 507.215C167.931 508.543 169.01 509.62 170.339 509.62Z" fill="#070713"/>
</g>
<g style="mix-blend-mode:overlay" opacity="0.4">
<path d="M169.512 503.294H174.774V502.616H169.512C167.081 502.619 165.112 504.586 165.109 507.014V511.234H113.297V513.967C113.297 514.56 113.533 515.129 113.952 515.548C114.372 515.968 114.942 516.203 115.536 516.203H172.475C173.069 516.203 173.638 515.968 174.058 515.548C174.478 515.129 174.714 514.56 174.714 513.967V511.234H165.788V507.014C165.79 504.96 167.456 503.297 169.512 503.294Z" fill="#070713"/>
</g>
<g style="mix-blend-mode:overlay" opacity="0.4">
<path d="M255.034 508.709H235.577C231.709 508.709 228.573 510.873 228.573 513.544V516.203H262.039V513.544C262.038 510.873 258.903 508.709 255.034 508.709Z" fill="#070713"/>
</g>
<g style="mix-blend-mode:overlay" opacity="0.4">
<path d="M145.444 496.154C145.325 496.448 145.23 496.662 145.193 496.741C145.179 496.773 145.16 496.802 145.136 496.827C146.199 497.872 147.186 498.989 148.091 500.173C148.203 500.323 148.172 500.535 148.022 500.646C147.872 500.758 147.66 500.728 147.548 500.579C146.564 499.299 145.484 498.096 144.317 496.98C144.203 496.978 144.022 496.972 143.8 496.959C142.506 497.588 141.056 498.277 139.596 498.942C140.733 500.042 141.788 501.225 142.75 502.481C142.862 502.631 142.832 502.844 142.682 502.956C142.532 503.068 142.319 503.038 142.206 502.888C141.209 501.591 140.113 500.372 138.93 499.244C137.755 499.771 136.59 500.274 135.515 500.706C135.113 500.867 134.699 501.023 134.282 501.178C135.382 502.25 136.403 503.4 137.336 504.619C137.447 504.769 137.417 504.981 137.267 505.093C137.117 505.205 136.905 505.175 136.792 505.026C135.811 503.75 134.735 502.549 133.571 501.435C129.418 502.904 125.036 503.939 125.036 503.939C125.036 503.939 125.752 506.801 128.235 507.477C130.718 508.154 144.828 503.307 148.558 501.503C152.287 499.7 148.463 494.634 148.463 494.634C148.463 494.634 147.246 495.262 145.444 496.154Z" fill="#070713"/>
</g>
<g style="mix-blend-mode:overlay" opacity="0.4">
<path d="M241.751 494.86C241.851 493.79 242.026 492.729 242.273 491.683C241.683 491.674 241.068 491.671 240.448 491.674C240.978 492.786 241.426 493.945 241.751 494.86Z" fill="#070713"/>
</g>
<g style="mix-blend-mode:overlay" opacity="0.4">
<path fill-rule="evenodd" clip-rule="evenodd" d="M247.158 492.532C246.016 493.823 244.773 495.022 243.441 496.116C244.819 496.222 246.17 496.559 247.435 497.113C247.545 497.166 247.618 497.273 247.627 497.394C247.635 497.515 247.579 497.631 247.479 497.7C247.378 497.768 247.249 497.777 247.14 497.724C245.681 497.119 244.124 496.785 242.544 496.74C242.457 496.651 242.323 496.625 242.208 496.676C242.093 496.727 242.021 496.843 242.029 496.968C241.863 496.991 241.704 496.891 241.656 496.73C241.123 495.002 240.465 493.315 239.688 491.682C238.456 491.701 237.247 491.756 236.235 491.867C237.678 494.039 241.241 496.081 241.285 496.106C241.413 496.178 241.48 496.326 241.45 496.469C241.42 496.613 241.301 496.721 241.155 496.738C239.302 496.953 237.464 497.289 235.656 497.745C235.626 497.754 235.595 497.758 235.564 497.758C235.394 497.758 235.251 497.633 235.228 497.465C235.205 497.297 235.31 497.138 235.473 497.093C237.001 496.695 238.552 496.392 240.117 496.187C238.867 495.386 236.562 493.742 235.511 491.964C234.401 492.14 233.655 492.409 233.611 492.819C233.381 494.925 234.231 504.265 235.36 504.922C236.489 505.58 252.378 505.429 252.477 505.046C252.702 504.172 248.573 495.137 247.158 492.532ZM235.604 499.411C235.8 499.353 240.513 498.015 248.624 499.402C248.809 499.434 248.932 499.609 248.901 499.793C248.87 499.977 248.695 500.102 248.51 500.07C240.583 498.713 235.857 500.044 235.795 500.061H235.794C235.678 500.096 235.552 500.065 235.464 499.981C235.376 499.898 235.341 499.774 235.369 499.657C235.397 499.538 235.487 499.445 235.604 499.411ZM235.069 502.719C240.043 502.157 245.065 502.157 250.039 502.721C250.224 502.739 250.391 502.607 250.416 502.422C250.437 502.236 250.303 502.068 250.117 502.047C245.086 501.477 240.006 501.477 234.975 502.047C234.798 502.073 234.671 502.229 234.684 502.407C234.695 502.584 234.843 502.722 235.021 502.722C235.037 502.722 235.053 502.721 235.069 502.719Z" fill="#070713"/>
</g>
<g style="mix-blend-mode:overlay" opacity="0.4">
<path d="M246.786 491.91C246.75 491.862 246.72 491.829 246.704 491.829C246.588 491.829 245.002 491.74 242.973 491.696C242.628 493.153 242.416 494.639 242.34 496.134C243.949 494.865 245.438 493.451 246.786 491.91Z" fill="#070713"/>
</g>
<path d="M157.271 247.637C157.271 247.637 149.301 348.193 149.752 364.877C150.204 381.561 151.558 484.369 151.558 484.369C151.558 484.369 162.395 490.23 173.683 484.369C173.683 484.369 180.456 420.79 183.616 401.852C186.777 382.914 185.874 357.212 185.874 357.212L202.129 317.08L230.201 485.675C230.201 485.675 244.573 489.328 251.345 484.819C251.345 484.819 249.991 452.805 251.345 421.241C252.7 389.677 249.991 366.68 245.927 354.506C245.927 354.506 254.951 290.023 253.145 247.637H157.271Z" fill="#2D2B72"/>
<g style="mix-blend-mode:overlay" opacity="0.6">
<path d="M228.075 472.906C228.075 472.906 237.861 477.075 250.986 472.906V475.651C243.728 478.147 235.852 478.203 228.559 475.813L228.075 472.906Z" fill="white"/>
</g>
<g style="mix-blend-mode:overlay" opacity="0.6">
<path d="M151.405 472.906C151.405 472.906 161.801 477.075 174.926 472.906L174.582 476.045C174.582 476.045 163.271 479.871 151.444 475.813L151.405 472.906Z" fill="white"/>
</g>
<g style="mix-blend-mode:overlay" opacity="0.6">
<path d="M252.888 275.038C252.868 275.038 252.847 275.036 252.827 275.033C231.828 271.301 235.276 248.054 235.312 247.82C235.343 247.635 235.516 247.51 235.701 247.539C235.886 247.568 236.012 247.742 235.984 247.926C235.947 248.155 232.606 270.751 252.946 274.365C253.119 274.396 253.24 274.554 253.225 274.729C253.209 274.903 253.063 275.037 252.888 275.038Z" fill="#070713"/>
</g>
<g style="mix-blend-mode:overlay" opacity="0.6">
<path d="M155.296 270.299C155.139 270.299 155.003 270.192 154.966 270.041C154.928 269.889 154.999 269.731 155.138 269.659C155.284 269.583 169.817 261.827 169.048 247.892C169.043 247.802 169.075 247.714 169.134 247.647C169.194 247.58 169.278 247.54 169.369 247.535C169.459 247.529 169.548 247.559 169.615 247.62C169.682 247.68 169.722 247.765 169.726 247.855C170.519 262.231 155.603 270.182 155.452 270.26C155.403 270.286 155.35 270.298 155.296 270.299Z" fill="#070713"/>
</g>
<g style="mix-blend-mode:overlay" opacity="0.6">
<path d="M157.271 247.637L156.841 254.398C194.585 269.339 253.334 258.913 253.334 258.913L253.145 247.637H157.271Z" fill="#070713"/>
</g>
<g style="mix-blend-mode:overlay" opacity="0.6">
<path d="M202.129 317.08L193.092 283.488C193.092 283.488 188.357 301.68 190.389 321.364C192.421 341.048 190.389 346.064 190.389 346.064L202.129 317.08Z" fill="#070713"/>
</g>
<g style="mix-blend-mode:overlay" opacity="0.6">
<path d="M155.46 272.194C155.46 272.194 159.453 270.411 161.034 276.724C162.614 283.037 160.741 314.149 158.935 331.735C157.129 349.321 154.955 376.15 154.611 390.128C154.268 404.106 150.474 406.822 150.474 406.822C150.474 406.822 149.302 367.043 149.971 356.749C150.64 346.454 152.378 305.45 155.46 272.194Z" fill="white"/>
</g>
<g style="mix-blend-mode:overlay" opacity="0.6">
<path d="M204.763 333.327C204.763 333.327 217.613 348.257 220.595 368.291C223.577 388.324 226.06 428.08 227.565 438.3C229.07 448.521 232.625 459.832 226.046 460.715L204.763 333.327Z" fill="white"/>
</g>
<g style="mix-blend-mode:overlay" opacity="0.6">
<path d="M185.98 363.108C185.969 363.108 185.957 363.107 185.946 363.107C185.857 363.098 185.774 363.054 185.717 362.985C185.66 362.915 185.633 362.825 185.642 362.736C185.652 362.626 186.676 351.639 182.272 344.309C182.175 344.148 182.228 343.941 182.388 343.845C182.549 343.748 182.758 343.8 182.854 343.961C187.375 351.485 186.328 362.691 186.317 362.802C186.3 362.976 186.154 363.108 185.98 363.108Z" fill="#070713"/>
</g>
<path fill-rule="evenodd" clip-rule="evenodd" d="M268.518 144.758C271.971 154.195 276.226 165.825 281.977 180.172C287.748 194.565 284.116 205.298 266.702 208.795C265.872 208.962 265.068 209.126 264.272 209.288C259.648 210.229 255.295 211.115 247.614 212.186C248.079 217.867 249.08 223.491 250.604 228.984C252.477 236.561 253.487 244.326 253.614 252.131C253.614 252.131 174.012 265.507 157.74 252.131C154.364 249.355 156.02 242.703 157.525 236.655C158.267 233.671 158.973 230.834 159.019 228.683C159.15 222.632 159.431 216.877 159.697 211.429C160.035 204.501 160.349 198.071 160.299 192.159C160.259 187.39 159.636 179.302 158.867 170.127C158.833 170.175 158.799 170.224 158.765 170.272C158.727 170.327 158.69 170.381 158.65 170.436C151.88 179.9 143.937 188.47 135.011 195.941C129.885 200.236 125.489 202.943 120.978 203.09C110.848 203.419 101.346 192.299 80.928 156.25C79.819 156.904 78.3913 156.573 77.6827 155.499L74.9964 151.318C74.261 150.201 74.4531 146.903 75.5718 146.168L91.8518 135.379C92.9705 134.644 95.9568 134.83 96.6922 135.947L99.9427 140.885C100.384 141.554 100.464 142.398 100.157 143.138L101.154 144.239L121.494 167.141C121.958 167.667 122.663 167.916 123.356 167.799C124.048 167.681 124.631 167.214 124.896 166.564C128.282 158.311 132.142 150.258 136.457 142.449C141.644 133.154 148.189 123.582 155.202 116.991C156.095 116.164 157.048 115.405 158.052 114.719C163.932 109.651 183.176 101.376 183.176 101.376L195.712 110.03L218.997 99.5725C218.997 99.5725 237.51 103.48 243.53 105.584C243.889 105.709 244.239 105.855 244.582 106.019C255.749 109.86 259.234 119.383 268.518 144.758ZM248.305 185.188L251.193 184.314C251.765 184.141 252.231 183.727 252.47 183.181C252.709 182.635 252.696 182.012 252.434 181.477C251.621 179.816 250.358 177.25 248.742 174.025C248.586 178.044 248.439 181.826 248.305 185.188Z" fill="#34AD82"/>
<path d="M166.921 239.844C166.862 239.844 166.803 239.829 166.751 239.799C160.829 236.387 158.777 229.081 158.692 228.772C158.643 228.592 158.749 228.405 158.93 228.356C159.111 228.307 159.298 228.413 159.347 228.594C159.367 228.667 161.415 235.941 167.091 239.212C167.224 239.288 167.289 239.445 167.249 239.593C167.209 239.742 167.075 239.844 166.921 239.844Z" fill="#070713"/>
<g style="mix-blend-mode:overlay" opacity="0.6">
<path d="M153.11 119.655C153.11 119.655 160.713 113.926 168.727 112.01C173.955 110.701 179.055 108.928 183.966 106.712L181.64 102.049C181.64 102.049 164.362 109.718 159.551 113.55C157.184 115.341 155.024 117.388 153.11 119.655Z" fill="white"/>
</g>
<g style="mix-blend-mode:overlay" opacity="0.6">
<path d="M241.597 160.035C241.352 159.568 241.108 159.093 240.856 158.619C239.039 155.15 237.085 151.468 235.037 147.679C234.747 151.342 233.576 169.962 237.941 188.215C237.95 188.25 237.956 188.284 237.964 188.318L247.857 185.324C248.033 180.881 248.261 176.804 248.472 173.488C246.588 169.734 244.254 165.142 241.597 160.035Z" fill="#070713"/>
</g>
<g style="mix-blend-mode:overlay" opacity="0.6">
<path d="M247.882 212.148C245.369 212.501 242.493 212.873 239.132 213.273C237.316 223.885 232.346 233.706 224.867 241.459C216.723 250.073 199.882 252.131 187.791 258.076C210.945 259.345 253.614 252.131 253.614 252.131C253.614 252.131 253.738 241.164 249.537 224.628C248.618 220.525 248.064 216.348 247.882 212.148Z" fill="#070713"/>
</g>
<g style="mix-blend-mode:overlay" opacity="0.6">
<path d="M204.423 112.079L230.077 102.049L218.997 99.5725L204.423 112.079Z" fill="#070713"/>
</g>
<g style="mix-blend-mode:overlay" opacity="0.6">
<path d="M81.0397 156.192L99.2489 144.238C100.342 143.52 86.9735 146.775 83.4237 152.242C81.1253 155.782 78.366 153.468 77.6098 151.664C76.5499 149.133 78.4539 144.258 78.4539 144.258C78.4375 144.233 75.7877 146.062 75.772 146.037L75.5718 146.168C74.4531 146.903 74.261 150.201 74.9964 151.318L77.6827 155.5C78.4181 156.616 79.9209 156.927 81.0397 156.192Z" fill="#070713"/>
</g>
<g style="mix-blend-mode:overlay" opacity="0.6">
<path d="M121.98 177.874C115.612 171.089 94.3877 147.69 101.155 144.235L121.492 167.139C121.957 167.666 122.662 167.914 123.355 167.797C124.049 167.68 124.632 167.214 124.899 166.564C128.282 158.309 132.142 150.256 136.458 142.446C139.252 148.086 134.23 163.866 125.17 177.596C124.827 178.118 124.264 178.454 123.642 178.508C123.02 178.562 122.407 178.328 121.98 177.874Z" fill="white"/>
</g>
<path d="M119.85 179.03C119.714 179.03 119.59 178.948 119.537 178.823C119.484 178.698 119.511 178.553 119.606 178.455C123.6 174.342 122.998 168.686 122.992 168.629C122.97 168.443 123.103 168.275 123.289 168.253C123.475 168.232 123.644 168.365 123.666 168.551C123.694 168.794 124.316 174.578 120.093 178.927C120.03 178.993 119.941 179.03 119.85 179.03Z" fill="#070713"/>
<g style="mix-blend-mode:overlay" opacity="0.6">
<path d="M158.867 170.127C158.188 162.027 157.395 153.083 156.784 144.819C156.636 144.996 156.489 145.174 156.342 145.36C149.9 153.503 153.64 169.236 148.765 176.224C139.065 190.133 133.42 184.271 125.07 191.937C122.62 194.187 121.229 200.094 120.977 203.09C125.489 202.944 129.885 200.236 135.011 195.941C143.937 188.47 151.88 179.9 158.65 170.436C158.724 170.332 158.794 170.23 158.867 170.127Z" fill="#070713"/>
</g>
<path d="M198.353 223.325L174.647 183.148L168.163 172.158C167.648 171.283 166.708 170.747 165.692 170.747H127.273C126.136 170.878 125.126 171.533 124.544 172.517C124.417 172.695 124.301 172.881 124.197 173.073C124.035 173.362 123.903 173.666 123.804 173.982C123.804 173.989 123.797 173.989 123.797 173.995C123.487 174.74 123.511 175.582 123.865 176.307L123.824 176.226C123.842 176.274 123.862 176.322 123.885 176.368L123.906 176.396C123.912 176.402 123.912 176.409 123.919 176.416C123.936 176.457 123.957 176.498 123.98 176.538L145.1 212.335L148.929 218.816L154.171 227.705C154.686 228.579 155.626 229.116 156.642 229.115H195.061C195.202 229.114 195.343 229.102 195.482 229.081C197.702 229.074 199.48 225.237 198.353 223.325Z" fill="#3871D6"/>
<g style="mix-blend-mode:overlay" opacity="0.6">
<path d="M123.67 175.801C123.645 175.702 123.626 175.602 123.612 175.502C123.625 175.602 123.644 175.702 123.67 175.801Z" fill="#070713"/>
<path d="M123.822 176.224C123.845 176.271 123.859 176.32 123.886 176.365L123.919 176.419C123.885 176.354 123.851 176.29 123.822 176.224Z" fill="#070713"/>
<path d="M123.79 176.153C123.742 176.039 123.702 175.922 123.67 175.804C123.7 175.923 123.74 176.04 123.79 176.153Z" fill="#070713"/>
<path d="M195.482 229.081C196.426 228.942 197.238 228.343 197.649 227.484C198.06 226.624 198.016 225.616 197.532 224.796L173.363 183.839L167.341 173.629C166.827 172.755 165.886 172.218 164.87 172.219H126.451C125.292 172.213 124.244 172.91 123.804 173.982C123.903 173.666 124.035 173.362 124.197 173.073C124.299 172.88 124.415 172.695 124.544 172.517C125.126 171.533 126.136 170.878 127.272 170.747H165.692C166.708 170.747 167.648 171.283 168.163 172.158L174.647 183.148L198.353 223.325C199.48 225.237 197.701 229.074 195.482 229.081Z" fill="#070713"/>
</g>
<g style="mix-blend-mode:overlay" opacity="0.6">
<path d="M126.101 174.854H128.759C128.933 174.854 129.094 174.946 129.181 175.096L129.83 176.206C129.919 176.356 129.92 176.543 129.833 176.695C129.746 176.846 129.584 176.939 129.409 176.939H126.75C126.577 176.939 126.416 176.847 126.329 176.698L125.679 175.588C125.591 175.436 125.59 175.25 125.677 175.099C125.764 174.948 125.926 174.854 126.101 174.854Z" fill="#070713"/>
</g>
<g style="mix-blend-mode:overlay" opacity="0.6">
<path d="M152.31 193.105H155.797C156.824 193.146 157.784 193.624 158.434 194.419C159.933 196.187 159.238 198.408 157.188 198.408H153.7C152.674 198.368 151.714 197.889 151.063 197.095C149.565 195.327 150.259 193.105 152.31 193.105Z" fill="#070713"/>
</g>
<g style="mix-blend-mode:overlay" opacity="0.6">
<path d="M235.682 211.675L229.417 190.832C229.041 189.579 228.342 203.304 232.573 208.264C235.312 211.476 232.303 213.455 230.356 213.662C227.624 213.953 223.491 210.737 223.491 210.737C223.462 210.746 224.459 213.804 224.431 213.812L224.5 214.042C224.885 215.322 227.995 216.449 229.277 216.064L234.058 214.69C234.673 214.505 235.19 214.083 235.495 213.519C235.799 212.953 235.867 212.29 235.682 211.675Z" fill="#070713"/>
</g>
<path d="M238.077 213.485C237.898 213.485 237.749 213.346 237.739 213.168C237.728 212.989 237.857 212.833 238.035 212.81L254.937 210.721C255.058 210.705 255.178 210.755 255.252 210.852C255.325 210.95 255.341 211.078 255.293 211.19C255.246 211.301 255.142 211.38 255.021 211.394L238.119 213.483C238.105 213.485 238.091 213.486 238.077 213.485Z" fill="#070713"/>
<path d="M232.724 190.242C232.555 190.242 232.413 190.119 232.388 189.952C232.363 189.786 232.464 189.627 232.625 189.578L241.792 186.804C241.97 186.751 242.158 186.853 242.212 187.031C242.267 187.21 242.166 187.398 241.988 187.453L232.822 190.227C232.79 190.237 232.756 190.242 232.724 190.242Z" fill="#070713"/>
<g style="mix-blend-mode:overlay" opacity="0.6">
<path d="M259.722 183.39C256.838 177.993 249.692 164.625 248.339 162.116C247.171 159.96 243.382 159.324 241.597 160.035C246.765 169.966 250.728 177.986 252.484 181.579C252.733 182.09 252.745 182.684 252.518 183.204C252.29 183.724 251.845 184.118 251.301 184.281L229.804 190.789L229.437 190.899L230.541 194.571C238.882 193.937 252.934 188.773 258.53 186.605C259.141 186.368 259.622 185.88 259.85 185.266C260.078 184.652 260.032 183.969 259.722 183.39Z" fill="white"/>
</g>
<path d="M259.993 189.524C259.828 189.524 259.686 189.404 259.659 189.24C259.622 189.018 258.678 183.789 252.474 183.611C252.286 183.606 252.139 183.449 252.144 183.262C252.149 183.075 252.306 182.928 252.493 182.933C259.267 183.127 260.319 189.071 260.329 189.131C260.358 189.315 260.233 189.49 260.049 189.52C260.03 189.522 260.012 189.524 259.993 189.524Z" fill="#070713"/>
<path d="M240.206 155.247C240.136 155.247 240.069 155.226 240.012 155.186C230.305 148.456 230.274 133.804 230.275 133.656C230.276 133.47 230.427 133.32 230.614 133.32H230.616C230.707 133.32 230.792 133.356 230.855 133.42C230.919 133.484 230.954 133.571 230.954 133.661C230.953 133.804 230.988 148.104 240.399 154.629C240.521 154.714 240.574 154.868 240.529 155.009C240.486 155.151 240.354 155.247 240.206 155.247Z" fill="#070713"/>
<path d="M157.864 158.644C157.697 158.644 157.555 158.521 157.529 158.356C155.265 143.345 156.339 132.487 156.35 132.379C156.37 132.193 156.536 132.057 156.723 132.076C156.909 132.095 157.045 132.262 157.026 132.448C157.014 132.555 155.951 143.336 158.201 158.255C158.228 158.44 158.101 158.613 157.916 158.64C157.898 158.643 157.881 158.644 157.864 158.644Z" fill="#070713"/>
<path fill-rule="evenodd" clip-rule="evenodd" d="M78.0147 104.678C78.0147 104.678 77.6612 97.6023 75.4989 95.6335C74.1306 94.4706 72.276 94.0561 70.542 94.5256C70.542 94.5256 70.369 94.1313 70.1138 93.5412C69.8939 93.0316 69.6032 92.3805 69.3062 91.7153C68.7737 90.5226 68.2209 89.2852 68.0201 88.7317C65.1738 80.8886 60.212 70.8019 57.7404 71.6322C55.7934 72.2864 57.3915 76.7546 61.2773 87.6178C61.7807 89.0256 62.3224 90.5397 62.8998 92.167C62.5735 91.5844 60.8299 89.4326 57.4387 90.7548C55.0519 91.6789 56.7173 95.7474 56.7173 95.7474C56.7173 95.7474 53.3414 94.2689 51.7032 95.9795C49.9177 97.8545 51.491 101.034 51.6117 101.247C51.4234 101.156 48.2715 99.6648 47.0079 102.555C46.508 103.707 47.7717 107.061 50.2061 111.011C50.5092 111.5 50.8281 111.996 51.1629 112.501C51.2397 112.613 51.3127 112.722 51.3903 112.84L51.3962 112.843C52.0128 113.755 52.6878 114.686 53.4072 115.617L53.4131 115.617C53.6224 115.887 53.8252 116.15 54.0224 116.405C57.6408 121.094 59.3818 123.35 64.9848 125.353C64.9848 125.353 71.1708 136.741 76.3258 145.668L91.1402 135.85C89.8041 133.715 88.4428 131.551 87.1447 129.487L87.1439 129.486C82.9541 122.824 79.4215 117.207 79.4922 116.973C79.4922 116.973 79.0114 112.576 78.0147 104.678ZM197.838 105.646L194.856 105.888L195.711 110.031L197.838 105.646ZM196.808 200.958C197.113 200.933 208.239 198.556 219.063 196.234L224.06 212.603L201.675 216.002C201.669 216.013 201.664 216.024 201.659 216.036C201.653 216.048 201.647 216.06 201.64 216.072C198.743 216.579 195.435 217.374 193.377 218.563C190.052 220.482 181.906 220.954 179.002 220.262C174.15 220.721 167.43 221.274 166.192 220.949C164.214 220.43 164.787 218.555 165.867 217.892C166.332 217.607 164.318 217.154 162.664 216.784C162.121 216.662 161.617 216.549 161.252 216.453C159.041 215.874 159.682 213.776 160.888 213.037C161.668 212.558 158.942 211.826 157.23 211.377C155.019 210.798 155.659 208.7 156.866 207.961C157.135 207.796 157.66 207.579 158.228 207.345C159.601 206.778 161.226 206.109 160.091 205.811C157.881 205.231 158.522 203.134 159.728 202.394C160.67 201.817 170.15 201.088 174.268 200.795C174.57 200.765 174.883 200.737 175.199 200.708C177.031 200.54 178.976 200.362 179.383 199.816C179.765 199.303 178.839 197.943 177.638 196.179C177.087 195.37 176.477 194.475 175.909 193.539C174.102 190.559 176.883 186.585 177.769 186.894C178.172 187.035 179.714 189.143 181.465 191.536C183.558 194.397 185.949 197.665 187.053 198.472C188.508 199.536 190.431 200.066 191.946 200.483C192.542 200.647 193.075 200.794 193.491 200.949C194.59 201.132 195.71 201.156 196.817 201.022L196.808 200.958Z" fill="#FFB7B6"/>
<path d="M159.549 206.621C159.365 206.621 159.215 206.475 159.21 206.292C159.205 206.109 159.346 205.955 159.529 205.944L174.451 205.082C174.637 205.073 174.795 205.215 174.806 205.401C174.817 205.586 174.676 205.746 174.49 205.759L159.569 206.621L159.549 206.621Z" fill="#070713"/>
<path d="M159.98 213.375C159.798 213.375 159.649 213.232 159.642 213.051C159.633 212.87 159.77 212.714 159.951 212.699L175.125 211.371C175.312 211.354 175.477 211.493 175.493 211.679C175.509 211.865 175.371 212.03 175.184 212.046L160.009 213.374C160 213.375 159.99 213.375 159.98 213.375Z" fill="#070713"/>
<path d="M164.958 218.23C164.775 218.231 164.625 218.085 164.62 217.902C164.614 217.719 164.754 217.565 164.938 217.553L177.675 216.728C177.862 216.718 178.022 216.859 178.036 217.044C178.048 217.231 177.906 217.392 177.719 217.404L164.981 218.23H164.958Z" fill="#070713"/>
<path d="M67.0331 103.359C66.8456 103.362 66.6963 103.517 66.6996 103.704C66.7148 104.584 66.6038 105.689 65.9878 105.949C65.1044 106.323 63.2802 104.969 62.3391 104.026L61.5541 103.24L61.7656 104.33C62.1312 106.217 61.9198 107.474 61.1374 108.067C59.5526 109.269 56.0719 107.559 56.0367 107.542L55.4894 107.27L55.5474 107.878C55.6843 109.315 55.4281 110.298 54.7853 110.797C53.8084 111.556 52.1923 110.993 52.1764 110.987C52 110.924 51.8055 111.015 51.742 111.192C51.6785 111.367 51.77 111.562 51.9464 111.625C52.4275 111.785 52.9312 111.869 53.4384 111.873C54.069 111.894 54.6887 111.704 55.1994 111.335C55.9409 110.76 56.2963 109.769 56.2588 108.385C57.3832 108.855 60.0306 109.757 61.5474 108.608C62.3974 107.963 62.7418 106.805 62.5754 105.158C63.505 105.939 65.1137 107.054 66.2524 106.574C67.0271 106.247 67.406 105.276 67.3785 103.692C67.3785 103.602 67.3417 103.515 67.2766 103.452C67.2114 103.39 67.1235 103.356 67.0331 103.359Z" fill="#070713"/>
<path d="M70.4882 101.968C68.065 102.356 61.4613 103.03 60.0209 101.498C59.7883 101.256 59.704 100.909 59.8004 100.587C60.5795 97.1402 69.7997 95.0538 69.8925 95.0337C70.0756 94.9928 70.1911 94.812 70.1504 94.629C70.1098 94.4459 69.9284 94.3306 69.7454 94.3715C69.3482 94.4601 60.0116 96.5739 59.1381 100.439C58.9943 100.979 59.1411 101.555 59.5263 101.962C60.3876 102.878 62.4717 103.145 64.6088 103.145C66.614 103.119 68.6147 102.95 70.5956 102.638C70.7802 102.607 70.9055 102.434 70.8759 102.25C70.8464 102.066 70.6729 101.939 70.4882 101.968Z" fill="#070713"/>
<path d="M54.5933 107.073C54.6876 107.233 54.8929 107.288 55.0541 107.195C55.2154 107.104 55.2726 106.899 55.1827 106.737C54.3822 105.338 53.6346 103.885 52.9607 102.418C52.8825 102.247 52.6809 102.173 52.5105 102.251C52.3401 102.329 52.2653 102.53 52.3434 102.701C53.0256 104.186 53.7827 105.657 54.5933 107.073Z" fill="#070713"/>
<path d="M58.277 99.5495C58.3348 99.6566 58.4453 99.7244 58.5669 99.7273C58.6885 99.7311 58.8024 99.6685 58.8656 99.5651C58.9288 99.461 58.9316 99.3315 58.8731 99.2251L57.5835 96.8642C57.5258 96.7571 57.4152 96.6894 57.2936 96.6864C57.172 96.6834 57.0581 96.7452 56.9949 96.8493C56.9317 96.9527 56.9289 97.0822 56.9875 97.1886L58.277 99.5495Z" fill="#070713"/>
<path fill-rule="evenodd" clip-rule="evenodd" d="M198.991 103.266C211.958 95.1573 215.902 87.9988 215.902 87.9988L218.997 99.5718L204.423 112.079C203.815 110.48 203.072 108.934 202.202 107.459L195.711 110.03L198.991 103.266ZM195.711 110.03L194.246 102.936C188.453 100.303 188.143 95.5137 188.143 95.5137L183.176 101.376L188.19 112.338L191.925 107.416L195.711 110.03Z" fill="#2D2B72"/>
<g style="mix-blend-mode:overlay" opacity="0.6">
<path d="M198.991 103.266L195.712 110.03L202.202 107.459C201.361 105.9 200.278 104.485 198.991 103.266Z" fill="#070713"/>
</g>
<g style="mix-blend-mode:overlay" opacity="0.6">
<path d="M194.246 102.936L195.711 110.031L191.925 107.416L194.246 102.936Z" fill="#070713"/>
</g>
<path d="M299.873 458.855H252.273V464.598H254.582C247.714 478.007 246.749 493.7 251.921 507.859L256.434 520.218H295.713L300.226 507.859C305.406 493.701 304.441 478.005 297.566 464.598H299.873V458.855Z" fill="#FFB66D"/>
<path d="M299.874 458.797H276.618C276.618 457.317 276.691 455.718 276.735 454.179C288.863 453.128 296.86 436.419 294.685 421.619C294.606 421.074 294.493 420.535 294.347 420.006C294.229 419.532 294.082 419.058 293.92 418.525C292.053 413.005 287.496 406.892 282.498 401.386C277.31 395.792 271.744 390.565 265.842 385.742L265.151 385.18L264.534 384.677V384.751V384.855V385.018V385.106C263.946 386.808 261.961 392.506 260.315 398.16C258.859 402.438 246.158 408.357 247.099 430.07C247.099 430.987 247.217 431.86 247.305 432.718C249.377 450.819 262.946 454.238 273.942 454.238C273.942 455.718 273.825 457.198 273.751 458.679H252.274H299.874V458.797Z" fill="#85CEB4"/>
<g style="mix-blend-mode:overlay" opacity="0.6">
<path d="M301.902 476.202H250.244C249.907 477.548 249.627 478.91 249.392 480.272H302.755C302.519 478.91 302.24 477.548 301.902 476.202Z" fill="#070713"/>
</g>
<g style="mix-blend-mode:overlay" opacity="0.6">
<path d="M248.73 486.266H303.416C303.343 484.889 303.211 483.543 303.035 482.181H249.113C248.937 483.543 248.804 484.889 248.73 486.266Z" fill="#070713"/>
</g>
<g style="mix-blend-mode:overlay" opacity="0.6">
<path d="M248.73 492.245H303.416C303.416 490.883 303.52 489.537 303.416 488.175H248.658C248.569 489.537 248.658 490.883 248.73 492.245Z" fill="#070713"/>
</g>
<g style="mix-blend-mode:overlay" opacity="0.6">
<path d="M273.942 454.238C273.942 455.718 273.824 457.198 273.751 458.679H276.618C276.618 457.198 276.691 455.6 276.735 454.06H276.073C275.383 454.238 274.662 454.238 273.942 454.238Z" fill="#070713"/>
<path d="M276.382 429.418L294.347 420.049C294.229 419.576 294.082 419.102 293.92 418.57L276.191 427.864C276.044 426.636 275.868 425.407 275.692 424.179C274.751 418.363 273.56 412.62 272.09 406.877L282.542 401.431C282.204 401.046 281.866 400.676 281.513 400.306L271.663 405.397C271.561 404.968 271.458 404.539 271.34 404.11C269.713 397.943 267.881 391.821 265.842 385.742L264.74 384.825L264.534 384.677L264.446 384.914C264.446 385.062 264.372 385.269 264.225 385.536C266.21 391.826 267.989 398.205 269.546 404.613C270.635 409.053 271.604 413.493 272.414 417.933L251.583 409.541C251.348 409.956 251.112 410.385 250.877 410.844L272.737 419.724C273.011 421.323 273.261 422.921 273.486 424.519C273.963 427.84 274.257 431.186 274.368 434.539C274.442 437.011 274.368 439.541 274.368 442.072L247.217 431.061C247.217 431.623 247.305 432.186 247.364 432.718L274.295 443.656C274.295 443.996 274.295 444.337 274.295 444.677C274.295 447.874 274.089 451.071 273.957 454.283C274.677 454.283 275.427 454.283 276.088 454.283H276.75C276.824 451.13 276.883 447.978 276.897 444.825C276.897 441.391 276.897 438.032 276.794 434.554C276.72 432.763 276.574 431.09 276.382 429.418Z" fill="#070713"/>
</g>
<path fill-rule="evenodd" clip-rule="evenodd" d="M5.95464 0C2.66598 0 0 2.665 0 5.95245V53.572C0 56.8595 2.66598 59.5245 5.95464 59.5245H81.1848L97.135 72.5455L91.0211 59.5245H129.513C132.802 59.5245 135.468 56.8595 135.468 53.572V5.95245C135.468 2.665 132.802 0 129.513 0H5.95464Z" fill="#D5F9EC"/>
<path d="M69.2227 15.6251H25.3072C24.4851 15.6251 23.8186 16.2914 23.8186 17.1132V19.3454C23.8186 20.1673 24.4851 20.8335 25.3072 20.8335H69.2227C70.0448 20.8335 70.7113 20.1673 70.7113 19.3454V17.1132C70.7113 16.2914 70.0448 15.6251 69.2227 15.6251Z" fill="#08AC85"/>
<path d="M49.1258 28.2742H25.3072C24.4851 28.2742 23.8186 28.9404 23.8186 29.7623V31.9944C23.8186 32.8163 24.4851 33.4826 25.3072 33.4826H49.1258C49.9479 33.4826 50.6144 32.8163 50.6144 31.9944V29.7623C50.6144 28.9404 49.9479 28.2742 49.1258 28.2742Z" fill="#FFB66D"/>
<path d="M122.07 45.3875H98.2515C97.4294 45.3875 96.7629 46.0537 96.7629 46.8756V49.1077C96.7629 49.9296 97.4294 50.5958 98.2515 50.5958H122.07C122.892 50.5958 123.559 49.9296 123.559 49.1077V46.8756C123.559 46.0537 122.892 45.3875 122.07 45.3875Z" fill="#08AC85"/>
<path d="M110.048 10.4167C111.565 10.4167 112.888 10.6542 114.016 11.1291C115.143 11.604 116.017 12.2824 116.638 13.1642C117.282 14.0462 117.604 15.0978 117.604 16.3189C117.604 17.6304 117.305 18.7272 116.707 19.6091C116.132 20.4684 115.35 21.1242 114.36 21.5765C113.394 22.0288 112.313 22.3228 111.117 22.4584V26.0879H108.253V20.9998C109.932 20.7511 111.232 20.4458 112.152 20.084C113.096 19.7222 113.751 19.2699 114.119 18.7272C114.51 18.1845 114.706 17.5173 114.706 16.7259C114.706 15.9344 114.522 15.256 114.153 14.6907C113.809 14.1253 113.28 13.6957 112.566 13.4018C111.853 13.1078 110.945 12.9607 109.841 12.9607C108.322 12.9607 107.08 13.3791 106.114 14.2158C105.171 15.0299 104.607 16.1493 104.423 17.5739L101.973 16.1832C102.226 15.0299 102.709 14.0236 103.422 13.1642C104.159 12.2824 105.079 11.604 106.183 11.1291C107.31 10.6542 108.598 10.4167 110.048 10.4167ZM109.633 29.0728C110.301 29.0728 110.841 29.2764 111.255 29.6834C111.669 30.0905 111.876 30.6219 111.876 31.2777C111.876 31.9334 111.669 32.4649 111.255 32.8719C110.841 33.279 110.301 33.4825 109.633 33.4825C108.966 33.4825 108.426 33.279 108.012 32.8719C107.597 32.4649 107.39 31.9334 107.39 31.2777C107.39 30.6219 107.597 30.0905 108.012 29.6834C108.426 29.2764 108.966 29.0728 109.633 29.0728Z" fill="#08AC85"/>
<path d="M14.8866 218.008C23.1082 218.008 29.7732 211.346 29.7732 203.127C29.7732 194.909 23.1082 188.246 14.8866 188.246C6.66496 188.246 0 194.909 0 203.127C0 211.346 6.66496 218.008 14.8866 218.008Z" fill="#08AC85"/>
<path d="M351.696 353.427C356.834 353.427 361 349.263 361 344.126C361 338.989 356.834 334.825 351.696 334.825C346.557 334.825 342.392 338.989 342.392 344.126C342.392 349.263 346.557 353.427 351.696 353.427Z" fill="#08AC85"/>
<path d="M333.832 297.622C336.504 297.622 338.67 295.457 338.67 292.786C338.67 290.115 336.504 287.95 333.832 287.95C331.16 287.95 328.994 290.115 328.994 292.786C328.994 295.457 331.16 297.622 333.832 297.622Z" fill="#FFB66D"/>
<path d="M41.6825 168.157C44.5601 168.157 46.8928 165.825 46.8928 162.948C46.8928 160.072 44.5601 157.74 41.6825 157.74C38.8049 157.74 36.4722 160.072 36.4722 162.948C36.4722 165.825 38.8049 168.157 41.6825 168.157Z" fill="#FFB66D"/>
<path d="M49.8701 466.282V467.966C49.8711 469.133 50.4375 470.228 51.3885 470.9L56.3761 516.293H105.936L106.642 509.843L110.924 470.9C111.875 470.228 112.441 469.133 112.442 467.966V466.282C112.438 464.519 111.16 463.02 109.426 462.744H52.8859C51.1523 463.02 49.8744 464.519 49.8701 466.282Z" fill="#FFB66D"/>
<path d="M97.0889 462.723C96.9735 459.006 96.8991 455.574 96.8991 453.393C96.8991 446.307 97.7744 429.224 97.7744 429.033C97.8764 427.1 96.3989 425.45 94.4741 425.347C94.1369 425.339 93.8005 425.375 93.4722 425.453C93.921 423.218 94.5024 421.011 95.2125 418.845C95.6851 417.399 95.3539 415.81 94.3446 414.676C93.3345 413.542 91.799 413.035 90.3162 413.347C88.8335 413.659 87.6292 414.741 87.1558 416.186C86.0676 419.575 85.2355 423.04 84.6675 426.555C84.404 415.889 84.0036 404.377 83.982 403.667C83.9493 402.534 83.4654 401.461 82.6392 400.689C81.813 399.917 80.7129 399.51 79.5852 399.558C78.4583 399.591 77.3925 400.075 76.6236 400.903C75.8554 401.731 75.4483 402.833 75.4937 403.964C75.4937 404.144 75.9053 415.762 76.1688 426.502C75.6046 423.007 74.7836 419.559 73.7117 416.186C73.2389 414.746 72.0373 413.669 70.5595 413.36C69.0817 413.052 67.5523 413.559 66.5473 414.69C65.5423 415.821 65.2144 417.405 65.6872 418.845C66.246 420.571 66.7417 422.456 67.1634 424.436C65.7031 423.397 63.7484 423.396 62.2874 424.435C60.8263 425.474 60.1771 427.326 60.668 429.054C62.6609 436.33 63.5044 449.579 63.8314 462.723H53.4554C53.2659 462.707 53.0754 462.707 52.886 462.723H109.384C109.198 462.707 109.012 462.707 108.826 462.723H97.0889Z" fill="#85CEB4"/>
<g style="mix-blend-mode:overlay" opacity="0.6">
<path d="M84.6675 426.555C84.404 415.889 84.0036 404.377 83.982 403.667C83.9493 402.534 83.4654 401.461 82.6392 400.689C81.813 399.917 80.7129 399.51 79.5852 399.558C78.4583 399.591 77.3925 400.075 76.6236 400.903C75.8547 401.731 75.4483 402.833 75.4937 403.964C75.4937 404.144 75.9053 415.762 76.1688 426.502C78.0981 437.94 78.3616 451.528 78.1085 462.723H82.7166C82.4636 451.55 82.7382 437.972 84.6675 426.555Z" fill="#070713"/>
</g>
<g style="mix-blend-mode:overlay" opacity="0.6">
<path d="M97.7744 429.054C97.8764 427.121 96.3989 425.471 94.4741 425.369C94.1369 425.36 93.8004 425.395 93.4722 425.474C91.237 436.627 90.9943 451.009 91.2265 462.723H97.0889C96.9735 459.006 96.8991 455.574 96.8991 453.393C96.8991 446.307 97.7744 429.213 97.7744 429.054Z" fill="#070713"/>
</g>
<g style="mix-blend-mode:overlay" opacity="0.6">
<path d="M51.4518 471.471L52.0529 476.958H110.217L110.818 471.471H51.4518Z" fill="#070713"/>
</g>
<g style="mix-blend-mode:overlay" opacity="0.6">
<path d="M63.7786 462.723H72.2144C71.898 448.955 70.9911 434.837 68.7873 426.798C68.1671 424.529 65.8325 423.194 63.573 423.817C61.3134 424.44 59.9844 426.785 60.6047 429.054C62.6397 436.33 63.4834 449.58 63.7786 462.723Z" fill="#070713"/>
</g>
</g>
<defs>
<clipPath id="clip0_15_787">
<rect width="361" height="532" fill="white"/>
</clipPath>
</defs>
</svg>
